<svg xmlns="http://www.w3.org/2000/svg" width="43.474" height="35.13" viewBox="0 0 11.502 9.295"><path d="M14.31 42.665C8.32 41.537 2.307 38.219.73 35.169-.675 32.45.041 21.694 2.804 18.722c14.671-15.773 35.367-2.569 36.766 9.36.461 3.927-.427 6.669-2.875 8.88-5.433 4.909-14.43 7.2-22.386 5.703zm11.399-1.498c6.833-1.61 12.189-5.684 12.796-9.732.423-2.825-.019-5.038-1.616-8.095-3.605-6.894-10.987-10.753-19.521-10.204-2.311.149-5.267.505-6.39 1.156-6.015 3.484-9.933 5.086-9.952 15.857-.005 2.93.188 3.68 1.287 4.986 4.607 5.475 14.71 8.08 23.396 6.032zM24.573 37c-2.05-2.05-.186-6.57 3.63-8.805 5.277-3.094 9.718-.427 7.235 4.345-2.136 4.106-8.576 6.75-10.865 4.46zM13.58 33.575c-1.628-.786-2.34-3.119-1.374-4.498 1.366-1.95 5.015-1.063 6.419 1.56.427.799.365 1.336-.266 2.3-.893 1.361-2.764 1.611-4.779.638zm10.18-12.56c-.569-.181-1.271-.772-1.561-1.314-.431-.805-.18-1.369 1.373-3.089 1.045-1.157 2.066-1.918 2.268-1.693.473.528 2.055 5.292 2.055 6.188-.512 1.659-3.115.36-4.135-.092z" style="fill:#000;stroke:#fff;stroke-width:2.2037;stroke-dasharray:none;stroke-opacity:1" transform="translate(.295 -2.86)scale(.27482)"/><path d="M14.54 13.606s3.79-.887 7.66-.322c3.871.564 10.241 4.354 11.854 6.53 1.612 2.178 4.596 7.258 4.515 10.322-.08 3.064-4.757 7.821-6.531 8.547-1.774.725-8.547 4.193-17.013 2.822S1.64 33.925 1.64 33.925.59 21.59 4.542 19.25c3.951-2.338 4.113-4.838 9.999-5.644z" style="fill:#fff;fill-opacity:1;stroke:#fff;stroke-width:2.08816;stroke-dasharray:none;stroke-opacity:1" transform="translate(.295 -2.86)scale(.27482)"/><path d="m5.098 21.235 6.384-3.649-7.11-4.35Z" style="fill:#000;fill-opacity:1;stroke:none;stroke-width:1.59333;stroke-linecap:round;stroke-linejoin:miter;stroke-dasharray:none;stroke-opacity:1" transform="translate(.295 -2.86)scale(.27482)"/><path d="m21.266 23.449.975-.844.844 1.307 2.265-1.538 1.273 1.422" style="fill:none;fill-opacity:1;stroke:#000;stroke-width:1.06416;stroke-linecap:round;stroke-linejoin:round;stroke-dasharray:none;stroke-opacity:1" transform="translate(.295 -2.86)scale(.27482)"/><path d="M14.31 42.665C8.32 41.537 2.307 38.219.73 35.169-.675 32.45.041 21.694 2.804 18.722c14.671-15.773 35.367-2.569 36.766 9.36.461 3.927-.427 6.669-2.875 8.88-5.433 4.909-14.43 7.2-22.386 5.703m11.399-1.498c6.833-1.61 12.189-5.684 12.796-9.732.423-2.825-.019-5.038-1.616-8.095-3.605-6.894-10.987-10.753-19.521-10.204-2.311.149-5.267.505-6.39 1.156-6.015 3.484-9.933 5.086-9.952 15.857-.005 2.93.188 3.68 1.287 4.986 4.607 5.475 14.71 8.08 23.396 6.032M24.573 37c-2.05-2.05-.186-6.57 3.63-8.805 5.277-3.094 9.718-.427 7.235 4.345-2.136 4.106-8.576 6.75-10.865 4.46M13.58 33.575c-1.628-.786-2.34-3.119-1.374-4.498 1.366-1.95 5.015-1.063 6.419 1.56.427.799.365 1.336-.266 2.3-.893 1.361-2.764 1.611-4.779.638m10.18-12.56c-.569-.181-1.271-.772-1.561-1.314-.431-.805-.18-1.369 1.373-3.089 1.045-1.157 2.066-1.918 2.268-1.693.473.528 2.055 5.292 2.055 6.188-.512 1.659-3.115.36-4.135-.092" style="fill:#000;stroke-width:1.95337" transform="translate(.295 -2.86)scale(.27482)"/></svg>