<svg xmlns="http://www.w3.org/2000/svg" width="41.035" height="41.803" viewBox="0 0 10.857 11.06"><path d="M35.949 30.482c.852-2.902 1.336-6.352.776-9.04-1.099-5.281-3.291-9.494-7.185-11.403-2.631-1.29-3.741-1.513-7.414-1.492-4.96.03-7.44.87-9.922 3.36-2.46 2.468-3.893 6.009-3.93 9.719-.033 3.206.782 5.227 3.848 9.55 1.956 2.756 2.619 4.154 2.619 5.517 0 1.206-.378 2.015-1.334 2.854-2.114 1.856-5.816 1.106-8.694-1.762-.737-.734-1.34-1.268-1.34-1.188s.341.675.758 1.32c2.045 3.161 5.736 5.006 10.85 5.423 2.62.214 5.504.065 7.904-.408 2.331-.46 4.074-1.128 5.745-2.205 1.293-.833 2.823-2.345 3.914-3.8.735-1.15 1.637-2.153 2.554-3.032.22-.565 1.445-3.426 1.636-4.023 2.193-6.859-.71-17.34-7.042-20.423-2.551-1.243-3.896-1.514-7.467-1.506-4.847.01-7.634.897-10.152 3.227-3.033 2.807-4.91 8.083-4.33 12.17.375 2.643 1.082 4.029 4.95 9.696 1.787 2.619 1.956 4.281.596 5.83-2.256 2.57-7.752.382-10.086-4.016-1.294-2.438-1.317-.206-.026 2.525.706 1.491 2.44 3.368 3.956 4.28 1.385.834 3.596 1.63 5.549 1.998 1.082.204 2.622.265 5.475.218 3.483-.058 4.2-.127 5.866-.568 3.43-.907 6.327-2.585 8.352-5.155.386-.49 2.22-3.252 2.558-3.746" style="display:inline;fill:#fff;fill-opacity:1;stroke:#fff;stroke-width:2.08218;stroke-dasharray:none;stroke-opacity:1" transform="translate(-.343 -2.007)scale(.29086)"/><path d="M22.225 7.943c-4.847.01-7.634.897-10.152 3.227-3.033 2.807-4.91 8.083-4.33 12.17.375 2.643 1.082 4.029 4.95 9.696 1.787 2.619 1.956 4.281.596 5.83-2.256 2.57-7.752.382-10.086-4.016-1.294-2.438-1.317-.206-.026 2.525.706 1.491 2.44 3.368 3.956 4.28 1.385.834 3.596 1.63 5.549 1.998 1.082.204 2.622.265 5.475.218 3.483-.058 4.2-.127 5.866-.568 3.43-.907 6.327-2.585 8.352-5.155.386-.49.739-.981 1.077-1.475a3 3 0 0 1-.553-.236q-.176.248-.355.49c-1.09 1.455-2.621 2.967-3.914 3.8-1.671 1.077-3.414 1.745-5.745 2.205-2.4.473-5.285.622-7.903.408-5.115-.417-8.806-2.262-10.85-5.423-.418-.645-.759-1.239-.759-1.32s.603.454 1.34 1.188c2.878 2.868 6.58 3.618 8.694 1.762.956-.84 1.334-1.648 1.334-2.854 0-1.363-.663-2.76-2.619-5.517-3.066-4.323-3.88-6.344-3.848-9.55.037-3.71 1.47-7.251 3.93-9.72 2.483-2.49 4.963-3.33 9.922-3.359 3.673-.021 4.783.202 7.414 1.492 3.894 1.909 6.086 6.122 7.185 11.403.56 2.688.076 6.138-.776 9.04q-.125.42-.272.832a3 3 0 0 1 .438.293c.22-.564.428-1.138.619-1.735 2.193-6.859-.71-17.34-7.042-20.423-2.551-1.243-3.896-1.514-7.467-1.506" style="display:inline;fill:#000;stroke-width:1.00013;stroke-dasharray:none" transform="translate(-.343 -2.007)scale(.29086)"/><path d="M11.045 32.898a2.92 2.92 0 0 1-2.918 2.918 2.92 2.92 0 0 1-2.918-2.918 2.92 2.92 0 0 1 2.918-2.918 2.92 2.92 0 0 1 2.918 2.918" style="fill:#fff;fill-opacity:1;stroke:#000;stroke-width:.520772;stroke-linecap:round;stroke-linejoin:round" transform="translate(-.343 -2.007)scale(.29086)"/><path d="M30.56 20.791a1.977 1.977 0 0 1-1.976 1.977 1.977 1.977 0 0 1-1.977-1.977 1.977 1.977 0 0 1 1.977-1.977 1.977 1.977 0 0 1 1.977 1.977M18.39 20.791a1.977 1.977 0 0 1-1.977 1.977 1.977 1.977 0 0 1-1.977-1.977 1.977 1.977 0 0 1 1.977-1.977 1.977 1.977 0 0 1 1.977 1.977" style="stroke-width:.352787;stroke-linecap:round;stroke-linejoin:round" transform="translate(-.343 -2.007)scale(.29086)"/><path d="M37.196 33.874a2.92 2.92 0 0 1-2.918 2.919 2.92 2.92 0 0 1-2.918-2.919 2.92 2.92 0 0 1 2.918-2.918 2.92 2.92 0 0 1 2.918 2.918" style="fill:#fff;fill-opacity:1;stroke:#000;stroke-width:.520772;stroke-linecap:round;stroke-linejoin:round" transform="translate(-.343 -2.007)scale(.29086)"/></svg>