<svg xmlns="http://www.w3.org/2000/svg" width="36.771" height="45.298" viewBox="0 0 9.729 11.985"><g style="display:inline"><path d="M3.708.03c-.316 0-.555.05-.78.164-.308.156-.69.64-.963 1.22-.248.526-.329.966-.318 1.731l.008.485-.085.052c-.19.117-.448.456-.605.796C.705 5.042.55 5.68.55 6.198c.001.486.09.83.346 1.343.289.578.655.957 1.23 1.272.214.119.256.167.144.168-.096 0-.304.103-.441.215-.486.399-.502 1.22-.033 1.69.29.29.984.52 1.833.607.374.039 1.678-.014 2.042-.082.277-.052.474-.15.66-.33.364-.348.415-.84.146-1.4-.12-.252-.292-.432-.438-.462q-.163-.034.03-.097a1.2 1.2 0 0 0 .432-.238c.23-.2.234-.202.441-.075.236.143.316.144.532.003.148-.097.87-.661 1.417-1.108.597-.487.898-1.184.86-1.99-.025-.525-.164-.93-.448-1.307-.325-.433-1.004-.756-1.687-.803-.159-.01-.29-.033-.29-.049-.01-.16-.056-.522-.1-.791a28 28 0 0 1-.101-.686C6.97.912 6.589.35 5.818.156c-.277-.07-.75-.044-1.043.056l-.223.076L4.415.2C4.214.073 4.033.029 3.708.029Z" style="fill:#fff;fill-opacity:1;stroke:#fff;stroke-width:.605635;stroke-dasharray:none;stroke-opacity:1" transform="translate(-.289 .222)"/><path d="M3.708.03c-.316 0-.555.05-.78.164-.308.156-.69.64-.963 1.22-.248.526-.329.966-.318 1.731l.008.485-.085.052c-.19.117-.448.456-.605.796C.705 5.042.55 5.68.55 6.198c.001.486.09.83.346 1.343.289.578.655.957 1.23 1.272.214.119.256.167.144.168-.096 0-.304.103-.441.215-.486.399-.502 1.22-.033 1.69.29.29.984.52 1.833.607.374.039 1.678-.014 2.042-.082.277-.052.474-.15.66-.33.364-.348.415-.84.146-1.4-.12-.252-.292-.432-.438-.462q-.163-.034.03-.097a1.2 1.2 0 0 0 .432-.238c.23-.2.234-.202.441-.075.236.143.316.144.532.003.148-.097.87-.661 1.417-1.108.597-.487.898-1.184.86-1.99-.025-.525-.164-.93-.448-1.307-.325-.433-1.004-.756-1.687-.803-.159-.01-.29-.033-.29-.049-.01-.16-.056-.522-.1-.791a28 28 0 0 1-.101-.686C6.97.912 6.589.35 5.818.156c-.277-.07-.75-.044-1.043.056l-.223.076L4.415.2C4.214.073 4.033.029 3.708.029M3.66.447c.35-.017.6.098.793.363.117.158.12.176.029.14a2 2 0 0 0-.248-.058c-.473-.086-1.148.189-1.572.64-.17.18-.275.37-.339.616-.16.62-.016 1.753.31 2.426.042.086.076.167.076.18s-.055.05-.122.083c-.184.093-.252.167-.252.274 0 .067.022.11.076.153.098.078.148.076.305-.012.071-.04.251-.113.4-.164l.27-.092.776-.008c.72-.007.781-.012.822-.062.22-.267 1.337-.764 1.956-.87a2.8 2.8 0 0 1 1.022.028c.337.087.72.286.902.467.182.183.362.53.422.816a2.1 2.1 0 0 1-.371 1.709c-.1.13-1.221 1.06-1.594 1.323l-.093.066-.425-.214c-.841-.423-1.437-.767-1.724-.994-.252-.199-.463-.32-.553-.32-.1 0-.205.112-.205.22 0 .084.046.127.446.413.355.254.57.385 1.145.698l.396.215-.1.089c-.166.144-.52.232-1.368.338a5.2 5.2 0 0 1-.994.02 4.6 4.6 0 0 1-.833-.201c-1.07-.372-1.592-.87-1.931-1.836C.976 6.59.95 6.038 1.024 5.67c.104-.514.337-1.11.54-1.377l.12-.16.036.138a.6.6 0 0 0 .085.193c.072.08.217.072.298-.015.065-.069.066-.074.028-.324a9 9 0 0 1-.04-1.002c0-.694.004-.766.067-1.007q.131-.5.478-1.022c.294-.441.479-.576.868-.631q.081-.012.156-.015M5.41.539q.085 0 .154.009c.23.03.393.089.557.201.12.083.287.283.26.311a.8.8 0 0 1-.2-.038 1.1 1.1 0 0 0-.81.083 3 3 0 0 1-.234.105c-.008 0-.022-.028-.03-.06a3 3 0 0 0-.127-.29L4.87.632l.075-.028c.105-.04.298-.065.465-.065m-1.375.774c.19-.002.24.01.403.091.313.157.345.198.39.505.06.416.098 1.126.098 1.85v.666l-.108.073-.107.074-.535-.016c-.35-.01-.603-.004-.733.018-.11.02-.222.04-.25.049-.037.011-.072-.032-.147-.181-.345-.686-.47-1.862-.25-2.358.173-.394.77-.765 1.239-.77m1.819.098c.188 0 .434.073.537.16.046.039.095.07.108.072.014 0 .055.04.093.088.052.066.077.154.108.38.022.16.06.43.087.595l.07.446c.012.08.023.219.024.31.002.156-.001.165-.077.182-.23.051-.54.144-.784.234-.15.056-.36.146-.467.2l-.195.097v-.512c0-.556-.038-1.278-.09-1.698-.038-.316-.04-.312.241-.453.15-.075.239-.1.345-.1M6.866 4.74c-.158.01-.243.086-.243.219 0 .129.062.17.316.21.244.04.59.188.806.346q.172.125.296-.02.2-.238-.402-.538c-.263-.131-.374-.17-.592-.205a1 1 0 0 0-.181-.012m-4.1 4.36.21.071c.114.04.338.098.496.132.481.102 1.406.079 1.993-.05.05-.01.065-.001.065.044 0 .032-.013.059-.03.059-.015 0-.028-.015-.028-.031 0-.017-.036-.027-.08-.022-.058.007-.08.028-.088.08l-.01.07-.05-.066c-.065-.087-.175-.061-.175.04 0 .049-.018.07-.064.077-.119.017-.086.197.036.197.028 0 .059.02.068.043.026.07.13.051.167-.029l.033-.072.033.065q.032.066.103.058c.064-.006.066-.004.017.025-.111.065-.386.147-.623.186-.495.081-1.274.018-1.853-.149-.217-.062-.22-.065-.22-.417Zm-.474.313q.035 0 .055.266c.012.16.038.294.064.334.165.253 1.606.506 2.339.41.53-.068.952-.226 1.12-.419.089-.101.095-.12.077-.24-.018-.119-.015-.128.027-.094.025.021.087.124.136.228.177.37.135.726-.107.91-.217.165-.327.192-.96.233-.665.044-1.243.047-1.54.008a5 5 0 0 1-.994-.227c-.443-.17-.62-.393-.62-.776.001-.167.016-.243.066-.339.063-.117.265-.294.337-.294" style="display:inline;fill:#000;fill-opacity:1;stroke-width:.332908" transform="translate(-.289 .222)"/></g></svg>