<svg xmlns="http://www.w3.org/2000/svg" width="40.861" height="35.616" viewBox="0 0 10.811 9.423"><path d="M5.54 10.075a1.5 1.5 0 0 1-.373-.232c-.16-.14-.333-.136-1.098.024-.967.202-1.758.153-2.333-.144a1.7 1.7 0 0 0-.633-.171C.62 9.552.05 8.993.05 8.522c0-.455.455-1.206.767-1.266.08-.015.186-.019.177.04a.5.5 0 0 0-.026.32c.05.236.14.385.294.467.384.206.604.157.532-.117-.035-.134.026-.382.137-.55.15-.23.169-.366.075-.542-.07-.129-.13-.389-.133-.578-.008-.336-.251-.4-.31-.105-.041.206.027.307-.094.256s-.278-.225-.496-.534c-.35-.496-.354-.518-.163-.918.11-.23.44-.564.755-.763.605-.382.645-.474.372-.834-.362-.48-.187-1.092.441-1.54l.512-.311.218.472c.402.869 1.374.751 1.51.025.081-.433.352-.568.479-.24.097.255.212.23.592-.122.416-.386.584-.386.584 0 0 .358.354.408.854.122.167-.095.395-.176.506-.178.41-.009.54 1.078.206 1.731-.077.151-.038.281.139.458.304.304.334.304.834-.001.323-.197.397-.314.366-.577-.055-.47.259-.483.695-.028.536.56.508 1.228-.075 1.763-.24.219-.506.421-.593.45-.125.042-.117.135.04.438.341.66.257 1.09-.3 1.659-.327.332-.487.469-.557.498-.04-.074-.044-.085-.084-.184-.076-.183-.202-.105-.549.357l-.386.486.28-.04c.07-.01.364-.143.478-.196.003.21-.014.402-.231.784-.386.678-1.708 1.09-2.356.851Z" style="display:inline;fill:#fff;fill-opacity:1;stroke:#fff;stroke-width:.605635;stroke-dasharray:none;stroke-opacity:1" transform="translate(.252 -1.09)"/><path d="M5.54 10.075a1.5 1.5 0 0 1-.373-.232c-.16-.14-.333-.136-1.098.024-.967.202-1.758.153-2.333-.144a1.7 1.7 0 0 0-.633-.171C.62 9.552.05 8.993.05 8.522c0-.455.455-1.206.767-1.266.08-.015.186-.019.177.04a.5.5 0 0 0-.026.32c.05.236.14.385.294.467.384.206.604.157.532-.117-.035-.134.026-.382.137-.55.15-.23.169-.366.075-.542-.07-.129-.13-.389-.133-.578-.008-.336-.251-.4-.31-.105-.041.206.027.307-.094.256s-.278-.225-.496-.534c-.35-.496-.354-.518-.163-.918.11-.23.44-.564.755-.763.605-.382.645-.474.372-.834-.362-.48-.187-1.092.441-1.54l.512-.311.218.472c.402.869 1.374.751 1.51.025.081-.433.352-.568.479-.24.097.255.212.23.592-.122.416-.386.584-.386.584 0 0 .358.354.408.854.122.167-.095.395-.176.506-.178.41-.009.54 1.078.206 1.731-.077.151-.038.281.139.458.304.304.334.304.834-.001.323-.197.397-.314.366-.577-.055-.47.259-.483.695-.028.536.56.508 1.228-.075 1.763-.24.219-.506.421-.593.45-.125.042-.117.135.04.438.341.66.257 1.09-.3 1.659-.327.332-.487.469-.557.498-.04-.074-.044-.085-.084-.184-.076-.183-.202-.105-.549.357l-.386.486.28-.04c.07-.01.364-.143.478-.196.003.21-.014.402-.231.784-.386.678-1.708 1.09-2.356.851M4.213 9.45c.9-.215.933-.215 1.068.001.179.286.399.282.988-.019.556-.283.693-.459.505-.646-.22-.222-.155-.557.139-.708.456-.235.824-.628.824-.879 0-.24.236-.25.745-.034.15.062.215-.004.268-.272.09-.448-.018-.868-.303-1.174-.328-.352-.273-.522.2-.61.512-.097.92-.577.92-1.084v-.371l-.275.257c-.353.33-.916.543-1.2.453-.322-.102-.725-.811-.642-1.13.039-.147.033-.464-.012-.705-.067-.356-.121-.42-.288-.342-.114.053-.547.105-.963.116-.578.016-.89.1-1.322.353-.64.375-1.188.353-1.782-.07-.425-.303-.51-.162-.406.671.08.632.07.663-.278.868-.251.148-.417.392-.55.807-.196.612-.15.784.16.588.337-.213.45-.113.527.464.042.319.11.785.15 1.037.059.357.035.458-.106.458-.326 0-.491.315-.327.623.202.377-.114.604-.706.507l-.435-.07.23.39c.164.277.39.438.781.559.739.228 1 .223 2.09-.038m.244-1.862c-.584-.12-1.01-.474-1.319-1.096-.487-.98-.31-1.757.626-2.733.608-.635 1.237-.917 2.048-.917.638 0 .885.175 1.648 1.17.754.982.356 2.746-.738 3.265-.543.257-1.731.42-2.265.31m2.085-.614c.506-.254 1.073-1.1 1.073-1.603 0-.174-.057-.465-.126-.647l-.126-.33-.433.505c-.503.588-.692.642-.588.17.067-.308.03-.288-.456.237-.29.315-.834.782-1.207 1.037-.373.256-.702.518-.732.583-.088.194.877.407 1.532.338.336-.035.814-.166 1.063-.29" style="display:inline;fill:#000;stroke-width:.461172;stroke-dasharray:none" transform="translate(.252 -1.09)"/></svg>