<svg xmlns="http://www.w3.org/2000/svg" width="45.612" height="45.612" viewBox="0 0 12.068 12.068"><g transform="translate(.242 -2.05)scale(.29173)"><path d="M38.702 27.711a18.85 18.85 0 0 1-18.85 18.849A18.85 18.85 0 0 1 1.005 27.71 18.85 18.85 0 0 1 19.853 8.862a18.85 18.85 0 0 1 18.849 18.85Z" style="fill:#fff;fill-opacity:1;stroke:#efefef;stroke-width:3.66946;stroke-dasharray:none;stroke-opacity:1"/><circle cx="19.853" cy="27.711" r="18.849" style="fill:none;fill-opacity:1;stroke:#000;stroke-width:1.59349;stroke-linecap:round;stroke-linejoin:round;stroke-dasharray:none;stroke-opacity:1"/><path d="M10.882 19.644h5.94v5.94h-5.94zM22.575 19.644h5.94v5.94h-5.94z" style="fill:#000;fill-opacity:1;stroke:none;stroke-width:1.85838;stroke-linecap:round;stroke-linejoin:miter;stroke-dasharray:none;stroke-opacity:1"/><path d="M7.469 29.654v3.554s4.396 5.8 11.88 5.8c7.483 0 12.815-5.8 12.815-5.8v-3.554s-5.66 4.443-12.815 4.443c-6.99 0-11.88-4.443-11.88-4.443" style="fill:#000;fill-opacity:1;stroke:none;stroke-width:1.59333;stroke-linecap:round;stroke-linejoin:miter;stroke-dasharray:none;stroke-opacity:1"/></g></svg>