<svg xmlns="http://www.w3.org/2000/svg" width="43.644" height="32.104" viewBox="0 0 11.547 8.494"><path d="M31.118 14.934c-.753-.008-1.539.106-2.581.34-2.069.462-4.62 1.755-5.767 2.785l-.005.006c-.15.126-.3.283-.44.482-.507.712-.884 1.944-.59 4.073-.412.13-1.331.069-3.233-.075-9.216-.697-16.914 4.71-18.268 12.832-.427 2.56.154 6.06.735 4.426.335-.944.382-.926.742.253.212.694.853 1.771 1.425 2.396 1.287 1.406 2.044 1.466 1.62.127-.391-1.23-.6-1.234 3.046.058 2.494.885 3.743 1.02 7.298.795 2.358-.15 4.913-.51 5.676-.802.875-.335 1.387-.35 1.387-.04 0 1.115 1.125.356 2.62-1.765 1.29-1.83 1.808-2.204 2.73-1.973.923.232 1.384-.101 2.435-1.767 1.562-2.474 1.664-4.928.315-7.572l-.98-1.923 2.872-.638c3.256-.722 5.256-1.64 6.685-3.068 1.294-1.295 1.243-1.988-.152-2.01-1.25-.02-2.521-.667-4.627-2.358-1.603-1.289-1.404-1.953.726-2.42 1.965-.432 1.575-.966-1.288-1.768-.91-.255-1.628-.386-2.38-.394z" style="display:inline;fill:#fff;fill-opacity:1;stroke:#fff;stroke-width:2.19699;stroke-dasharray:none;stroke-opacity:1" transform="translate(.28 -3.813)scale(.27566)"/><path d="M31.031 15.369c-.752-.008-1.538.106-2.58.339-2.07.463-4.621 1.756-5.767 2.786l-.006.005c-.15.126-.3.284-.44.482-.506.712-.884 1.944-.589 4.074-.413.13-1.332.068-3.234-.075C9.2 22.283 1.502 27.69.147 35.81c-.427 2.561.154 6.061.735 4.426.335-.943.383-.926.742.253.212.694.854 1.772 1.425 2.396 1.287 1.406 2.045 1.467 1.62.128-.39-1.23-.6-1.235 3.046.058 2.495.884 3.743 1.02 7.298.795 2.359-.15 4.913-.511 5.676-.803.876-.334 1.387-.35 1.387-.04 0 1.115 1.126.357 2.621-1.765 1.29-1.83 1.808-2.203 2.73-1.972.923.232 1.383-.102 2.435-1.768 1.561-2.474 1.663-4.928.315-7.571l-.98-1.924 2.871-.637c3.257-.723 5.256-1.64 6.685-3.069 1.295-1.295 1.243-1.988-.152-2.01-1.25-.02-2.52-.666-4.626-2.358-1.604-1.288-1.405-1.952.725-2.42 1.965-.431 1.576-.966-1.288-1.768-.91-.254-1.628-.385-2.38-.393m-7.084 2.995c.143-.006.045.36-.182 1.2-.222.825-.409 2.126-.416 2.889-.012 1.444-.287 1.685-.79.765-.155-.432-.81-2.545.53-4.177.012-.011.023-.017.035-.028.456-.412.712-.644.823-.649m6.966 1.45c1.279-.036 2.347.075 2.06.361-.204.204-1.02.403-1.812.443-1.736.087-4.362 1.858-4.8 3.235-.33 1.04-1.257 1.385-1.257.467 0-1.024 1.535-3.483 2.495-3.997.549-.293 2.036-.474 3.314-.51m-16.42 3.569c.432-.04.52.096.52.386 0 .239-1.268.796-2.818 1.237-3.445.98-6.741 3.586-8.49 6.715-1.563 2.797-1.832 7.793-.52 9.665.431.617.67 1.122.531 1.122-.77 0-1.822-2.533-1.822-4.385 0-1.66-.163-2.08-.727-1.864-.61.235-.644-.032-.199-1.655.73-2.663 1.228-3.504 3.605-6.083 2.264-2.456 3.799-3.39 7.337-4.463 1.377-.418 2.152-.635 2.584-.675m-4.658 6.716q.044-.007.1.029c.295.182.538.954.538 1.717 0 .762.566 2.154 1.26 3.095.693.94 1.26 1.778 1.26 1.863 0 .674-1.793-.99-2.459-2.281-.7-1.36-1.141-4.359-.699-4.423m-5.117 4.275c.048-.063.075.529.12 1.852.046 1.401.356 2.822.69 3.155.45.45.459.751.035 1.175-.731.731-1.307-2.034-1.016-4.881.082-.806.133-1.252.17-1.301m24.482.061c.613 0 .561 2.373-.077 3.566-.617 1.153-2 1.305-2 .22 0-.417.227-.758.504-.758.278 0 .48-.17.45-.379-.11-.762.69-2.649 1.123-2.649m-11.795.002 2.461.323c1.354.177 2.561.408 2.683.513s.316 1.512.433 3.125c.205 2.837.165 2.952-1.23 3.51-.793.317-2.463.804-3.712 1.081-2.93.651-6.23.6-9.082-.142-2.764-.719-3.098-1.937-1.513-5.52 1.196-2.706 1.849-2.918 3.519-1.14.913.971 5.286 2.789 6.713 2.789.131 0 .124-1.02-.017-2.269z" style="display:inline;fill:#000;fill-opacity:1;stroke:none;stroke-width:2.19699;stroke-dasharray:none;stroke-opacity:1" transform="translate(.304 -3.932)scale(.27566)"/></svg>