<svg xmlns="http://www.w3.org/2000/svg" width="41.706" height="41.706" viewBox="0 0 11.035 11.035"><g transform="translate(.119 -1.583)scale(.27148)"><path d="M38.594 26.154a18.71 18.71 0 0 1-18.708 18.708A18.71 18.71 0 0 1 1.178 26.154 18.71 18.71 0 0 1 19.886 7.446a18.71 18.71 0 0 1 18.708 18.708Z" style="fill:#fff;fill-opacity:1;stroke:#f3f3f3;stroke-width:3.23079;stroke-dasharray:none;stroke-opacity:1"/><circle cx="19.886" cy="26.154" r="18.708" style="fill:none;fill-opacity:1;stroke:#000;stroke-width:1.33067;stroke-linecap:round;stroke-linejoin:round;stroke-dasharray:none;stroke-opacity:1"/><path d="M11.88 16.136h2.806l5.566 10.244 3.461-8.7s3.695-4.116 6.829 0c0 2.853-1.87 2.9-1.87 2.9s-1.638-4.49-3.228-1.918c-1.216 2.9-6.642 15.996-6.642 15.996s-2.105 2.947-5.379 1.637-.374-4.443 0-4.443c1.17 1.544 2.386 4.07 4.023 1.45l1.496-3.601z" style="fill:#000;fill-opacity:1;stroke:none;stroke-width:1.06416;stroke-linecap:round;stroke-linejoin:round;stroke-dasharray:none;stroke-opacity:1"/><path d="M14.57 28.297v1.988l7.249 6.314v-2.478z" style="fill:#000;fill-opacity:1;stroke:none;stroke-width:1.06416;stroke-linecap:round;stroke-linejoin:round;stroke-dasharray:none;stroke-opacity:1"/></g></svg>