<svg xmlns="http://www.w3.org/2000/svg" width="40.881" height="35.399" viewBox="0 0 10.816 9.366"><g style="display:inline"><path d="M7.984 14.05c-1.201.049-1.412 3.488-1.252 4.16.71 0 .833-.191.833-.191s-.195-2.097.4-2.048c.595.05 1.168 1.786 1.168 1.786l1.114-.496q-.56.257-1.12.549a349 349 0 0 0-.041 2.786s1.947-1.21 4.978-2.135c-2.028.7-4.249 1.742-4.249 1.742 0 .406-1.431 1.108-1.837 1.108s-1.205.47-1.778 1.043c-.862.862-.99 1.414-.747 3.194.231 1.685.14 2.155-.415 2.155-2.46 0-3.554 4.76-1.767 7.69.672 1.102.868 2.089.686 3.447-.216 1.606-.045 2.114 1.09 3.25.74.739 1.813 1.377 2.384 1.417l1.777.122c.405.027 1.51.411 2.457.852.946.44 2.054.92 2.46 1.067 2.578.933 9.116-.425 11.306-2.348.405-.356 1.67-.656 2.81-.667 2.677-.026 5.151-1.222 7.085-3.424 5.54-6.31 4.023-13.76-3.503-17.191-1.888-.86-3.49-1.217-5.304-1.18-2.366.047-3.535-1.947-3.976-3.107 0 0-2.37-.335-5.706.155 2.093-.382 4.475-.525 6.975-.124l-.197-2.73s-6.267-.728-12.817 2.085c0 0-1.39-2.78-2.696-2.961a1 1 0 0 0-.118-.006zm-3.04 3.826-.562.314s.199.81.844.71l1.19-.594s-1.108-.066-1.472-.43zm2.944.265c-1.636.009-2.99.898-3.689 1.57-.86.827-2.694 1.175-2.694 1.175s-.017.644.066 1.686c1.025.364 2.546-.778 3.786-1.968s3.68-.959 3.68-.959.074-.413.024-1.356a4.5 4.5 0 0 0-1.173-.148Z" style="fill:#fff;fill-opacity:1;stroke:#fff;stroke-width:2.20337;stroke-dasharray:none;stroke-opacity:1" transform="translate(-.11 -3.547)scale(.27487)"/><path d="M14.124 45.548c-.406-.147-1.512-.627-2.458-1.068-.947-.44-2.053-.823-2.458-.85l-1.777-.123c-.571-.04-1.644-.678-2.384-1.418-1.135-1.135-1.305-1.643-1.09-3.249.182-1.359-.014-2.346-.686-3.448-1.787-2.93-.692-7.69 1.768-7.69.554 0 .644-.469.413-2.153-.244-1.78-.114-2.334.747-3.196.573-.573 1.374-1.042 1.78-1.042s1.836-.701 1.836-1.107c0 0 4.036-1.9 6.195-2.292 3.773-.688 6.533-.282 6.533-.282.44 1.16 1.61 3.155 3.976 3.107 1.815-.036 3.415.32 5.303 1.18 7.526 3.432 9.044 10.883 3.503 17.193-1.933 2.202-4.407 3.397-7.084 3.423-1.14.01-2.404.311-2.81.667-2.19 1.923-8.728 3.28-11.307 2.348m8.542-2.364c1.775-.842 2.358-1.716 1.144-1.716-.92 0-3.87-3.237-5.913-6.488-2.303-3.662-3.642-4.526-6.517-4.202-2.645.298-4.633 1.918-4.626 3.77.014 3.456 3.453 7.948 7.124 9.306 1.97.729 6.582.377 8.788-.67M7.758 40.89c-.549-.588-1.134-1.502-1.302-2.031-.243-.766-.393-.823-.736-.282-.237.374-.434.845-.438 1.048-.013.658 1.938 2.335 2.716 2.335.607 0 .56-.21-.24-1.07m-.82-11.126c.548-.887-1.45-.73-2.366.187-.977.978-.971 1.756.032 4.036l.804 1.828.584-2.732c.32-1.503.746-2.997.945-3.319m24.12-3.475c-.79-.742-.824-.729-.479.185.204.541.508 1.426.674 1.967.279.904.317.89.479-.186.1-.666-.19-1.512-.675-1.966m2.213-.236c-.474-.436-.54-.36-.292.339.175.495.344 1.159.375 1.474.031.316.163.164.292-.338s-.04-1.165-.375-1.475m-24.162 1.06c.815-.814.775-4.326-.049-4.326-1.502 0-2.288 2.139-1.52 4.139.357.93.776.98 1.57.187" style="display:inline;fill:#000;stroke-width:1.85807" transform="translate(-.11 -3.547)scale(.27487)"/><path d="m23.812 17.661-.198-2.728s-7.375-.86-14.486 2.877c-.033 1.852-.042 2.786-.042 2.786s6.772-4.208 14.726-2.935" style="display:inline;fill:none;stroke:#000;stroke-width:.423336;stroke-linecap:round;stroke-linejoin:round;stroke-dasharray:none" transform="translate(-.11 -3.547)scale(.27487)"/><path d="M10.798 17.016s-1.39-2.778-2.695-2.96c-1.307-.182-1.536 3.46-1.37 4.155.71 0 .832-.192.832-.192s-.195-2.097.4-2.048c.596.05 1.168 1.787 1.168 1.787z" style="display:inline;fill:none;stroke:#000;stroke-width:.423336;stroke-linecap:round;stroke-linejoin:round;stroke-dasharray:none" transform="translate(-.11 -3.547)scale(.27487)"/><path d="M9.037 19.645s-2.44-.231-3.68.96c-1.24 1.19-2.761 2.331-3.786 1.967-.083-1.041-.067-1.686-.067-1.686s1.836-.348 2.696-1.174c.86-.827 2.712-1.985 4.862-1.423.05.943-.025 1.356-.025 1.356" style="display:inline;fill:none;stroke:#000;stroke-width:.423336;stroke-linecap:round;stroke-linejoin:round;stroke-dasharray:none" transform="translate(-.11 -3.547)scale(.27487)"/><path d="M6.416 18.306s-1.108-.066-1.472-.43l-.562.314s.198.81.843.711" style="display:inline;fill:none;stroke:#000;stroke-width:.423336;stroke-linecap:round;stroke-linejoin:round;stroke-dasharray:none" transform="translate(-.11 -3.547)scale(.27487)"/></g></svg>