<svg xmlns="http://www.w3.org/2000/svg" width="29.713" height="30.027" viewBox="0 0 7.861 7.945"><g stroke="#000" style="display:inline"><path d="M19.51 9.868c-12.268.07-15.96 7.77-16.997 12.962l-.067.01c-.016 0-2.057 14.749.378 20.758l10.206-.052v-1.867q-.046-.047-.092-.094c2.273 2.245 4.651 3.67 6.294 3.67 1.438 0 3.717-1.37 5.967-3.54v1.83l10.206.053c1.856-4.58 1.116-14.193.65-18.528-.01-.313-.046-.977-.249-2.083l-.02-.147-.01-.002c-.83-4.33-4.015-12.733-16.265-12.97ZM6.259 27.688Zm25.945 0zm-25.918.806zm25.886.037zm-25.804.805zm25.71.092zm-25.585.72Zm.167.797ZM31.767 31zm-.221.797zm-24.648.033zm24.423.65zm-24.196.067zm.299.81zm23.558.005zm-.286.67q-.118.259-.244.514.125-.255.244-.513zM7.77 34.18zm.494 1.031.102.2zm21.849 0-.127.242zM9.87 37.907l.107.155z" style="display:inline;fill:#000;fill-opacity:1;stroke:#fff;stroke-width:2.92014;stroke-dasharray:none;stroke-opacity:1" transform="translate(-.032 -1.744)scale(.2074)"/><path d="M32.203 27.688c0 8.533-9.273 17.567-12.972 17.567-4.143 0-12.972-9.034-12.972-17.567s5.808-13.333 12.972-13.333 12.972 4.8 12.972 13.333z" style="display:inline;fill:#fff" transform="translate(-.032 -1.744)scale(.2074)"/><path d="m7.215 22.176-4.77.664c-.017 0-2.055 14.748.38 20.757 10.154-.052 10.206-.05 10.206-.05v-1.869c-3.497-3.414-6.772-8.793-6.772-13.99 0-2.06.341-3.902.956-5.512zM25.2 41.714v1.833s.052-.002 10.206.05c2.435-6.01.396-20.757.38-20.757l-4.528-.63c.607 1.602.945 3.431.945 5.478 0 5.215-3.465 10.614-7.003 14.026z" style="display:inline;fill:#000;fill-opacity:1;stroke-width:.30818" transform="translate(-.032 -1.744)scale(.2074)"/><path fill="none" stroke-width=".438" d="M32.203 27.688c0 8.533-9.273 17.567-12.972 17.567-4.143 0-12.972-9.034-12.972-17.567s5.808-13.333 12.972-13.333 12.972 4.8 12.972 13.333z" style="display:inline;fill:#fff;fill-opacity:0" transform="translate(-.032 -1.744)scale(.2074)"/><path d="M2.165 25.364H36.07s-.042-15.176-16.56-15.495C5.008 9.95 2.475 20.709 2.165 25.364Z" style="display:inline;fill:#000;fill-opacity:1;stroke-width:.383193" transform="translate(-.032 -1.744)scale(.2074)"/></g></svg>