<?xml version="1.0" encoding="UTF-8" standalone="no"?>
<svg
   width="150"
   height="200"
   viewBox="0 0 39.687 52.917"
   version="1.1"
   id="svg3"
   sodipodi:docname="Lanaluff.svg"
   xml:space="preserve"
   inkscape:version="1.3.2 (091e20e, 2023-11-25, custom)"
   xmlns:inkscape="http://www.inkscape.org/namespaces/inkscape"
   xmlns:sodipodi="http://sodipodi.sourceforge.net/DTD/sodipodi-0.dtd"
   xmlns="http://www.w3.org/2000/svg"
   xmlns:svg="http://www.w3.org/2000/svg"><defs
     id="defs3" /><sodipodi:namedview
     id="namedview3"
     pagecolor="#505050"
     bordercolor="#eeeeee"
     borderopacity="1"
     inkscape:showpageshadow="0"
     inkscape:pageopacity="0"
     inkscape:pagecheckerboard="0"
     inkscape:deskcolor="#505050"
     inkscape:zoom="2.7824652"
     inkscape:cx="54.987211"
     inkscape:cy="68.464469"
     inkscape:window-width="1920"
     inkscape:window-height="1001"
     inkscape:window-x="-9"
     inkscape:window-y="-9"
     inkscape:window-maximized="1"
     inkscape:current-layer="svg3" /><g
     id="g28"
     style="display:inline"
     transform="translate(0.09509014,1.2361718)"><ellipse
       style="display:inline;fill:#000000;fill-opacity:1;stroke:#000000;stroke-width:0.31856;stroke-linecap:butt;stroke-linejoin:bevel;stroke-miterlimit:8.8;stroke-dasharray:none;stroke-opacity:1"
       id="path15"
       cx="18.684839"
       cy="20.91983"
       rx="0.99844646"
       ry="1.9493479" /><path
       style="display:inline;fill:none;fill-opacity:1;stroke:#000000;stroke-width:0.31856;stroke-linecap:round;stroke-linejoin:round;stroke-miterlimit:8.8;stroke-dasharray:none;stroke-opacity:1"
       d="m 15.047632,19.873773 3.779862,-5.705342 3.779861,5.705342 3.779861,-2.18706 -7.8e-5,5.515281 c 0,0 -7.583474,2.947794 -15.119367,0 v -5.515281 z"
       id="path16"
       sodipodi:nodetypes="cccccccc" /><path
       id="path25"
       style="display:inline;fill:none;fill-opacity:1;stroke:#000000;stroke-width:0.31856;stroke-linecap:round;stroke-linejoin:round;stroke-miterlimit:8.8;stroke-dasharray:none;stroke-opacity:1"
       d="m 11.492019,30.414873 -0.10542,0.01395 c 0,0 -2.2107538,2.472571 -1.7828486,5.658089 -1.4263506,2.519886 -4.3740216,8.938504 7.8450486,9.413954 12.21907,0.475449 14.140283,-11.049431 13.24898,-11.597284 -1.588906,-0.12761 -3.220954,-1.731253 -3.936828,-3.057727 -0.0139,-0.03223 -0.256595,0.122237 -0.504365,0.218592 -2.420597,0.941342 -4.16903,-0.773159 -5.043135,-1.277449 -0.672388,1.008581 -3.160109,3.126634 -7.194438,2.31977 -1.454463,-0.290893 -2.181418,-0.958188 -2.526994,-1.691897 z"
       sodipodi:nodetypes="cccsccscscc" /><path
       style="display:inline;fill:none;fill-opacity:1;stroke:#000000;stroke-width:0.31856;stroke-linecap:round;stroke-linejoin:round;stroke-miterlimit:8.8;stroke-dasharray:none;stroke-opacity:1"
       d="m 11.352902,23.204378 c 0,0 -2.1415502,0.564567 -2.1079307,2.1783 0.03362,1.613734 1.9499277,2.218882 2.1180247,2.218882 0.168097,0 -1.3783969,3.698139 2.655936,4.505007 4.034333,0.806865 6.522171,-1.311159 7.19456,-2.319741 0.874106,0.504291 2.622317,2.218881 5.042916,1.277538 2.420601,-0.941346 3.143417,-4.000715 2.588697,-5.042917 0.453864,1.529684 -0.151288,3.563662 -2.084405,4.824391 1.14306,2.118024 2.521457,3.143418 6.085118,3.328324 3.429183,-0.168095 3.294706,-0.588341 3.294706,-0.588341 0,0 -0.353005,0.06724 -0.252145,-0.672389 0.100857,-0.739626 -0.563127,-1.554899 -0.840488,-1.66416 0.369816,-0.605151 0.72282,-1.596926 0.588342,-2.639129 -0.134478,-1.0422 -1.008583,-2.252501 -2.622316,-2.35336 0.134477,-0.958154 0.299943,-2.069063 -0.67239,-2.773604 -0.972333,-0.704541 -2.471029,-0.386623 -2.908081,0.706009 0.739627,-1.361587 -0.01705,-2.125548 -0.621959,-2.252503 -1.36159,-0.285765 -2.377834,1.241444 -2.377834,1.241444 0,0 -6.675204,2.722528 -13.820807,0.430406 z"
       id="path26"
       sodipodi:nodetypes="cssscsccccscsczcscsc" /><path
       id="path27"
       style="fill:none;fill-opacity:1;stroke:#000000;stroke-width:0.31856;stroke-linecap:round;stroke-linejoin:round;stroke-miterlimit:8.8;stroke-dasharray:none;stroke-opacity:1"
       d="m 9.8921067,26.799567 -0.026872,-0.0078 c 0,0 -0.9919961,0.172046 -1.5161001,0.964521 -0.369824,0.559195 -0.4569269,1.198619 -0.2905193,2.197063 -0.9984444,0.641857 -2.0918529,1.378687 -2.54353,2.377131 -0.4516773,0.998443 -0.4754381,2.520249 -0.2377131,3.019473 0,0 0.1540366,0.427852 -0.6185708,1.045938 0,0 0.9513137,0.998396 2.0686206,0.974623 1.1011435,-0.02342 2.5349538,-0.710662 2.5766031,-0.730709 0.1032927,-0.198932 0.204968,-0.385538 0.2997252,-0.552941 -0.4279042,-3.185512 1.7828487,-5.658089 1.7828487,-5.658089 l 0.10542,-0.01395 c -0.612968,-1.301424 -0.0217,-2.813283 -0.129192,-2.813283 -0.104679,0 -0.886981,-0.235252 -1.4707204,-0.802023 z"
       sodipodi:nodetypes="ccscscccccccscc" /></g></svg>
