<?xml version="1.0" encoding="UTF-8" standalone="no"?>
<svg
   width="150"
   height="200"
   viewBox="0 0 39.687 52.917"
   version="1.1"
   id="svg3"
   sodipodi:docname="Magmy.svg"
   xml:space="preserve"
   inkscape:version="1.3.2 (091e20e, 2023-11-25, custom)"
   xmlns:inkscape="http://www.inkscape.org/namespaces/inkscape"
   xmlns:sodipodi="http://sodipodi.sourceforge.net/DTD/sodipodi-0.dtd"
   xmlns="http://www.w3.org/2000/svg"
   xmlns:svg="http://www.w3.org/2000/svg"><defs
     id="defs3" /><sodipodi:namedview
     id="namedview3"
     pagecolor="#505050"
     bordercolor="#eeeeee"
     borderopacity="1"
     inkscape:showpageshadow="0"
     inkscape:pageopacity="0"
     inkscape:pagecheckerboard="0"
     inkscape:deskcolor="#505050"
     inkscape:zoom="2.7824652"
     inkscape:cx="72.238101"
     inkscape:cy="63.432959"
     inkscape:window-width="1920"
     inkscape:window-height="1001"
     inkscape:window-x="-9"
     inkscape:window-y="-9"
     inkscape:window-maximized="1"
     inkscape:current-layer="svg3" /><g
     id="g29"><path
       style="fill:none;fill-opacity:1;stroke:#000000;stroke-width:0.821272;stroke-linecap:round;stroke-linejoin:round;stroke-miterlimit:8.8;stroke-dasharray:none;stroke-opacity:1"
       d="m 10.411995,25.389067 c 0,0 5.700629,-10.555006 12.356939,-9.366379 6.656309,1.188627 7.635762,4.207739 8.681754,6.584992 1.30749,2.638752 0.404132,9.009792 1.687851,10.245962 1.283716,1.236173 2.852705,4.706964 2.947794,5.848045 0.09509,1.141081 0.02377,2.90025 -0.213954,3.280609 -0.237724,0.38036 -1.602411,0.881701 -2.305935,1.521441 -0.671385,0.610514 -2.138031,2.384025 -2.686296,2.543662 -0.623278,0.181478 -1.212401,-0.07132 -2.686298,-0.499223 -1.473897,-0.427906 -3.042883,-1.355034 -4.564326,-1.045992 -1.576626,0.320251 -6.180858,1.426353 -7.654755,0.522997 C 14.500871,44.121824 13.763922,42.743017 12.860566,42.077387 11.95721,41.411755 8.843008,40.639149 8.843008,40.639149 8.3303115,40.437432 7.6009156,39.552341 7.7970164,37.79833 8.0109692,35.884642 7.5378052,35.354682 7.5378052,35.354682 c 0,0 -0.2756709,-0.43283 -0.073604,-1.550138 C 7.6841958,32.588106 7.3148579,31.216049 7.1313854,30.856749 6.8461151,30.298095 5.7882373,28.966832 5.9784176,27.683116 6.1685978,26.399399 4.8016769,22.780031 6.6915935,24.01026 c 1.6581343,1.093536 3.5777665,1.699736 3.7204015,1.378807 z"
       id="path28"
       sodipodi:nodetypes="cscssssssssscscssscc" /><path
       style="fill:none;fill-opacity:1;stroke:#000000;stroke-width:0.423336;stroke-linecap:square;stroke-linejoin:miter;stroke-miterlimit:8.8;stroke-dasharray:none;stroke-opacity:1"
       d="m 7.1437562,25.702063 c 0,0 2.5382677,2.101215 3.8158068,1.227108 1.277539,-0.874104 1.130139,-1.430308 2.269312,-3.462801 1.228406,-2.191703 5.280777,-5.995088 9.004447,-5.740478 3.933475,0.268956 7.010148,2.253903 8.08597,9.414842 0.672388,3.866238 0.378877,6.102526 2.004231,7.818005 1.56404,1.650766 2.523846,3.881561 1.956395,5.805679 -0.308344,0.671049 -1.787103,1.209454 -2.325015,2.251657 -0.537909,1.042203 -1.598066,2.24264 -4.303288,0.756438 -2.723175,-1.496065 -4.841199,-0.655582 -4.841199,-0.655582 0,0 -3.02575,1.143064 -4.471386,0.840487 -1.445636,-0.302574 -3.006056,-1.117742 -3.880161,-2.428901 -0.874106,-1.311159 -3.351253,-1.489102 -3.351253,-1.489102 0,0 -1.4928309,0.08539 -1.6273086,-1.763682 C 9.3458297,36.426665 9.6127457,35.359 9.1621174,34.555861 8.7194733,33.766952 9.2082066,32.351288 9.0953734,31.579698 8.9231973,30.402318 6.1015535,27.483892 7.1437562,25.702063 Z"
       id="path29"
       sodipodi:nodetypes="cssscscsscsscsssc" /></g></svg>
