<?xml version="1.0" encoding="UTF-8" standalone="no"?>
<svg
   width="150"
   height="200"
   viewBox="0 0 39.687 52.917"
   version="1.1"
   id="svg3"
   sodipodi:docname="Melbor.svg"
   xml:space="preserve"
   inkscape:version="1.3.2 (091e20e, 2023-11-25, custom)"
   xmlns:inkscape="http://www.inkscape.org/namespaces/inkscape"
   xmlns:sodipodi="http://sodipodi.sourceforge.net/DTD/sodipodi-0.dtd"
   xmlns="http://www.w3.org/2000/svg"
   xmlns:svg="http://www.w3.org/2000/svg"><defs
     id="defs3" /><sodipodi:namedview
     id="namedview3"
     pagecolor="#505050"
     bordercolor="#eeeeee"
     borderopacity="1"
     inkscape:showpageshadow="0"
     inkscape:pageopacity="0"
     inkscape:pagecheckerboard="0"
     inkscape:deskcolor="#505050"
     inkscape:zoom="3.935"
     inkscape:cx="49.047014"
     inkscape:cy="103.04955"
     inkscape:window-width="1920"
     inkscape:window-height="1001"
     inkscape:window-x="-9"
     inkscape:window-y="-9"
     inkscape:window-maximized="1"
     inkscape:current-layer="svg3" /><path
     id="path6"
     style="display:inline;fill:#000000;fill-opacity:1;stroke:#000000;stroke-width:0.439556;stroke-linecap:square;stroke-linejoin:miter;stroke-miterlimit:8.8;stroke-dasharray:none;stroke-opacity:1"
     d="m 14.473382,20.540084 -3.262866,2.942 H 6.2612168 C 3.6780621,24.703845 0.45931313,29.451396 0.45931313,29.451396 L 4.1943591,28.927707 C 0.98286978,31.545769 0.49419002,35.420709 0.49419002,35.420709 L 3.2516101,34.827265 c -0.9774101,1.012318 0.072437,5.189145 0.072437,5.189145 0,0 11.6478829,0.127702 31.7545979,0.127702 1.326486,-2.303893 0.636906,-4.75828 0.636906,-4.75828 l 3.595538,0.558566 c -0.314166,-2.583153 -3.525784,-6.597633 -3.525784,-6.597633 0,0 1.989762,0.593138 3.630415,0.942213 -0.349077,-3.281304 -3.734954,-3.909462 -5.061442,-5.096317 0.872691,-0.383982 0.837583,-1.710577 0.837583,-1.710577 h -2.205829 -6.111504 l -5.045343,-2.942 z m -4.265175,7.718523 c 0.132277,-0.0012 0.270523,0.0013 0.414767,0.0075 4.615783,0.197467 6.368518,3.776363 6.368518,3.776363 -1.406947,2.369599 -6.943887,1.530704 -8.170312,0.617051 -1.1619433,-0.865544 -2.713576,-4.362691 1.387027,-4.40089 z m 18.667182,0 c 4.100606,0.0382 2.548971,3.53531 1.387026,4.400926 -1.226426,0.913653 -6.763361,1.752551 -8.170312,-0.617052 0,0 1.752732,-3.578896 6.368518,-3.776363 0.144244,-0.0061 0.28249,-0.0087 0.414768,-0.0075 z" /></svg>
