<?xml version="1.0" encoding="UTF-8" standalone="no"?>
<svg
   width="150"
   height="200"
   viewBox="0 0 39.687 52.917"
   version="1.1"
   id="svg3"
   sodipodi:docname="Nibs.svg"
   xml:space="preserve"
   inkscape:version="1.3.2 (091e20e, 2023-11-25, custom)"
   xmlns:inkscape="http://www.inkscape.org/namespaces/inkscape"
   xmlns:sodipodi="http://sodipodi.sourceforge.net/DTD/sodipodi-0.dtd"
   xmlns="http://www.w3.org/2000/svg"
   xmlns:svg="http://www.w3.org/2000/svg"><defs
     id="defs3" /><sodipodi:namedview
     id="namedview3"
     pagecolor="#505050"
     bordercolor="#eeeeee"
     borderopacity="1"
     inkscape:showpageshadow="0"
     inkscape:pageopacity="0"
     inkscape:pagecheckerboard="0"
     inkscape:deskcolor="#505050"
     inkscape:zoom="5.6568543"
     inkscape:cx="76.013979"
     inkscape:cy="109.15961"
     inkscape:window-width="1920"
     inkscape:window-height="1001"
     inkscape:window-x="-9"
     inkscape:window-y="-9"
     inkscape:window-maximized="1"
     inkscape:current-layer="svg3" /><g
     id="g26"><path
       style="fill:none;fill-opacity:1;stroke:#000000;stroke-width:0.606958;stroke-linecap:round;stroke-linejoin:round;stroke-dasharray:none;stroke-opacity:1"
       d="m 21.803083,25.863184 c 0,0 1.075363,0.02304 1.480022,-0.04134 -0.686267,0.826828 -2.530094,3.001386 -5.109798,1.82729 l 0.231512,0.959121 c 0,0 -2.85335,1.559985 -6.618534,-3.491441 -1.496718,0.491111 -2.8765061,0.537883 -3.3676169,-0.09354 1.0991528,-0.86529 0.8419044,-0.420952 1.0523805,-0.888677 0.210476,-0.467724 1.9878294,-2.362009 2.5724854,-2.221692 -1.23947,-1.075766 -1.333015,-1.145925 -1.333015,-1.660422 0,-0.514497 2.595871,0.304021 2.595871,0.304021"
       id="path9"
       sodipodi:nodetypes="ccccccscsc" /><path
       style="fill:none;fill-opacity:1;stroke:#000000;stroke-width:0.606958;stroke-linecap:round;stroke-linejoin:round;stroke-dasharray:none;stroke-opacity:1"
       d="m 9.5823052,25.615259 c 0,0 -0.9391765,7.913949 1.6143378,12.378653 2.556959,4.470726 7.745829,6.065748 9.47641,5.972201 1.730581,-0.09354 7.988905,-2.877949 8.746449,-6.782005 0.88071,-4.538798 1.21276,-11.588222 0.698264,-11.962402"
       id="path10"
       sodipodi:nodetypes="csssc" /><path
       style="fill:none;fill-opacity:1;stroke-width:0.60695799;stroke:#000000;stroke-opacity:1;stroke-dasharray:none;stroke-linecap:square;stroke-linejoin:round"
       d="m 13.376549,20.486338 c 0,0 2.759575,-4.677246 9.962535,-4.583701 3.040209,-0.420952 3.040209,-1.075767 3.040209,-1.075767 0,0 -0.748359,2.198306 -1.917671,2.759576 -1.169311,0.561269 4.195866,0.306115 3.683232,0.917967 -0.512633,0.611853 -0.537438,0.570512 -0.537438,0.570512 0,0 1.344362,3.212153 3.378965,2.721042 -1.30963,1.075767 -3.484548,1.286243 -3.484548,1.286243 0,0 2.128148,1.23947 3.484548,0.912063 -0.888678,1.356401 -3.297459,5.846557 -8.372271,3.227301"
       id="path8"
       inkscape:label="path8" /><path
       style="fill:none;fill-opacity:1;stroke:#000000;stroke-width:0.606958;stroke-linecap:round;stroke-linejoin:round;stroke-dasharray:none;stroke-opacity:1"
       d="m 11.739513,20.112159 c 0,0 -4.2412823,-3.566876 -7.3432766,-0.187091 -3.1337549,3.41439 0.8419045,9.073858 4.5369289,9.681901"
       id="path11"
       sodipodi:nodetypes="csc" /><path
       style="fill:none;fill-opacity:1;stroke:#000000;stroke-width:0.606958;stroke-linecap:round;stroke-linejoin:round;stroke-dasharray:none;stroke-opacity:1"
       d="m 28.063103,19.691207 c 0,0 4.980611,-4.202407 7.764229,0.327407 3.209506,5.222866 1.028993,7.20296 -5.144973,8.652904"
       id="path12"
       sodipodi:nodetypes="csc" /><path
       style="fill:none;fill-opacity:1;stroke:#000000;stroke-width:0.606958;stroke-linecap:round;stroke-linejoin:round;stroke-dasharray:none;stroke-opacity:1"
       d="m 10.991153,22.474168 c 0,0 -2.9232783,-2.923279 -4.4901557,-1.941057 -1.5668777,0.982222 -0.491111,4.981267 -0.491111,4.981267"
       id="path13" /><path
       style="fill:none;fill-opacity:1;stroke:#000000;stroke-width:0.606958;stroke-linecap:round;stroke-linejoin:round;stroke-dasharray:none;stroke-opacity:1"
       d="m 29.793682,21.608877 c 0,0 2.081376,-2.876506 3.437777,-1.800739 1.356403,1.075766 3.554707,2.385395 1.49672,5.472378"
       id="path14" /><path
       style="fill:none;fill-opacity:1;stroke:#000000;stroke-width:0.606958;stroke-linecap:round;stroke-linejoin:round;stroke-dasharray:none;stroke-opacity:1"
       d="m 10.285367,23.018895 -2.1036692,-0.801779 0.3517671,1.927927 -1.9137421,0.251373 2.6569138,2.359742"
       id="path15"
       sodipodi:nodetypes="ccccc" /><path
       style="fill:none;fill-opacity:1;stroke:#000000;stroke-width:0.606958;stroke-linecap:round;stroke-linejoin:round;stroke-dasharray:none;stroke-opacity:1"
       d="m 30.097703,22.361937 2.864816,-0.19179 -1.227778,1.543491 1.742274,0.491111 -3.068927,3.172157"
       id="path16"
       sodipodi:nodetypes="ccccc" /><path
       style="fill:#000000;fill-opacity:1;stroke:#000000;stroke-width:0.626643;stroke-linecap:round;stroke-linejoin:round;stroke-dasharray:none;stroke-opacity:1"
       d="m 10.25857,29.577144 h 19.127075 c 0,0 0.888154,6.00499 -3.50214,6.013519 -4.581282,0.0089 -4.400126,-4.728114 -4.400126,-4.728114 l -3.172879,0.03893 c 0,0 -0.129556,4.631032 -3.944138,4.689172 -5.0092698,0.07635 -4.107792,-6.013516 -4.107792,-6.013516 z"
       id="path26"
       sodipodi:nodetypes="ccsccsc" /></g></svg>
