<?xml version="1.0" encoding="UTF-8" standalone="no"?>
<svg
   width="150"
   height="200"
   viewBox="0 0 39.687 52.917"
   version="1.1"
   id="svg3"
   sodipodi:docname="Percy.svg"
   xml:space="preserve"
   inkscape:version="1.3.2 (091e20e, 2023-11-25, custom)"
   xmlns:inkscape="http://www.inkscape.org/namespaces/inkscape"
   xmlns:sodipodi="http://sodipodi.sourceforge.net/DTD/sodipodi-0.dtd"
   xmlns="http://www.w3.org/2000/svg"
   xmlns:svg="http://www.w3.org/2000/svg"><defs
     id="defs3" /><sodipodi:namedview
     id="namedview3"
     pagecolor="#505050"
     bordercolor="#eeeeee"
     borderopacity="1"
     inkscape:showpageshadow="0"
     inkscape:pageopacity="0"
     inkscape:pagecheckerboard="0"
     inkscape:deskcolor="#505050"
     inkscape:zoom="2.8284271"
     inkscape:cx="-3.5355339"
     inkscape:cy="118.26361"
     inkscape:window-width="1920"
     inkscape:window-height="1001"
     inkscape:window-x="-9"
     inkscape:window-y="-9"
     inkscape:window-maximized="1"
     inkscape:current-layer="svg3" /><path
     style="fill:#000000;stroke-width:1.19823"
     d="M 10.10117,42.280556 C 9.4273797,41.253284 9.3398271,38.732345 9.7873402,33.244325 10.026347,30.313292 10.010856,30.203209 9.2098496,29.140546 8.2556142,27.874601 8.1157536,27.272627 8.8735504,25.062504 c 0.4610792,-1.344742 0.6829644,-2.515427 2.6947906,-4.424965 2.229357,-2.11601 3.697013,-2.663677 5.84989,-3.536528 2.972238,-1.205051 3.548889,-1.406924 4.551058,-1.014462 1.878216,0.735532 3.936551,1.959268 6.810569,4.926829 2.493451,2.574605 3.7015,4.381536 3.7015,5.536487 0,0.342422 -0.434948,0.954432 -0.96655,1.360025 -0.531603,0.405592 -1.708592,1.380454 -2.615532,2.166358 -4.676794,4.052658 -13.505025,9.50876 -15.385621,9.50876 -0.325777,0 -0.71465,0.37561 -0.925561,0.838508 -0.208886,0.458455 -1.80199,2.848968 -1.882235,2.768723 -0.192553,-0.192554 3.866634,-7.355926 4.613369,-8.188984 1.173925,-1.309632 1.125142,-1.441896 -0.531823,-1.441896 h -1.562633 l -0.389703,1.981463 c -0.214336,1.089805 -0.491484,2.231097 -0.579636,2.582609 -0.130649,0.520971 -0.164397,0.868083 -0.509168,2.094015 -0.22858,0.812782 -0.43154,1.556054 -0.619345,1.996322 l -0.420963,0.986856 z m 11.433091,-7.742077 c 2.931971,-1.775352 8.43717,-6.085343 8.43717,-6.085343 L 29.12934,27.440614 c -0.90854,-1.092423 -3.177309,-2.756211 -3.758415,-2.756211 -0.728668,0 -1.722692,0.980923 -2.929504,3.670551 -1.206814,2.689628 -1.599075,3.10917 -3.094722,3.953261 -1.787912,1.009034 -3.93521,3.267256 -5.185957,5.453846 -0.379558,0.663553 -0.525992,1.188878 -0.3314,1.188878 0.191756,0 1.249995,-0.772497 7.704919,-4.41246 z m -2.66341,-3.751169 c 1.795504,-0.880066 2.512264,-1.41534 2.759421,-2.060721 0.333338,-0.870423 0.331585,-0.871845 -1.075415,-0.871845 -1.804051,0 -3.333209,0.642755 -4.01892,1.689281 -0.536729,0.819152 -0.745962,2.432163 -0.315488,2.432163 0.123675,0 1.316357,-0.534994 2.650402,-1.188878 z m 7.269824,-10.866909 c -1.9633,-1.763467 -4.275935,-3.115692 -4.659347,-2.724377 -0.313259,0.319716 2.092033,2.209945 3.437703,3.231923 1.345671,1.021978 1.888677,1.079938 2.270717,1.072389 0.579012,-0.01138 0.40442,-0.274384 -1.049073,-1.579935 z"
     id="path7"
     sodipodi:nodetypes="sssssssssssssssscsssscsccsscssscssssssssccs" /></svg>
