<?xml version="1.0" encoding="UTF-8" standalone="no"?>
<svg
   width="150"
   height="200"
   viewBox="0 0 39.687 52.917"
   version="1.1"
   id="svg3"
   sodipodi:docname="Pouse.svg"
   xml:space="preserve"
   inkscape:version="1.3.2 (091e20e, 2023-11-25, custom)"
   xmlns:inkscape="http://www.inkscape.org/namespaces/inkscape"
   xmlns:sodipodi="http://sodipodi.sourceforge.net/DTD/sodipodi-0.dtd"
   xmlns="http://www.w3.org/2000/svg"
   xmlns:svg="http://www.w3.org/2000/svg"><defs
     id="defs3" /><sodipodi:namedview
     id="namedview3"
     pagecolor="#505050"
     bordercolor="#eeeeee"
     borderopacity="1"
     inkscape:showpageshadow="0"
     inkscape:pageopacity="0"
     inkscape:pagecheckerboard="0"
     inkscape:deskcolor="#505050"
     inkscape:zoom="4"
     inkscape:cx="49.5"
     inkscape:cy="104.125"
     inkscape:window-width="1920"
     inkscape:window-height="1001"
     inkscape:window-x="-9"
     inkscape:window-y="-9"
     inkscape:window-maximized="1"
     inkscape:current-layer="svg3"
     showguides="false" /><g
     id="g32"><path
       style="display:inline;fill:none;fill-opacity:1;stroke:#000000;stroke-width:0.606958;stroke-linecap:round;stroke-linejoin:round;stroke-dasharray:none;stroke-opacity:1"
       d="m 21.96018,18.653242 c 0,0 -7.427754,-4.765854 -13.579355,1.981064 -6.1516012,6.746917 1.937615,18.524274 1.937615,18.524274 0,0 6.288428,7.979793 13.32847,7.474526 6.912283,-0.496097 9.326621,-2.844289 9.458913,-10.914131 C 29.137048,31.12181 23.481544,27.781425 21.96018,18.653242 Z"
       id="path27"
       sodipodi:nodetypes="cscscc" /><path
       style="display:inline;fill:none;stroke:#000000;stroke-width:0.264585;stroke-linecap:round;stroke-linejoin:round;stroke-dasharray:none"
       d="m 11.069966,13.343364 c 0,0 2.274971,0.686368 1.78386,1.66859 -0.491111,0.982222 -4.4137779,1.701176 -4.4137779,1.701176"
       id="path1"
       sodipodi:nodetypes="csc" /><path
       style="display:inline;fill:none;stroke:#000000;stroke-width:0.264585;stroke-linecap:round;stroke-linejoin:round;stroke-dasharray:none"
       d="m 15.621627,12.780575 c 0,0 -0.736666,1.543491 0.666508,1.812433 1.403174,0.268942 1.847512,0.07016 1.847512,0.07016"
       id="path2" /><path
       id="path20"
       style="display:inline;fill:none;fill-opacity:1;stroke:#000000;stroke-width:0.264585;stroke-linecap:round;stroke-linejoin:round;stroke-dasharray:none;stroke-opacity:1"
       d="m 15.749667,16.264743 c 0.875517,-0.04907 1.821885,-0.0037 2.842222,0.175701 0.01157,0.0042 0.02396,0.0087 0.03566,0.01292 -0.07163,-2.171405 -1.714484,-3.888852 -4.356351,-3.919682 -0.257109,-0.003 -0.523974,0.01019 -0.799439,0.04031 0.01284,0.03125 0.0217,0.05478 0.0217,0.05478 z" /><path
       id="path25"
       style="display:inline;fill:none;fill-opacity:1;stroke:#000000;stroke-width:0.264585;stroke-linecap:round;stroke-linejoin:round;stroke-dasharray:none;stroke-opacity:1"
       d="M 12.783938,12.683027 C 12.543331,12.731718 12.2975,12.791252 12.045477,12.865446 8.1052632,14.025417 8.0374596,17.889171 8.2281151,19.666624 9.0327879,18.934041 11.104482,17.00193 14.43036,16.416672 Z" /><path
       style="display:inline;fill:none;stroke:#000000;stroke-width:0.264585;stroke-linecap:round;stroke-linejoin:round;stroke-dasharray:none"
       d="M 15.750252,16.265124 14.440623,16.44052 12.7802,12.675337 c 0,0 -0.08185,-0.456031 0.222169,-0.52619 0.304021,-0.07016 0.491111,0.479418 0.491111,0.479418 z"
       id="path23"
       transform="translate(-0.01653656,-0.03307313)" /><path
       style="display:inline;fill:none;fill-opacity:1;stroke:#000000;stroke-width:0.264585;stroke-linecap:round;stroke-linejoin:round;stroke-dasharray:none;stroke-opacity:1"
       d="m 8.3416599,20.76061 c 0,0 -1.2053415,-0.113921 -0.2338625,-0.985545 0.9773823,-0.876921 4.4970056,-4.386925 10.4838816,-3.334545 0.771745,0.280635 1.847512,0.631429 0.04677,0.701587"
       id="path17"
       sodipodi:nodetypes="cscc" /><path
       style="fill:none;stroke:#000000;stroke-width:0.264585;stroke-linecap:round;stroke-linejoin:round;stroke-dasharray:none"
       d="m 22.042863,18.686316 c 0,0 -7.192981,-1.871616 -8.783245,4.466053 -1.590264,6.337669 5.729626,14.850257 5.729626,14.850257 0,0 7.694072,9.027084 13.447084,3.274072"
       id="path29"
       sodipodi:nodetypes="cscc" /><path
       style="fill:none;stroke:#000000;stroke-width:0.264585;stroke-linecap:round;stroke-linejoin:round;stroke-dasharray:none"
       d="m 22.373594,20.191143 c 0,0 -6.92882,-2.596241 -7.98716,3.423068 -1.05834,6.019309 4.672024,12.625221 4.672024,12.625221 0,0 12.29449,13.502548 14.014292,-0.388165"
       id="path30"
       sodipodi:nodetypes="cscc" /><path
       style="fill:#000000;fill-opacity:1;stroke:#000000;stroke-width:0.264585;stroke-linecap:round;stroke-linejoin:round;stroke-dasharray:none"
       d="m 15.443393,24.435774 c -0.224461,-0.134259 -0.351767,-0.482957 -0.277797,-0.733829 0.328726,-1.11488 1.722314,-1.650289 2.806347,-2.069681 1.0269,-0.397288 2.404828,-0.999638 3.285766,-0.339101 0.415316,0.311408 0.448831,1.040705 0.280635,1.531798 -0.181628,0.530313 -0.820232,0.76537 -1.253514,1.12102 -0.124044,0.101818 -0.381284,0.307761 -0.182569,0.529754 0.479838,0.486579 1.037062,-0.925241 1.620335,-0.784308 0.66823,0.161461 1.293819,0.961561 1.241275,1.647009 -0.02662,0.347257 -0.922215,0.283036 -0.748675,0.728799 0.210747,0.462299 0.638297,-0.200184 0.854946,-0.01497 0.257258,0.219925 0.269756,0.692888 0.140317,1.005609 -0.237316,0.573345 -1.220467,0.915164 -1.040825,1.392567 0.331654,0.389706 0.886221,-0.704316 1.379924,-0.609128 0.481742,0.09288 1.026913,0.561767 1.028994,1.052378 0.0042,0.978595 -1.820257,1.205969 -1.297674,1.792031 0.423365,0.420696 1.323565,-1.123151 2.092806,-1.020284 0.497715,0.06656 0.996195,0.509605 1.133057,0.992739 0.138942,0.490475 -0.768454,1.084501 -0.4508,1.461375 0.334192,0.335534 0.946877,-1.080919 2.407731,0.218698 1.460855,1.299617 0.397497,1.848651 0.909056,2.273375 0.347268,0.288321 0.523137,-0.282271 0.795133,-0.233862 0.296252,0.05273 0.586743,0.270605 0.724974,0.537883 0.404759,0.782626 0.393444,1.827711 0.05846,2.642646 -0.626694,1.524596 -1.914684,3.272061 -3.554707,3.437774 -1.089769,0.110113 -2.579568,-0.687248 -2.771269,-1.76566 -0.217074,-1.221148 1.959301,-2.059837 1.280019,-2.648086 -0.786769,-0.6792 -1.42729,2.824977 -2.63642,2.086816 -0.748598,-0.457011 0.511529,-1.200025 0.116931,-1.520104 -0.314152,-0.254825 -0.98169,0.468074 -1.438253,0.292327 -0.447429,-0.172231 -0.888544,-0.67946 -0.853598,-1.157618 0.09764,-1.33591 2.490526,-1.827948 1.87832,-2.542824 -0.620473,-0.615657 -1.416947,1.549386 -2.720224,1.47875 -0.569735,-0.03088 -1.289497,-0.625473 -1.227777,-1.192696 0.100156,-0.920459 1.820856,-0.647218 1.576971,-1.28305 -0.378356,-0.577366 -1.169081,0.536099 -1.927764,0.487917 -0.544373,-0.03457 -1.271231,-0.495281 -1.262857,-1.040687 0.01378,-0.897756 2.32569,-0.739084 2.00857,-1.355527 -0.274096,-0.412695 -1.427641,0.462638 -2.020263,0.139442 -0.617207,-0.336602 -1.142514,-1.155727 -1.017302,-1.847512 0.100642,-0.556033 1.460913,-0.546107 1.286298,-1.104151 -0.200923,-0.39434 -0.651051,0.09704 -1.064128,-0.04177 -0.846818,-0.284569 -1.427684,-1.542657 -1.186852,-2.402936 0.259578,-0.927238 2.107748,-0.644863 1.889746,-1.388056 -0.218001,-0.743194 -1.325711,0.566719 -1.863343,0.24514 z"
       id="path32"
       sodipodi:nodetypes="aaaaascaacaacaacaaccsaaaaacssaacaacascaacaaca" /></g></svg>
