<?xml version="1.0" encoding="UTF-8" standalone="no"?>
<svg
   viewBox="0 0 348 348"
   fill="none"
   version="1.1"
   id="svg12"
   sodipodi:docname="The Cruel Modkit.svg"
   inkscape:version="1.3.2 (091e20e, 2023-11-25, custom)"
   inkscape:export-filename="..\..\..\The Cruel Modkit.png"
   inkscape:export-xdpi="96"
   inkscape:export-ydpi="96"
   xml:space="preserve"
   xmlns:inkscape="http://www.inkscape.org/namespaces/inkscape"
   xmlns:sodipodi="http://sodipodi.sourceforge.net/DTD/sodipodi-0.dtd"
   xmlns="http://www.w3.org/2000/svg"
   xmlns:svg="http://www.w3.org/2000/svg"><defs
     id="defs12"><rect
       x="285.43074"
       y="159.62896"
       width="44.881828"
       height="13.928843"
       id="rect2" /><inkscape:path-effect
       effect="spiro"
       id="path-effect50"
       is_visible="true"
       lpeversion="1" /><inkscape:path-effect
       effect="spiro"
       id="path-effect47"
       is_visible="true"
       lpeversion="1" /><inkscape:path-effect
       effect="spiro"
       id="path-effect45"
       is_visible="true"
       lpeversion="1" /><inkscape:path-effect
       effect="spiro"
       id="path-effect43"
       is_visible="true"
       lpeversion="1" /><inkscape:path-effect
       effect="spiro"
       id="path-effect41"
       is_visible="true"
       lpeversion="1" /><inkscape:path-effect
       effect="spiro"
       id="path-effect40"
       is_visible="true"
       lpeversion="1" /><inkscape:path-effect
       effect="spiro"
       id="path-effect38"
       is_visible="true"
       lpeversion="1" /><inkscape:path-effect
       effect="spiro"
       id="path-effect36"
       is_visible="true"
       lpeversion="1" /><inkscape:path-effect
       effect="spiro"
       id="path-effect22"
       is_visible="true"
       lpeversion="1" /><inkscape:path-effect
       effect="spiro"
       id="path-effect18"
       is_visible="true"
       lpeversion="1" /><inkscape:path-effect
       effect="spiro"
       id="path-effect17"
       is_visible="true"
       lpeversion="1" /><inkscape:path-effect
       effect="spiro"
       id="path-effect16"
       is_visible="true"
       lpeversion="1" /><inkscape:path-effect
       effect="spiro"
       id="path-effect15"
       is_visible="true"
       lpeversion="1" /><inkscape:path-effect
       effect="spiro"
       id="path-effect14"
       is_visible="true"
       lpeversion="1" /><inkscape:path-effect
       effect="spiro"
       id="path-effect13"
       is_visible="true"
       lpeversion="1" /><inkscape:path-effect
       effect="spiro"
       id="path-effect11"
       is_visible="true"
       lpeversion="1" /><inkscape:path-effect
       effect="spiro"
       id="path-effect3"
       is_visible="true"
       lpeversion="1" /><inkscape:path-effect
       effect="spiro"
       id="path-effect46"
       is_visible="true"
       lpeversion="1" /><inkscape:path-effect
       effect="spiro"
       id="path-effect46-2"
       is_visible="true"
       lpeversion="1" /><inkscape:path-effect
       effect="spiro"
       id="path-effect46-2-7"
       is_visible="true"
       lpeversion="1" /><inkscape:path-effect
       effect="spiro"
       id="path-effect46-2-6"
       is_visible="true"
       lpeversion="1" /><inkscape:path-effect
       effect="spiro"
       id="path-effect46-2-6-6"
       is_visible="true"
       lpeversion="1" /><inkscape:path-effect
       effect="spiro"
       id="path-effect18-3"
       is_visible="true"
       lpeversion="1" /></defs><sodipodi:namedview
     id="namedview12"
     pagecolor="#505050"
     bordercolor="#eeeeee"
     borderopacity="1"
     inkscape:showpageshadow="0"
     inkscape:pageopacity="0"
     inkscape:pagecheckerboard="0"
     inkscape:deskcolor="#505050"
     inkscape:zoom="1.1307472"
     inkscape:cx="-76.055905"
     inkscape:cy="-20.782718"
     inkscape:window-width="1920"
     inkscape:window-height="1001"
     inkscape:window-x="-9"
     inkscape:window-y="-9"
     inkscape:window-maximized="1"
     inkscape:current-layer="g62"
     showgrid="false" /><g
     id="g57"
     inkscape:label="BG"
     style="display:inline"><rect
       style="fill:none;fill-opacity:1;stroke:#000000;stroke-width:2.02813;stroke-linecap:butt;stroke-dasharray:none;stroke-opacity:1"
       id="rect34"
       width="336.9902"
       height="335.11417"
       x="5.9429145"
       y="7.0696383" /><path
       d="m 282.734,40.554 c 0,-8.376 6.966,-15.165 15.56,-15.165 4.126,0 8.084,1.597 11.001,4.441 2.918,2.844 4.558,6.702 4.558,10.724 0,8.376 -6.966,15.165 -15.56,15.165 -8.593,0 -15.559,-6.79 -15.559,-15.165 z"
       stroke-width="2"
       stroke="#000000"
       id="path2"
       sodipodi:nodetypes="sscsss" /></g><g
     id="g65"
     inkscape:label="Alphabet"
     style="display:inline"
     transform="matrix(0.97860727,0,0,0.95846682,9.1446748,13.944968)"><path
       d="m 172.70304,290.53703 h 162.63245 v 44.48922 H 172.70304 Z"
       style="display:inline;stroke:#000000;stroke-width:1.99206;stroke-dasharray:none"
       id="path1-09-4"
       inkscape:label="path19" /></g><g
     id="g52"
     inkscape:label="Piano"
     transform="matrix(0.97860727,0,0,0.95846682,5.7997951,13.944968)"><path
       d="m 172.71032,204.22241 h 162.51727 v 82.27013 H 172.71032 Z"
       stroke="#000000"
       stroke-width="1.53857"
       id="path5-9-6-5-8-4"
       style="stroke-width:2.00665;stroke-dasharray:none"
       transform="translate(3.418)" /></g><g
     id="g60"
     inkscape:label="Identity"
     transform="matrix(0.97860727,0,0,0.95846682,9.1446748,13.944968)"><path
       d="m 276.52568,95.188089 h 58.88755 V 200.29584 h -58.88755 z"
       stroke="#000000"
       stroke-width="1.04917"
       id="path5-9-6-5"
       style="stroke-width:2.00218;stroke-linecap:round;stroke-dasharray:none" /><g
       stroke="#000000"
       id="g3"
       transform="matrix(1.2740296,0,0,1.3008011,278.49184,84.262733)"><path
         d="m 33.829,29.246 c 0,8.533 -6.177,17.566 -13.796,17.566 -7.62,0 -13.796,-9.033 -13.796,-17.566 0,-8.533 6.176,-13.333 13.796,-13.333 7.62,0 13.796,4.8 13.796,13.333 z"
         fill="none"
         stroke-width="0.452"
         id="path1" /><path
         d="m 12.379,18.048 c 9.716,-10.48 19.502,4.565 24.946,8.883 -11.869,2.845 -20.589,-1.592 -24.946,-8.883 z m 0,0 c -6.412,1.617 -7.937,7.064 -5.953,12.285 4.515,-4.042 5.9,-6.955 5.953,-12.285 z M 8.504,28.632 10.205,37.325 8.599,38.27 6.426,30.333"
         stroke-width="0.752"
         id="path2-6"
         style="fill:#000000;fill-opacity:1" /><path
         d="m 33.55,26.128 -1.794,1.984 -1.607,8.656 1.607,0.945 c 0.929,-2.584 1.441,-5.784 1.973,-8.467"
         stroke-width="0.752"
         id="path3-3"
         style="fill:#000000;fill-opacity:1;stroke-width:0.752341;stroke-dasharray:none" /></g><text
       xml:space="preserve"
       transform="matrix(1.0218604,0,0,1.0433329,-9.3445809,-14.549244)"
       id="text2"
       style="font-style:normal;font-variant:normal;font-weight:normal;font-stretch:normal;font-size:13.3333px;font-family:'Ostrich Sans';-inkscape-font-specification:'Ostrich Sans';white-space:pre;shape-inside:url(#rect2);display:inline;fill:#000000;fill-opacity:1;stroke-width:0.938;stroke-dasharray:none" /><text
       xml:space="preserve"
       style="font-style:normal;font-variant:normal;font-weight:normal;font-stretch:normal;font-size:13.7672px;font-family:'Ostrich Sans';-inkscape-font-specification:'Ostrich Sans';fill:#000000;fill-opacity:1;stroke-width:0.968523;stroke-dasharray:none"
       x="293.77191"
       y="163.67009"
       id="text3"
       transform="scale(0.98965612,1.010452)"><tspan
         sodipodi:role="line"
         id="tspan3"
         style="stroke-width:0.968523"
         x="293.77191"
         y="163.67009">( Item )</tspan></text><text
       xml:space="preserve"
       style="font-style:normal;font-variant:normal;font-weight:normal;font-stretch:normal;font-size:13.7672px;font-family:'Ostrich Sans';-inkscape-font-specification:'Ostrich Sans';fill:#000000;fill-opacity:1;stroke-width:0.968523;stroke-dasharray:none"
       x="283.64136"
       y="181.85895"
       id="text4"
       transform="scale(0.98965612,1.010452)"><tspan
         sodipodi:role="line"
         id="tspan4"
         style="stroke-width:0.968523"
         x="283.64136"
         y="181.85895">( Location )</tspan></text><text
       xml:space="preserve"
       style="font-style:normal;font-variant:normal;font-weight:normal;font-stretch:normal;font-size:13.7672px;font-family:'Ostrich Sans';-inkscape-font-specification:'Ostrich Sans';fill:#000000;fill-opacity:1;stroke-width:0.968523;stroke-dasharray:none"
       x="327.38712"
       y="195.59187"
       id="text5"
       transform="scale(0.98965612,1.010452)"><tspan
         sodipodi:role="line"
         id="tspan5"
         style="stroke-width:0.968523"
         x="327.38712"
         y="195.59187">●</tspan></text></g><g
     id="g49"
     inkscape:label="Arrows"
     transform="matrix(1.0352153,0,0,1.0139098,-3.0360634,6.5775831)"><path
       d="m 172.71072,117.60436 h 98.52688 v 82.78977 h -98.52688 z"
       stroke="#000000"
       stroke-width="1.20128"
       id="path5-9-6-5-8"
       style="stroke-width:2.00743;stroke-dasharray:none"
       transform="matrix(0.94531763,0,0,0.94531763,11.766382,7.2663115)" /></g><g
     id="g41"
     inkscape:label="Bulbs"
     transform="matrix(0.97860727,0,0,0.95846682,9.1446748,13.944968)"><path
       d="m 222.43721,95.251256 h 48.73045 v 18.311534 h -48.73045 z"
       stroke="#000000"
       stroke-width="0.374873"
       id="path5-9-6"
       style="stroke-width:2.12764;stroke-dasharray:none" /></g><g
     id="g19"
     inkscape:label="Morse LED"
     transform="matrix(0.97860727,0,0,0.95846682,9.1446748,13.944968)"><path
       d="m 172.72258,95.202574 h 44.13773 v 18.408896 h -44.13773 z"
       stroke="#000000"
       stroke-width="0.374873"
       id="path5-9"
       style="stroke-width:2.03027;stroke-dasharray:none" /><path
       d="m 184.00109,97.956707 h 3.14101 v 13.009313 h -3.14101 z"
       fill="#000000"
       fill-rule="evenodd"
       id="path20"
       style="display:inline;fill:#000000;fill-opacity:1;stroke-width:0.24383;stroke-linecap:square;stroke-miterlimit:10"
       transform="matrix(0.96101096,0,0,1.0001444,6.7145998,-0.02859045)" /><path
       d="m 184.00109,97.956707 h 3.14101 v 13.009313 h -3.14101 z"
       stroke="#000000"
       stroke-width="0.48766"
       stroke-linecap="butt"
       stroke-linejoin="round"
       id="path21"
       style="display:inline;fill:#000000;fill-opacity:1;stroke-linecap:square;stroke-miterlimit:10"
       transform="matrix(0.96101096,0,0,1.0001444,6.7145998,-0.02859045)" /><path
       d="m 205.10872,97.956707 h 3.14103 v 13.009313 h -3.14103 z"
       fill="#000000"
       fill-rule="evenodd"
       id="path22"
       style="display:inline;fill:#000000;fill-opacity:1;stroke-width:0.24383;stroke-linecap:square;stroke-miterlimit:10"
       transform="matrix(0.96101096,0,0,1.0001444,6.7145998,-0.02859045)" /><path
       d="m 205.10872,97.956707 h 3.14103 v 13.009313 h -3.14103 z"
       stroke="#000000"
       stroke-width="0.48766"
       stroke-linecap="butt"
       stroke-linejoin="round"
       id="path23"
       style="display:inline;fill:#000000;fill-opacity:1;stroke-linecap:square;stroke-miterlimit:10"
       transform="matrix(0.96101096,0,0,1.0001444,6.7145998,-0.02859045)" /><path
       d="m 186.59617,99.750321 h 18.51572 v 9.822449 h -18.51572 z"
       id="path48"
       style="display:inline;fill:none;stroke-width:0.24383;stroke-linecap:square;stroke-miterlimit:10"
       transform="matrix(0.96101096,0,0,1.0001444,6.7145998,-0.02859045)" /><path
       d="m 186.59617,99.750321 h 18.51572 v 9.822449 h -18.51572 z"
       stroke="#000000"
       stroke-width="0.48766"
       stroke-linecap="butt"
       stroke-linejoin="round"
       id="path49"
       style="display:inline;fill:none;stroke-linecap:square;stroke-miterlimit:10"
       transform="matrix(0.96101096,0,0,1.0001444,6.7145998,-0.02859045)" /><path
       d="m 208.24975,100.76344 h 1.98134 c 1.09432,0 1.98138,1.6556 1.98138,3.69792 0,2.04208 -0.88706,3.69769 -1.98138,3.69769 h -1.98134 z"
       fill="#000000"
       fill-rule="evenodd"
       id="path50"
       style="display:inline;fill:none;stroke-width:0.24383;stroke-linecap:square;stroke-miterlimit:10"
       inkscape:label="path50"
       transform="matrix(0.96101096,0,0,1.0001444,6.7145998,-0.02859045)" /><path
       d="m 208.24975,100.76344 h 1.98134 v 0 c 1.09432,0 1.98138,1.6556 1.98138,3.69792 0,2.04208 -0.88706,3.69769 -1.98138,3.69769 h -1.98134 z"
       stroke="#000000"
       stroke-width="0.48766"
       stroke-linecap="butt"
       stroke-linejoin="round"
       id="path51"
       style="display:inline;fill:#000000;fill-opacity:1;stroke-linecap:square;stroke-miterlimit:10"
       inkscape:label="path51"
       transform="matrix(0.96101096,0,0,1.0001444,6.7145998,-0.02859045)" /><path
       d="m 183.80845,108.15905 h -1.98135 c -1.09431,0 -1.98137,-1.65561 -1.98137,-3.69769 0,-2.04232 0.88706,-3.69792 1.98137,-3.69792 h 1.98135 z"
       fill="#000000"
       fill-rule="evenodd"
       id="path52"
       style="display:inline;fill:#000000;fill-opacity:1;stroke-width:0.24383;stroke-linecap:square;stroke-miterlimit:10"
       transform="matrix(0.96101096,0,0,1.0001444,6.7145998,-0.02859045)" /><path
       d="m 183.80845,108.15905 h -1.98135 v 0 c -1.09431,0 -1.98137,-1.65561 -1.98137,-3.69769 0,-2.04232 0.88706,-3.69792 1.98137,-3.69792 h 1.98135 z"
       stroke="#000000"
       stroke-width="0.48766"
       stroke-linecap="butt"
       stroke-linejoin="round"
       id="path53"
       style="display:inline;fill:#000000;fill-opacity:1;stroke-linecap:square;stroke-miterlimit:10"
       transform="matrix(0.96101096,0,0,1.0001444,6.7145998,-0.02859045)" /></g><g
     id="g58"
     inkscape:label="Top Widget"
     transform="matrix(0.94045231,0,0,0.95860521,15.715631,13.917565)"><path
       d="M 172.72685,61.026363 H 342.25389 V 91.140379 H 172.72685 Z"
       stroke="#000000"
       stroke-width="0.935167"
       id="path5"
       style="stroke-width:2.04002;stroke-dasharray:none" /><path
       fill="#000000"
       d="m 321.50634,66.70964 h 15.40579 v 19.359314 h -15.40579 z"
       id="path6-1"
       style="stroke-width:0.265597"
       inkscape:label="path6-1" /><path
       fill="#ffffff"
       d="m 326.28214,76.537396 c 0,-1.114648 0.11394,-2.01103 0.34181,-2.689154 0.23336,-0.683613 0.57517,-1.209366 1.02542,-1.577253 0.453,-0.367887 1.02268,-0.551832 1.70903,-0.551832 0.50791,0 0.95267,0.102954 1.33428,0.308861 0.38162,0.200418 0.69735,0.494179 0.94718,0.881285 0.24709,0.381617 0.44202,0.84834 0.58478,1.400172 0.14002,0.549086 0.21003,1.291729 0.21003,2.227921 0,1.106412 -0.11394,2.000051 -0.34181,2.680918 -0.22513,0.678125 -0.56556,1.203873 -1.02131,1.577253 -0.45025,0.370634 -1.0213,0.555951 -1.71315,0.555951 -0.90599,0 -1.6198,-0.326706 -2.14144,-0.980121 -0.62046,-0.785195 -0.9307,-2.063195 -0.9307,-3.834001 z m 1.19427,0 c 0,1.548426 0.17845,2.579335 0.53536,3.092734 0.36789,0.513398 0.81677,0.770095 1.34663,0.770095 0.53262,0 0.97875,-0.258073 1.3384,-0.774213 0.36515,-0.516142 0.54772,-1.54568 0.54772,-3.088616 0,-1.553915 -0.18257,-2.5862 -0.54772,-3.096851 -0.3569,-0.510651 -0.80716,-0.765977 -1.35075,-0.765977 -0.52987,0 -0.95404,0.226499 -1.27251,0.679496 -0.39809,0.573794 -0.59713,1.634906 -0.59713,3.183332 z"
       id="path7-5"
       sodipodi:nodetypes="cccscccsccscccscscscscs"
       style="stroke-width:0.411815" /><path
       fill="#000000"
       d="m 233.65876,67.02409 h 82.88926 v 18.730101 h -82.8896 z"
       id="path8-4"
       style="stroke-width:0.31445" /><path
       stroke="#000000"
       stroke-width="0.628898"
       stroke-linejoin="round"
       stroke-linecap="butt"
       d="m 233.65876,67.02409 h 82.88926 v 18.730101 h -82.8896 z"
       id="path9-9" /><path
       fill="#ffffff"
       d="m 247.21953,81.593324 v -9.743449 h 2.06516 v 0.775063 h -1.12863 v 8.193322 h 1.12863 v 0.775064 z m 6.01865,-2.117417 v -7.626032 h 2.6268 q 0.8899,0 1.358,0.109265 0.65553,0.150832 1.11864,0.546003 0.60326,0.510045 0.89957,1.306075 0.30195,0.790696 0.30195,1.810114 0,0.868939 -0.20308,1.539794 -0.20308,0.671177 -0.52003,1.11331 -0.31727,0.436801 -0.69715,0.691823 -0.37455,0.24969 -0.91021,0.379523 -0.5307,0.130202 -1.22251,0.130202 z m 1.0091,-0.8999 h 1.62834 q 0.75441,0 1.18089,-0.140439 0.43181,-0.14044 0.6865,-0.395187 0.35923,-0.358894 0.55665,-0.962158 0.2031,-0.608919 0.2031,-1.47254 0,-1.196198 -0.39553,-1.836078 -0.39019,-0.645212 -0.95216,-0.863619 -0.4055,-0.156135 -1.30542,-0.156135 h -1.60237 z m 6.8563,0.8999 v -7.626032 h 1.00911 v 7.626032 h -1.00878 z m 2.44502,-2.450345 0.95216,-0.08329 q 0.0672,0.572625 0.31197,0.941849 0.24968,0.364211 0.7697,0.592935 0.52038,0.223724 1.17057,0.223724 0.5773,0 1.01943,-0.171447 0.44246,-0.171798 0.65587,-0.468432 0.21806,-0.301633 0.21806,-0.655208 0,-0.359214 -0.20808,-0.624231 -0.20807,-0.270671 -0.68649,-0.452784 -0.30697,-0.119809 -1.35767,-0.369544 -1.05072,-0.254687 -1.47221,-0.478413 -0.54599,-0.28632 -0.81666,-0.707471 -0.26536,-0.426485 -0.26536,-0.952178 0,-0.57695 0.32761,-1.076343 0.32793,-0.504728 0.95717,-0.764733 0.62922,-0.260356 1.39929,-0.260356 0.84796,0 1.49317,0.276004 0.65022,0.270337 0.99879,0.801011 0.34857,0.530692 0.37454,1.201869 l -0.96749,0.07259 q -0.0782,-0.723119 -0.53068,-1.092343 -0.44747,-0.369545 -1.32671,-0.369545 -0.91556,0 -1.33671,0.338248 -0.41614,0.33293 -0.41614,0.80636 0,0.41082 0.29628,0.676173 0.29132,0.265338 1.51915,0.545989 1.23284,0.276004 1.6906,0.484081 0.66586,0.306965 0.98314,0.780381 0.31728,0.468097 0.31728,1.082012 0,0.608583 -0.34857,1.14959 -0.34825,0.535689 -1.00378,0.837321 -0.6502,0.296297 -1.46689,0.296297 -1.03539,0 -1.73787,-0.301295 -0.69682,-0.301968 -1.09733,-0.905554 -0.3955,-0.608261 -0.41614,-1.372994 z m 7.44923,2.450345 v -7.626032 h 2.87648 q 0.75975,0 1.16026,0.0729 0.56164,0.09352 0.94151,0.358893 0.37953,0.260005 0.6086,0.733435 0.23404,0.473415 0.23404,1.0404 0,0.972809 -0.61924,1.648984 -0.61858,0.671177 -2.23662,0.671177 h -1.95593 v 3.100218 z m 1.0091,-4.000119 h 1.97158 q 0.97814,0 1.38899,-0.364227 0.41084,-0.36421 0.41084,-1.02475 0,-0.47875 -0.24438,-0.816661 -0.23938,-0.343581 -0.63456,-0.452784 -0.25502,-0.06754 -0.94152,-0.06754 h -1.95095 z m 6.05526,4.000119 v -7.626032 h 1.00877 v 6.726132 h 3.75609 v 0.8999 z m 5.12908,0 2.92876,-7.626032 h 1.08701 l 3.12119,7.626032 h -1.14961 l -0.88957,-2.309523 h -3.18877 l -0.83733,2.309523 h -1.07201 z m 2.20064,-3.131516 h 2.58518 l -0.7957,-2.112083 q -0.36422,-0.962158 -0.54133,-1.581407 -0.14549,0.733435 -0.41082,1.456555 l -0.83766,2.236935 z m 7.89104,3.131516 v -3.230389 l -2.93907,-4.395643 h 1.22782 l 1.50316,2.299193 q 0.41617,0.645212 0.7754,1.290105 0.3429,-0.598282 0.83232,-1.347365 l 1.47718,-2.241933 h 1.17557 l -3.04295,4.395643 v 3.230389 z m 9.36358,2.117417 h -2.06515 v -0.775399 h 1.12861 V 72.6246 h -1.12861 v -0.775046 h 2.06515 v 9.743433 z"
       id="path10-1"
       style="stroke-width:0.332927" /><path
       fill="#000000"
       d="m 178.56402,66.709955 h 50.24203 v 19.359314 h -50.24203 z"
       id="path6"
       style="stroke-width:0.47964" /><path
       style="font-size:15.5807px;font-family:Arial;-inkscape-font-specification:Arial;fill:#f9f9f9;stroke-width:0"
       d="m 180.84705,77.478225 q 0,-1.978019 0.40322,-3.180046 0.41081,-1.209634 1.20963,-1.863902 0.80642,-0.654267 2.02366,-0.654267 0.89772,0 1.57481,0.365172 0.67709,0.357565 1.11834,1.042264 0.44125,0.677091 0.69231,1.658492 0.25106,0.973794 0.25106,2.632287 0,1.962803 -0.40322,3.172437 -0.40321,1.202027 -1.20963,1.863902 -0.79882,0.654268 -2.02367,0.654268 -1.61284,0 -2.53338,-1.15638 -1.10313,-1.392221 -1.10313,-4.534227 z m 1.40744,0 q 0,2.746402 0.63905,3.659334 0.64666,0.905324 1.59002,0.905324 0.94337,0 1.58242,-0.912932 0.64666,-0.912932 0.64666,-3.651726 0,-2.754011 -0.64666,-3.659335 -0.63905,-0.905324 -1.59763,-0.905324 -0.94336,0 -1.50634,0.798816 -0.70752,1.01944 -0.70752,3.765843 z m 7.25781,0 q 0,-1.978019 0.40321,-3.180046 0.41082,-1.209634 1.20963,-1.863902 0.80643,-0.654267 2.02367,-0.654267 0.89771,0 1.5748,0.365172 0.6771,0.357565 1.11835,1.042264 0.44125,0.677091 0.6923,1.658492 0.25106,0.973794 0.25106,2.632287 0,1.962803 -0.40321,3.172437 -0.40321,1.202027 -1.20964,1.863902 -0.79881,0.654268 -2.02366,0.654268 -1.61285,0 -2.53339,-1.15638 -1.10312,-1.392221 -1.10312,-4.534227 z m 1.40743,0 q 0,2.746402 0.63906,3.659334 0.64666,0.905324 1.59002,0.905324 0.94336,0 1.58241,-0.912932 0.64666,-0.912932 0.64666,-3.651726 0,-2.754011 -0.64666,-3.659335 -0.63905,-0.905324 -1.59763,-0.905324 -0.94336,0 -1.50633,0.798816 -0.70753,1.01944 -0.70753,3.765843 z m 7.25781,0 q 0,-1.978019 0.40321,-3.180046 0.41082,-1.209634 1.20964,-1.863902 0.80642,-0.654267 2.02366,-0.654267 0.89772,0 1.57481,0.365172 0.67709,0.357565 1.11834,1.042264 0.44125,0.677091 0.69231,1.658492 0.25105,0.973794 0.25105,2.632287 0,1.962803 -0.40321,3.172437 -0.40321,1.202027 -1.20963,1.863902 -0.79882,0.654268 -2.02367,0.654268 -1.61284,0 -2.53338,-1.15638 -1.10313,-1.392221 -1.10313,-4.534227 z m 1.40744,0 q 0,2.746402 0.63905,3.659334 0.64666,0.905324 1.59002,0.905324 0.94336,0 1.58242,-0.912932 0.64666,-0.912932 0.64666,-3.651726 0,-2.754011 -0.64666,-3.659335 -0.63906,-0.905324 -1.59763,-0.905324 -0.94337,0 -1.50634,0.798816 -0.70752,1.01944 -0.70752,3.765843 z m 7.2578,0 q 0,-1.978019 0.40321,-3.180046 0.41082,-1.209634 1.20964,-1.863902 0.80642,-0.654267 2.02366,-0.654267 0.89772,0 1.57481,0.365172 0.67709,0.357565 1.11834,1.042264 0.44125,0.677091 0.69231,1.658492 0.25106,0.973794 0.25106,2.632287 0,1.962803 -0.40322,3.172437 -0.40321,1.202027 -1.20963,1.863902 -0.79882,0.654268 -2.02367,0.654268 -1.61284,0 -2.53338,-1.15638 -1.10313,-1.392221 -1.10313,-4.534227 z m 1.40744,0 q 0,2.746402 0.63905,3.659334 0.64666,0.905324 1.59002,0.905324 0.94337,0 1.58242,-0.912932 0.64666,-0.912932 0.64666,-3.651726 0,-2.754011 -0.64666,-3.659335 -0.63905,-0.905324 -1.59763,-0.905324 -0.94336,0 -1.50634,0.798816 -0.70752,1.01944 -0.70752,3.765843 z m 7.25781,0 q 0,-1.978019 0.40321,-3.180046 0.41082,-1.209634 1.20963,-1.863902 0.80643,-0.654267 2.02367,-0.654267 0.89771,0 1.5748,0.365172 0.6771,0.357565 1.11835,1.042264 0.44125,0.677091 0.6923,1.658492 0.25106,0.973794 0.25106,2.632287 0,1.962803 -0.40321,3.172437 -0.40321,1.202027 -1.20964,1.863902 -0.79881,0.654268 -2.02366,0.654268 -1.61285,0 -2.53339,-1.15638 -1.10312,-1.392221 -1.10312,-4.534227 z m 1.40743,0 q 0,2.746402 0.63905,3.659334 0.64666,0.905324 1.59003,0.905324 0.94336,0 1.58241,-0.912932 0.64666,-0.912932 0.64666,-3.651726 0,-2.754011 -0.64666,-3.659335 -0.63905,-0.905324 -1.59763,-0.905324 -0.94336,0 -1.50634,0.798816 -0.70752,1.01944 -0.70752,3.765843 z"
       id="text1"
       transform="scale(1.009605,0.99048637)"
       aria-label="00000" /></g><g
     id="g64"
     inkscape:label="Symbols"
     transform="matrix(1.0316977,0,0,0.95827734,-1.0358444,13.982487)"><path
       d="M 12.738858,290.53386 H 169.09887 v 44.49528 H 12.738858 Z"
       style="stroke:#000000;stroke-width:1.98572;stroke-dasharray:none"
       id="path1-09-48"
       inkscape:label="path19" /></g><g
     id="g66"
     inkscape:label="LED"
     transform="matrix(1.0316977,0,0,0.95827734,-1.0358444,13.982487)"><path
       d="M 12.768544,251.61254 H 169.36288 v 34.59872 H 12.768544 Z"
       style="stroke:#000000;stroke-width:2.04509;stroke-dasharray:none"
       id="path1-9"
       inkscape:label="path1-9" /></g><g
     id="g62"
     inkscape:label="Resistors"
     transform="matrix(1.0316977,0,0,0.95827734,-1.0358444,13.982487)"><g
       id="g14"
       transform="translate(0.60613174,-2.610287)"
       style="display:inline"><rect
         style="fill:none;fill-opacity:1;stroke:#000000;stroke-width:1.76151;stroke-dasharray:none;stroke-opacity:1"
         id="rect5"
         width="42.733109"
         height="17.794968"
         x="109.47591"
         y="188.65741"
         transform="matrix(0.94854071,0,0,1.0001977,9.8677347,-0.03915255)" /><path
         style="display:inline;fill:none;fill-opacity:1;stroke:#000000;stroke-width:1.99942;stroke-dasharray:none;stroke-opacity:1"
         d="m 120.45096,188.69699 v 17.53489"
         id="path29" /><path
         style="display:inline;fill:none;fill-opacity:1;stroke:#000000;stroke-width:1.99942;stroke-dasharray:none;stroke-opacity:1"
         d="m 127.09073,188.69698 v 17.53489"
         id="path30" /><path
         style="display:inline;fill:none;fill-opacity:1;stroke:#000000;stroke-width:1.99942;stroke-dasharray:none;stroke-opacity:1"
         d="m 133.73103,188.69699 v 17.53488"
         id="path31" /><path
         style="display:inline;fill:none;fill-opacity:1;stroke:#000000;stroke-width:1.99942;stroke-dasharray:none;stroke-opacity:1"
         d="m 149.6471,188.69698 v 17.53489"
         id="path32" /><path
         style="fill:none;fill-opacity:1;stroke:#000000;stroke-width:1.006;stroke-dasharray:none;stroke-opacity:1"
         d="m 116.40533,203.73697 h -8.73316"
         id="path13"
         transform="matrix(0.96927617,0,0,1.0435392,1.0040193,-14.591274)" /><path
         style="fill:none;fill-opacity:1;stroke:#000000;stroke-width:1.006;stroke-dasharray:none;stroke-opacity:1"
         d="m 166.96823,203.62642 h -8.73316"
         id="path14"
         transform="matrix(0.96927617,0,0,1.0435392,1.0040193,-14.591274)" /><ellipse
         style="fill:#000000;fill-opacity:1;stroke:#000000;stroke-width:1.01176;stroke-dasharray:none;stroke-opacity:1"
         id="path15"
         cx="105.54719"
         cy="197.96495"
         rx="1.1250746"
         ry="1.3266339" /><ellipse
         style="fill:#000000;fill-opacity:1;stroke:#000000;stroke-width:1.01176;stroke-dasharray:none;stroke-opacity:1"
         id="ellipse15"
         cx="163.24916"
         cy="197.96495"
         rx="1.1250746"
         ry="1.3266339" /><path
         d="m 106.91955,195.15975 c 0.0507,0.1941 0.25384,0.36232 0.44424,0.36232 h 0.36809 c 0.30464,0 0.50773,-0.27175 0.44425,-0.56937 l -1.75162,-7.7899 c -0.038,-0.1941 -0.25386,-0.36232 -0.44425,-0.36232 h -0.27924 c -0.1904,0 -0.39348,0.16822 -0.44426,0.36232 l -1.15506,5.05956 -0.60925,2.74329 c -0.0635,0.29761 0.13962,0.55642 0.44425,0.55642 h 0.3681 c 0.19038,0 0.39346,-0.16822 0.44424,-0.36232 l 0.44426,-2.01864 h 1.29468 z m -1.07891,-5.37012 c 0.24116,1.0999 0.21577,1.44928 0.3554,2.07041 h -0.71081 z"
         id="text16"
         style="font-size:85.8216px;font-family:'Ostrich Sans';-inkscape-font-specification:'Ostrich Sans';fill:#000000;stroke:#000000;stroke-width:0.151088"
         aria-label="A" /><path
         d="m 163.27313,195.27041 c 1.4068,0 2.03205,-0.8285 2.03205,-2.49843 0,-0.78966 -0.2044,-1.44987 -0.51703,-1.86411 0,0 0.51703,-0.66021 0.51703,-1.86412 0,-1.66993 -0.62525,-2.49843 -2.03205,-2.49843 h -1.19037 c -0.24049,0 -0.43288,0.20713 -0.43288,0.46603 v 7.79303 c 0,0.2589 0.19239,0.46603 0.43288,0.46603 z m 0,-7.44351 c 0.58917,0 0.82965,0.34952 0.82965,1.21685 0,0.86734 -0.24048,1.21685 -0.82965,1.21685 h -0.42084 v -2.4337 z m 0,3.71528 c 0.58917,0 0.82965,0.34952 0.82965,1.2298 0,0.86733 -0.24048,1.21685 -0.82965,1.21685 h -0.42084 v -2.44665 z"
         id="text17"
         style="font-size:85.8216px;font-family:'Ostrich Sans';-inkscape-font-specification:'Ostrich Sans';fill:#000000;stroke:#000000;stroke-width:0.147082"
         aria-label="B" /></g><g
       id="g28"
       transform="matrix(1.0000139,0,0,1.0000139,0.60469766,27.405428)"
       style="display:inline"><rect
         style="fill:none;fill-opacity:1;stroke:#000000;stroke-width:1.76151;stroke-dasharray:none;stroke-opacity:1"
         id="rect17"
         width="42.733109"
         height="17.794968"
         x="109.47591"
         y="188.65741"
         transform="matrix(0.94854071,0,0,1.0001977,9.8677347,-0.03915255)" /><path
         style="fill:none;fill-opacity:1;stroke:#000000;stroke-width:1.99939;stroke-dasharray:none;stroke-opacity:1"
         d="m 120.77217,188.67212 v 17.53464"
         id="path17" /><path
         style="fill:none;fill-opacity:1;stroke:#000000;stroke-width:1.99939;stroke-dasharray:none;stroke-opacity:1"
         d="m 136.41231,188.67211 v 17.53464"
         id="path18" /><path
         style="fill:none;fill-opacity:1;stroke:#000000;stroke-width:1.99939;stroke-dasharray:none;stroke-opacity:1"
         d="m 143.15967,189.01819 v 17.53464"
         id="path19" /><path
         style="fill:none;fill-opacity:1;stroke:#000000;stroke-width:1.99939;stroke-dasharray:none;stroke-opacity:1"
         d="m 149.9679,188.67211 v 17.53464"
         id="path24" /><path
         style="fill:none;fill-opacity:1;stroke:#000000;stroke-width:1.006;stroke-dasharray:none;stroke-opacity:1"
         d="m 116.40533,203.73697 h -8.73316"
         id="path25"
         transform="matrix(0.96927617,0,0,1.0435392,1.0040193,-14.591274)" /><path
         style="fill:none;fill-opacity:1;stroke:#000000;stroke-width:1.006;stroke-dasharray:none;stroke-opacity:1"
         d="m 166.96823,203.62642 h -8.73316"
         id="path26"
         transform="matrix(0.96927617,0,0,1.0435392,1.0040193,-14.591274)" /><ellipse
         style="fill:#000000;fill-opacity:1;stroke:#000000;stroke-width:1.01176;stroke-dasharray:none;stroke-opacity:1"
         id="ellipse26"
         cx="105.54719"
         cy="197.96495"
         rx="1.1250746"
         ry="1.3266339" /><ellipse
         style="fill:#000000;fill-opacity:1;stroke:#000000;stroke-width:1.01176;stroke-dasharray:none;stroke-opacity:1"
         id="ellipse27"
         cx="163.24916"
         cy="197.96495"
         rx="1.1250746"
         ry="1.3266339" /><path
         d="m 104.16319,220.17921 c 0,1.02268 0.26453,1.61816 0.63727,2.01946 0.39679,0.41425 0.88978,0.51781 1.34669,0.51781 0.43286,0 0.93787,-0.10356 1.33466,-0.51781 0.37275,-0.4013 0.62525,-0.99678 0.62525,-2.01946 v -0.18123 c 0,-0.25891 -0.19238,-0.46603 -0.42084,-0.46603 h -0.3487 c -0.24048,0 -0.43286,0.20712 -0.43286,0.46603 v 0.18123 c 0,0.46603 -0.0601,0.81555 -0.20441,1.02268 -0.10821,0.12945 -0.32464,0.23301 -0.5531,0.23301 -0.51703,0 -0.76954,-0.38836 -0.76954,-1.25569 v -3.6635 c 0,-0.86733 0.26453,-1.24274 0.76954,-1.24274 0.49298,0 0.75751,0.37541 0.75751,1.24274 v 0.18123 c 0,0.25891 0.19238,0.46603 0.43286,0.46603 h 0.3487 c 0.22846,0 0.42084,-0.20712 0.42084,-0.46603 v -0.18123 c 0,-0.98384 -0.2525,-1.6311 -0.63727,-2.01946 -0.39679,-0.38835 -0.87775,-0.50486 -1.32264,-0.50486 -0.45691,0 -0.93787,0.11651 -1.33466,0.50486 -0.38477,0.38836 -0.6493,1.03562 -0.6493,2.01946 z"
         id="text28"
         style="font-size:85.8216px;font-family:'Ostrich Sans';-inkscape-font-specification:'Ostrich Sans';fill:#000000;stroke:#000000;stroke-width:0.147082"
         aria-label="C"
         transform="matrix(0.9999861,0,0,0.9999861,-0.60468925,-27.405047)" /><path
         d="m 163.88738,222.87962 c 1.44288,0 2.11622,-0.88028 2.11622,-2.56316 v -3.59877 c 0,-1.68288 -0.67334,-2.56316 -2.11622,-2.56316 h -1.22644 c -0.24048,0 -0.43287,0.20713 -0.43287,0.46603 v 7.79303 c 0,0.2589 0.19239,0.46603 0.43287,0.46603 z m 0,-7.44351 c 0.63728,0 0.9018,0.41425 0.9018,1.28158 v 3.59877 c 0,0.86733 -0.26452,1.28158 -0.9018,1.28158 h -0.46893 v -6.16193 z"
         id="text29"
         style="font-size:85.8216px;font-family:'Ostrich Sans';-inkscape-font-specification:'Ostrich Sans';fill:#000000;stroke:#000000;stroke-width:0.147082"
         aria-label="D"
         transform="matrix(0.9999861,0,0,0.9999861,-0.60468925,-27.405047)" /></g><path
       d="m 99.544426,175.68534 h 69.643284 v 71.12211 H 99.5454 Z"
       style="display:inline;stroke:#000000;stroke-width:2;stroke-dasharray:none"
       id="path1-0-4-5"
       inkscape:label="path16" /></g><g
     id="g63"
     inkscape:label="Meter"
     transform="matrix(1.0316977,0,0,0.95827734,-1.0358444,13.982487)"><path
       d="M 85.353297,175.68386 H 95.55262 v 71.34726 H 85.35344 Z"
       style="stroke:#000000;stroke-width:1.99722;stroke-dasharray:none"
       id="path1-0-4-6"
       inkscape:label="path18" /><path
       style="fill:#000000;fill-opacity:1;stroke:#000000;stroke-width:2;stroke-linecap:square;stroke-dasharray:none;stroke-dashoffset:0;stroke-opacity:1"
       d="M 84.968718,210.97569 H 92.70736"
       id="path46"
       inkscape:path-effect="#path-effect46"
       inkscape:original-d="m 84.968718,210.97569 c 2.631659,0 5.185151,0 7.738642,0"
       transform="matrix(0.70503292,0,0,1,25.368289,0)" /><path
       style="fill:#000000;fill-opacity:1;stroke:#000000;stroke-width:2;stroke-linecap:square;stroke-dasharray:none;stroke-dashoffset:0;stroke-opacity:1"
       d="M 84.968718,210.97569 H 92.70736"
       id="path46-2"
       inkscape:path-effect="#path-effect46-2"
       inkscape:original-d="m 84.968718,210.97569 c 2.631659,0 5.185151,0 7.738642,0"
       transform="matrix(0.48898076,0,0,1,43.532913,-18.266033)" /><path
       style="fill:#000000;fill-opacity:1;stroke:#000000;stroke-width:0.953811;stroke-linecap:square;stroke-dasharray:none;stroke-dashoffset:0;stroke-opacity:1"
       d="M 84.968718,210.97569 H 92.70736"
       id="path46-2-0"
       inkscape:path-effect="#path-effect46-2-6"
       inkscape:original-d="m 84.968718,210.97569 c 2.631659,0 5.185151,0 7.738642,0"
       transform="matrix(1.1818612,0,0,1,-14.690612,-12.582095)" /><path
       style="fill:#000000;fill-opacity:1;stroke:#000000;stroke-width:0.953811;stroke-linecap:square;stroke-dasharray:none;stroke-dashoffset:0;stroke-opacity:1"
       d="M 84.968718,210.97569 H 92.70736"
       id="path46-2-0-5"
       inkscape:path-effect="#path-effect46-2-6-6"
       inkscape:original-d="m 84.968718,210.97569 c 2.631659,0 5.185151,0 7.738642,0"
       transform="matrix(1.1818612,0,0,1,-14.844168,11.795307)" /><path
       style="fill:#000000;fill-opacity:1;stroke:#000000;stroke-width:2;stroke-linecap:square;stroke-dasharray:none;stroke-dashoffset:0;stroke-opacity:1"
       d="M 84.968718,210.97569 H 92.70736"
       id="path46-2-8"
       inkscape:path-effect="#path-effect46-2-7"
       inkscape:original-d="m 84.968718,210.97569 c 2.631659,0 5.185151,0 7.738642,0"
       transform="matrix(0.48897988,0,0,1,43.532987,17.887277)" /></g><g
     id="g61"
     inkscape:label="Button"
     transform="matrix(1.0316977,0,0,0.95827734,-1.0358444,13.982487)"><path
       d="m 12.745912,175.68534 h 68.409966 v 71.13949 h -68.40901 z"
       style="stroke:#000000;stroke-width:2;stroke-dasharray:none"
       id="path1-0-4"
       inkscape:label="path16" /></g><g
     id="g1"
     inkscape:label="Wires"
     transform="matrix(1.0316977,0,0,0.95827734,-1.0358444,13.982487)"><path
       d="M 12.74602,61.007 H 168.52926 V 170.34072 H 12.748198 Z"
       style="stroke:#000000;stroke-width:2;stroke-dasharray:none"
       id="path1-0"
       inkscape:label="path15" /></g><g
     id="g59"
     inkscape:label="Component Selector"><path
       style="line-height:1.25;-inkscape-font-specification:'Myriad Pro';stroke-width:0.973735"
       d="m 137.54657,20.106172 c -3.37083,0 -5.44234,1.760299 -5.44234,4.085562 0,1.981166 1.58039,3.234325 3.96998,4.043854 1.72842,0.565912 2.41059,1.052198 2.41059,1.90154 0,0.889154 -0.79019,1.474973 -2.28356,1.474973 -1.38734,0 -2.75368,-0.424671 -3.60689,-0.849342 l -0.66016,2.529067 c 0.8102,0.424671 2.4326,0.849342 4.075,0.849342 3.94797,0 5.78242,-1.941353 5.78242,-4.226803 0,-1.920499 -1.17228,-3.175553 -3.71091,-4.065656 -1.87846,-0.66734 -2.66866,-1.050302 -2.66866,-1.91955 0,-0.688195 0.68317,-1.314774 2.09152,-1.314774 1.38734,0 2.4326,0.382962 2.98773,0.646486 l 0.72418,-2.466504 c -0.85321,-0.38391 -2.0255,-0.688195 -3.6689,-0.688195 z m -24.7731,0.101429 c -1.75043,0 -3.2858,0.121334 -4.33106,0.303336 v 13.426427 h 3.22079 v -5.357679 h 0.96024 c 1.34333,0.01991 1.96348,0.464484 2.36858,2.183074 0.4061,1.677829 0.76819,2.770788 0.98124,3.175553 h 3.32882 c -0.27707,-0.526099 -0.70417,-2.305357 -1.15228,-3.8628 -0.36309,-1.254106 -0.91823,-2.142313 -1.92047,-2.527171 v -0.06067 c 1.2373,-0.424671 2.53962,-1.61811 2.53962,-3.3367 0,-1.254107 -0.47011,-2.203929 -1.34433,-2.851362 -1.02425,-0.788675 -2.51762,-1.092011 -4.65115,-1.092011 z m -30.46849,0.09953 3.41484,13.631179 h 3.562876 l 1.366336,-5.843965 c 0.340084,-1.395348 0.576142,-2.689267 0.832205,-4.226803 h 0.04301 c 0.170042,1.557442 0.404099,2.831455 0.681167,4.206896 l 1.2173,5.862924 h 3.520866 l 3.71291,-13.630231 h -3.306811 l -1.174288,5.562431 c -0.299074,1.638016 -0.619153,3.235272 -0.832205,4.751954 h -0.04301 a 86.413252,81.893241 0 0 0 -0.768189,-4.569002 l -1.152283,-5.744433 h -3.45585 l -1.217299,5.561483 c -0.362089,1.698684 -0.705174,3.3367 -0.940232,4.834423 h -0.04201 a 210.25171,199.25409 0 0 0 -0.852209,-4.793662 l -1.088268,-5.602244 z m 20.07294,0 V 33.93831 h 3.2428 V 20.307133 Z m 18.75461,0 V 33.93831 h 9.15525 v -2.528119 h -5.91145 V 28.17397 h 5.2913 v -2.506316 h -5.2913 V 22.8362 h 5.61138 v -2.529067 z m -7.99597,2.205824 c 1.49337,0 2.38959,0.647434 2.38959,1.880686 0,1.193439 -0.96124,1.960311 -2.58263,1.960311 h -1.28032 v -3.739569 c 0.23506,-0.06067 0.68417,-0.101428 1.47336,-0.101428 z"
       font-size="21.333px"
       font-family="'Myriad Pro'"
       aria-label="WIRES"
       font-weight="400"
       letter-spacing="0"
       word-spacing="0"
       fill="#000000"
       id="path8" /><path
       d="M 12.008838,11.889443 H 213.45165 V 43.46047 H 12.008838 Z"
       style="display:inline;stroke:#000000;stroke-width:2.17737;stroke-dasharray:none"
       id="path1-6"
       inkscape:label="path14" /><path
       style="line-height:1.25;-inkscape-font-specification:'Myriad Pro';display:inline"
       d="m 358.88567,-4.9660945 -8.827,8.8810001 8.828,8.8029994 8.828,-8.8029994 z m -10.702,10.6000001 -8.828,8.8279994 8.828,8.828 8.828,-8.828 z m 21.328,0.025 -8.854,8.8029994 8.854,8.88 8.803,-8.88 z m -10.626,10.6779994 -8.828,8.828 8.828,8.828 8.828,-8.828 z"
       font-family="'Myriad Pro'"
       aria-label="❖"
       font-weight="400"
       font-size="53.333px"
       letter-spacing="0"
       word-spacing="0"
       fill="#000000"
       id="path12-6"
       sodipodi:nodetypes="cccccccccccccccccccc"
       inkscape:label="path12-6"
       transform="translate(-113.73437,25.119504)" /><path
       d="m 331.94031,-13.154896 h 53.19972 v 55.377158 h -53.19972 z"
       stroke="#000000"
       stroke-width="1.97729"
       id="path4-9"
       style="display:inline"
       sodipodi:nodetypes="ccccc"
       transform="translate(-113.73437,25.119504)" /><path
       style="line-height:1.25;-inkscape-font-specification:'Myriad Pro'"
       d="m 195.11804,52.162455 v 2.26 l 7.938,3.392 v 0.043 l -7.938,3.393 v 2.24 l 10.262,-4.672 v -1.963 z"
       font-size="21.333px"
       font-family="'Myriad Pro'"
       aria-label="&gt;"
       font-weight="400"
       letter-spacing="0"
       word-spacing="0"
       fill="#000000"
       id="path10-0"
       sodipodi:nodetypes="ccccccccc" /><path
       style="line-height:1.25;-inkscape-font-specification:'Myriad Pro';stroke-width:0.789446"
       d="m 115.99133,51.099379 -6.42215,6.448197 6.42215,6.447407 6.43082,-6.446618 z"
       font-size="21.333px"
       font-family="'Myriad Pro'"
       aria-label="◆"
       font-weight="400"
       letter-spacing="0"
       word-spacing="0"
       fill="#000000"
       id="path11"
       sodipodi:nodetypes="ccccc" /><path
       style="line-height:1.25;-inkscape-font-specification:'Myriad Pro'"
       d="m 28.07575,51.948689 -10.26,4.758 v 1.834 l 10.26,4.736 v -2.262 l -7.764,-3.37 v -0.042 l 7.764,-3.392 z"
       font-size="21.333px"
       font-family="'Myriad Pro'"
       aria-label="&lt;"
       font-weight="400"
       letter-spacing="0"
       word-spacing="0"
       fill="#000000"
       id="path9-3"
       sodipodi:nodetypes="ccccccccc" /><path
       d="M 46.92419,47.756585 H 179.70615 V 67.878879 H 46.92545 Z"
       stroke="#000000"
       stroke-width="1.98991"
       id="path3"
       style="display:inline"
       sodipodi:nodetypes="ccccc" /><path
       d="m 11.71414,47.755179 h 28.30705 v 20.181714 h -28.3058 z m 173.47564,0 h 28.30829 v 20.181714 h -28.30829 z"
       stroke-width="1.91149"
       stroke="#000000"
       id="path2-1"
       style="display:inline"
       sodipodi:nodetypes="cccccccccc" /></g></svg>
