<?xml version="1.0" encoding="UTF-8" standalone="no"?>
<svg
   viewBox="0 0 348 348"
   fill="none"
   version="1.1"
   id="svg12"
   sodipodi:docname="The Cruel Modkit.svg"
   inkscape:version="1.3.2 (091e20e, 2023-11-25, custom)"
   inkscape:export-filename="..\..\..\The Cruel Modkit.png"
   inkscape:export-xdpi="96"
   inkscape:export-ydpi="96"
   xml:space="preserve"
   xmlns:inkscape="http://www.inkscape.org/namespaces/inkscape"
   xmlns:sodipodi="http://sodipodi.sourceforge.net/DTD/sodipodi-0.dtd"
   xmlns="http://www.w3.org/2000/svg"
   xmlns:svg="http://www.w3.org/2000/svg"><defs
     id="defs12"><inkscape:path-effect
       effect="spiro"
       id="path-effect50"
       is_visible="true"
       lpeversion="1" /><inkscape:path-effect
       effect="spiro"
       id="path-effect47"
       is_visible="true"
       lpeversion="1" /><inkscape:path-effect
       effect="spiro"
       id="path-effect45"
       is_visible="true"
       lpeversion="1" /><inkscape:path-effect
       effect="spiro"
       id="path-effect43"
       is_visible="true"
       lpeversion="1" /><inkscape:path-effect
       effect="spiro"
       id="path-effect41"
       is_visible="true"
       lpeversion="1" /><inkscape:path-effect
       effect="spiro"
       id="path-effect40"
       is_visible="true"
       lpeversion="1" /><inkscape:path-effect
       effect="spiro"
       id="path-effect38"
       is_visible="true"
       lpeversion="1" /><inkscape:path-effect
       effect="spiro"
       id="path-effect36"
       is_visible="true"
       lpeversion="1" /><inkscape:path-effect
       effect="spiro"
       id="path-effect22"
       is_visible="true"
       lpeversion="1" /><inkscape:path-effect
       effect="spiro"
       id="path-effect18"
       is_visible="true"
       lpeversion="1" /><inkscape:path-effect
       effect="spiro"
       id="path-effect17"
       is_visible="true"
       lpeversion="1" /><inkscape:path-effect
       effect="spiro"
       id="path-effect16"
       is_visible="true"
       lpeversion="1" /><inkscape:path-effect
       effect="spiro"
       id="path-effect15"
       is_visible="true"
       lpeversion="1" /><inkscape:path-effect
       effect="spiro"
       id="path-effect14"
       is_visible="true"
       lpeversion="1" /><inkscape:path-effect
       effect="spiro"
       id="path-effect13"
       is_visible="true"
       lpeversion="1" /><inkscape:path-effect
       effect="spiro"
       id="path-effect11"
       is_visible="true"
       lpeversion="1" /><inkscape:path-effect
       effect="spiro"
       id="path-effect3"
       is_visible="true"
       lpeversion="1" /><inkscape:path-effect
       effect="spiro"
       id="path-effect46"
       is_visible="true"
       lpeversion="1" /><inkscape:path-effect
       effect="spiro"
       id="path-effect46-2"
       is_visible="true"
       lpeversion="1" /><inkscape:path-effect
       effect="spiro"
       id="path-effect46-2-7"
       is_visible="true"
       lpeversion="1" /><inkscape:path-effect
       effect="spiro"
       id="path-effect46-2-6"
       is_visible="true"
       lpeversion="1" /><inkscape:path-effect
       effect="spiro"
       id="path-effect46-2-6-6"
       is_visible="true"
       lpeversion="1" /><inkscape:path-effect
       effect="spiro"
       id="path-effect18-3"
       is_visible="true"
       lpeversion="1" /></defs><sodipodi:namedview
     id="namedview12"
     pagecolor="#505050"
     bordercolor="#eeeeee"
     borderopacity="1"
     inkscape:showpageshadow="0"
     inkscape:pageopacity="0"
     inkscape:pagecheckerboard="0"
     inkscape:deskcolor="#505050"
     inkscape:zoom="1.599118"
     inkscape:cx="140.70256"
     inkscape:cy="156.64885"
     inkscape:window-width="1920"
     inkscape:window-height="1001"
     inkscape:window-x="-9"
     inkscape:window-y="-9"
     inkscape:window-maximized="1"
     inkscape:current-layer="svg12"
     showgrid="false" /><g
     id="g57"
     inkscape:label="BG"
     style="display:inline"><rect
       style="fill:none;fill-opacity:1;stroke:#000000;stroke-width:2.02813;stroke-linecap:butt;stroke-dasharray:none;stroke-opacity:1"
       id="rect34"
       width="336.9902"
       height="335.11417"
       x="5.9429145"
       y="7.0696383" /><path
       d="m 282.734,40.554 c 0,-8.376 6.966,-15.165 15.56,-15.165 4.126,0 8.084,1.597 11.001,4.441 2.918,2.844 4.558,6.702 4.558,10.724 0,8.376 -6.966,15.165 -15.56,15.165 -8.593,0 -15.559,-6.79 -15.559,-15.165 z"
       stroke-width="2"
       stroke="#000000"
       id="path2"
       sodipodi:nodetypes="sscsss" /></g><g
     id="g65"
     inkscape:label="Alphabet"
     style="display:inline"
     transform="matrix(0.97860727,0,0,0.95846682,9.1446748,13.944968)"><path
       d="m 172.70304,290.53703 h 162.63245 v 44.48922 H 172.70304 Z"
       style="display:inline;stroke:#000000;stroke-width:1.99206;stroke-dasharray:none"
       id="path1-09-4"
       inkscape:label="path19" /></g><g
     id="g52"
     inkscape:label="Piano"
     transform="matrix(0.97860727,0,0,0.95846682,5.7997951,13.944968)"><path
       d="m 172.71032,204.22241 h 162.51727 v 82.27013 H 172.71032 Z"
       stroke="#000000"
       stroke-width="1.53857"
       id="path5-9-6-5-8-4"
       style="stroke-width:2.00665;stroke-dasharray:none"
       transform="translate(3.418)" /></g><g
     id="g60"
     inkscape:label="Identity"
     transform="matrix(0.97860727,0,0,0.95846682,9.1446748,13.944968)"><path
       d="m 276.52568,95.188089 h 58.88755 V 200.29584 h -58.88755 z"
       stroke="#000000"
       stroke-width="1.04917"
       id="path5-9-6-5"
       style="stroke-width:2.00218;stroke-linecap:round;stroke-dasharray:none" /></g><g
     id="g49"
     inkscape:label="Arrows"
     transform="matrix(1.0352153,0,0,1.0139098,-3.0360634,6.5775831)"><path
       d="m 172.71072,117.60436 h 98.52688 v 82.78977 h -98.52688 z"
       stroke="#000000"
       stroke-width="1.20128"
       id="path5-9-6-5-8"
       style="stroke-width:2.00743;stroke-dasharray:none"
       transform="matrix(0.94531763,0,0,0.94531763,11.766382,7.2663115)" /></g><g
     id="g41"
     inkscape:label="Bulbs"
     transform="matrix(0.97860727,0,0,0.95846682,9.1446748,13.944968)"><path
       d="m 222.43721,95.251256 h 48.73045 v 18.311534 h -48.73045 z"
       stroke="#000000"
       stroke-width="0.374873"
       id="path5-9-6"
       style="stroke-width:2.12764;stroke-dasharray:none" /></g><g
     id="g19"
     inkscape:label="Resistor"
     transform="matrix(0.97860727,0,0,0.95846682,9.1446748,13.944968)"><path
       d="m 172.72258,95.202574 h 44.13773 v 18.408896 h -44.13773 z"
       stroke="#000000"
       stroke-width="0.374873"
       id="path5-9"
       style="stroke-width:2.03027;stroke-dasharray:none" /></g><g
     id="g58"
     inkscape:label="Top Widget"
     transform="matrix(0.94045231,0,0,0.95860521,15.715631,13.917565)"><path
       d="m 308.59981,70.279902 h 3.14101 v 13.009312 h -3.14101 z"
       fill="#000000"
       fill-rule="evenodd"
       id="path20"
       style="display:inline;fill:#000000;fill-opacity:1;stroke-width:0.24383;stroke-linecap:square;stroke-miterlimit:10" /><path
       d="m 308.59981,70.279902 h 3.14101 v 13.009312 h -3.14101 z"
       stroke="#000000"
       stroke-width="0.48766"
       stroke-linecap="butt"
       stroke-linejoin="round"
       id="path21"
       style="display:inline;fill:#000000;fill-opacity:1;stroke-linecap:square;stroke-miterlimit:10" /><path
       d="m 329.70744,70.279902 h 3.14103 v 13.009312 h -3.14103 z"
       fill="#000000"
       fill-rule="evenodd"
       id="path22"
       style="display:inline;fill:#000000;fill-opacity:1;stroke-width:0.24383;stroke-linecap:square;stroke-miterlimit:10" /><path
       d="m 329.70744,70.279902 h 3.14103 v 13.009312 h -3.14103 z"
       stroke="#000000"
       stroke-width="0.48766"
       stroke-linecap="butt"
       stroke-linejoin="round"
       id="path23"
       style="display:inline;fill:#000000;fill-opacity:1;stroke-linecap:square;stroke-miterlimit:10" /><path
       d="m 311.19489,72.073516 h 18.51572 v 9.822449 h -18.51572 z"
       id="path48"
       style="display:inline;fill:none;stroke-width:0.24383;stroke-linecap:square;stroke-miterlimit:10" /><path
       d="m 311.19489,72.073516 h 18.51572 v 9.822449 h -18.51572 z"
       stroke="#000000"
       stroke-width="0.48766"
       stroke-linecap="butt"
       stroke-linejoin="round"
       id="path49"
       style="display:inline;fill:none;stroke-linecap:square;stroke-miterlimit:10" /><path
       d="m 332.84847,73.08663 h 1.98134 c 1.09432,0 1.98138,1.655607 1.98138,3.697924 0,2.042078 -0.88706,3.697686 -1.98138,3.697686 h -1.98134 z"
       fill="#000000"
       fill-rule="evenodd"
       id="path50"
       style="display:inline;fill:none;stroke-width:0.24383;stroke-linecap:square;stroke-miterlimit:10"
       inkscape:label="path50" /><path
       d="m 332.84847,73.08663 h 1.98134 v 0 c 1.09432,0 1.98138,1.655607 1.98138,3.697924 0,2.042078 -0.88706,3.697686 -1.98138,3.697686 h -1.98134 z"
       stroke="#000000"
       stroke-width="0.48766"
       stroke-linecap="butt"
       stroke-linejoin="round"
       id="path51"
       style="display:inline;fill:#000000;fill-opacity:1;stroke-linecap:square;stroke-miterlimit:10"
       inkscape:label="path51" /><path
       d="m 308.40717,80.48224 h -1.98135 c -1.09431,0 -1.98137,-1.655608 -1.98137,-3.697686 0,-2.042317 0.88706,-3.697924 1.98137,-3.697924 h 1.98135 z"
       fill="#000000"
       fill-rule="evenodd"
       id="path52"
       style="display:inline;fill:#000000;fill-opacity:1;stroke-width:0.24383;stroke-linecap:square;stroke-miterlimit:10" /><path
       d="m 308.40717,80.48224 h -1.98135 v 0 c -1.09431,0 -1.98137,-1.655608 -1.98137,-3.697686 0,-2.042317 0.88706,-3.697924 1.98137,-3.697924 h 1.98135 z"
       stroke="#000000"
       stroke-width="0.48766"
       stroke-linecap="butt"
       stroke-linejoin="round"
       id="path53"
       style="display:inline;fill:#000000;fill-opacity:1;stroke-linecap:square;stroke-miterlimit:10" /><path
       d="M 172.72685,61.026363 H 342.25389 V 91.140379 H 172.72685 Z"
       stroke="#000000"
       stroke-width="0.935167"
       id="path5"
       style="stroke-width:2.04002;stroke-dasharray:none" /><path
       fill="#000000"
       d="m 287.70932,66.70964 h 15.40579 v 19.359314 h -15.40579 z"
       id="path6-1"
       style="stroke-width:0.265597"
       inkscape:label="path6-1" /><path
       fill="#ffffff"
       d="m 292.48512,76.537396 c 0,-1.114648 0.11394,-2.01103 0.34181,-2.689154 0.23336,-0.683613 0.57517,-1.209366 1.02542,-1.577253 0.453,-0.367887 1.02268,-0.551832 1.70903,-0.551832 0.50791,0 0.95267,0.102954 1.33428,0.308861 0.38162,0.200418 0.69735,0.494179 0.94718,0.881285 0.24709,0.381617 0.44202,0.84834 0.58478,1.400172 0.14002,0.549086 0.21003,1.291729 0.21003,2.227921 0,1.106412 -0.11394,2.000051 -0.34181,2.680918 -0.22513,0.678125 -0.56556,1.203873 -1.02131,1.577253 -0.45025,0.370634 -1.0213,0.555951 -1.71315,0.555951 -0.90599,0 -1.6198,-0.326706 -2.14144,-0.980121 -0.62046,-0.785195 -0.9307,-2.063195 -0.9307,-3.834001 z m 1.19427,0 c 0,1.548426 0.17845,2.579335 0.53536,3.092734 0.36789,0.513398 0.81677,0.770095 1.34663,0.770095 0.53262,0 0.97875,-0.258073 1.3384,-0.774213 0.36515,-0.516142 0.54772,-1.54568 0.54772,-3.088616 0,-1.553915 -0.18257,-2.5862 -0.54772,-3.096851 -0.3569,-0.510651 -0.80716,-0.765977 -1.35075,-0.765977 -0.52987,0 -0.95404,0.226499 -1.27251,0.679496 -0.39809,0.573794 -0.59713,1.634906 -0.59713,3.183332 z"
       id="path7-5"
       sodipodi:nodetypes="cccscccsccscccscscscscs"
       style="stroke-width:0.411815" /><path
       fill="#000000"
       d="m 202.9858,67.02409 h 82.88926 v 18.730101 h -82.8896 z"
       id="path8-4"
       style="stroke-width:0.31445" /><path
       stroke="#000000"
       stroke-width="0.628898"
       stroke-linejoin="round"
       stroke-linecap="butt"
       d="m 202.9858,67.02409 h 82.88926 v 18.730101 h -82.8896 z"
       id="path9-9" /><path
       fill="#000000"
       d="m 178.39778,66.709955 h 22.48076 v 19.359314 h -22.48076 z"
       id="path6"
       style="stroke-width:0.320839" /><path
       fill="#ffffff"
       d="m 216.54657,81.593324 v -9.743449 h 2.06516 v 0.775063 h -1.12863 v 8.193322 h 1.12863 v 0.775064 z m 6.01865,-2.117417 v -7.626032 h 2.6268 q 0.8899,0 1.358,0.109265 0.65553,0.150832 1.11864,0.546003 0.60326,0.510045 0.89957,1.306075 0.30195,0.790696 0.30195,1.810114 0,0.868939 -0.20308,1.539794 -0.20308,0.671177 -0.52003,1.11331 -0.31727,0.436801 -0.69715,0.691823 -0.37455,0.24969 -0.91021,0.379523 -0.5307,0.130202 -1.22251,0.130202 z m 1.0091,-0.8999 h 1.62834 q 0.75441,0 1.18089,-0.140439 0.43181,-0.14044 0.6865,-0.395187 0.35923,-0.358894 0.55665,-0.962158 0.2031,-0.608919 0.2031,-1.47254 0,-1.196198 -0.39553,-1.836078 -0.39019,-0.645212 -0.95216,-0.863619 -0.4055,-0.156135 -1.30542,-0.156135 h -1.60237 z m 6.8563,0.8999 v -7.626032 h 1.00911 v 7.626032 h -1.00878 z m 2.44502,-2.450345 0.95216,-0.08329 q 0.0672,0.572625 0.31197,0.941849 0.24968,0.364211 0.7697,0.592935 0.52038,0.223724 1.17057,0.223724 0.5773,0 1.01943,-0.171447 0.44246,-0.171798 0.65587,-0.468432 0.21806,-0.301633 0.21806,-0.655208 0,-0.359214 -0.20808,-0.624231 -0.20807,-0.270671 -0.68649,-0.452784 -0.30697,-0.119809 -1.35767,-0.369544 -1.05072,-0.254687 -1.47221,-0.478413 -0.54599,-0.28632 -0.81666,-0.707471 -0.26536,-0.426485 -0.26536,-0.952178 0,-0.57695 0.32761,-1.076343 0.32793,-0.504728 0.95717,-0.764733 0.62922,-0.260356 1.39929,-0.260356 0.84796,0 1.49317,0.276004 0.65022,0.270337 0.99879,0.801011 0.34857,0.530692 0.37454,1.201869 l -0.96749,0.07259 q -0.0782,-0.723119 -0.53068,-1.092343 -0.44747,-0.369545 -1.32671,-0.369545 -0.91556,0 -1.33671,0.338248 -0.41614,0.33293 -0.41614,0.80636 0,0.41082 0.29628,0.676173 0.29132,0.265338 1.51915,0.545989 1.23284,0.276004 1.6906,0.484081 0.66586,0.306965 0.98314,0.780381 0.31728,0.468097 0.31728,1.082012 0,0.608583 -0.34857,1.14959 -0.34825,0.535689 -1.00378,0.837321 -0.6502,0.296297 -1.46689,0.296297 -1.03539,0 -1.73787,-0.301295 -0.69682,-0.301968 -1.09733,-0.905554 -0.3955,-0.608261 -0.41614,-1.372994 z m 7.44923,2.450345 v -7.626032 h 2.87648 q 0.75975,0 1.16026,0.0729 0.56164,0.09352 0.94151,0.358893 0.37953,0.260005 0.6086,0.733435 0.23404,0.473415 0.23404,1.0404 0,0.972809 -0.61924,1.648984 -0.61858,0.671177 -2.23662,0.671177 h -1.95593 v 3.100218 z m 1.0091,-4.000119 h 1.97158 q 0.97814,0 1.38899,-0.364227 0.41084,-0.36421 0.41084,-1.02475 0,-0.47875 -0.24438,-0.816661 -0.23938,-0.343581 -0.63456,-0.452784 -0.25502,-0.06754 -0.94152,-0.06754 h -1.95095 z m 6.05526,4.000119 v -7.626032 h 1.00877 v 6.726132 h 3.75609 v 0.8999 z m 5.12908,0 2.92876,-7.626032 h 1.08701 l 3.12119,7.626032 h -1.14961 l -0.88957,-2.309523 h -3.18877 l -0.83733,2.309523 h -1.07201 z m 2.20064,-3.131516 h 2.58518 l -0.7957,-2.112083 q -0.36422,-0.962158 -0.54133,-1.581407 -0.14549,0.733435 -0.41082,1.456555 l -0.83766,2.236935 z m 7.89104,3.131516 v -3.230389 l -2.93907,-4.395643 h 1.22782 l 1.50316,2.299193 q 0.41617,0.645212 0.7754,1.290105 0.3429,-0.598282 0.83232,-1.347365 l 1.47718,-2.241933 h 1.17557 l -3.04295,4.395643 v 3.230389 z m 9.36358,2.117417 h -2.06515 v -0.775399 h 1.12861 V 72.6246 h -1.12861 v -0.775046 h 2.06515 v 9.743433 z"
       id="path10-1"
       style="stroke-width:0.332927" /><path
       fill="#ffffff"
       d="m 182.92236,76.537711 c 0,-1.114648 0.11393,-2.01103 0.3418,-2.689154 0.23062,-0.683613 0.57106,-1.209366 1.02131,-1.577253 0.45574,-0.367887 1.02679,-0.551832 1.71315,-0.551832 0.50516,0 0.94855,0.102954 1.33016,0.308861 0.38436,0.200418 0.70009,0.494179 0.94718,0.881285 0.24709,0.381617 0.44201,0.84834 0.58477,1.400172 0.14277,0.549086 0.21415,1.291729 0.21415,2.227921 0,1.106412 -0.11393,2.000051 -0.34181,2.680918 -0.22787,0.678125 -0.56968,1.203873 -1.02542,1.577253 -0.45025,0.370634 -1.01993,0.555951 -1.70903,0.555951 -0.91149,0 -1.6253,-0.326706 -2.14144,-0.980121 -0.62321,-0.785195 -0.93482,-2.063195 -0.93482,-3.834001 z m 1.19014,0 c 0,1.548426 0.17983,2.579335 0.53948,3.092734 0.36515,0.513398 0.81402,0.770095 1.34664,0.770095 0.52987,0 0.976,-0.258073 1.3384,-0.774213 0.36514,-0.516142 0.54771,-1.54568 0.54771,-3.088616 0,-1.553915 -0.18257,-2.5862 -0.54771,-3.096851 -0.3624,-0.510651 -0.81265,-0.765977 -1.35076,-0.765977 -0.53261,0 -0.95815,0.226499 -1.27662,0.679496 -0.39809,0.573794 -0.59714,1.634906 -0.59714,3.183332 z m 6.13605,0 c 0,-1.114648 0.11394,-2.01103 0.34181,-2.689154 0.23336,-0.683613 0.57517,-1.209366 1.02542,-1.577253 0.453,-0.367887 1.02268,-0.551832 1.70903,-0.551832 0.50791,0 0.95267,0.102954 1.33428,0.308861 0.38162,0.200418 0.69735,0.494179 0.94718,0.881285 0.24709,0.381617 0.44202,0.84834 0.58478,1.400172 0.14002,0.549086 0.21003,1.291729 0.21003,2.227921 0,1.106412 -0.11394,2.000051 -0.34181,2.680918 -0.22513,0.678125 -0.56556,1.203873 -1.02131,1.577253 -0.45025,0.370634 -1.0213,0.555951 -1.71315,0.555951 -0.90599,0 -1.6198,-0.326706 -2.14144,-0.980121 -0.62046,-0.785195 -0.9307,-2.063195 -0.9307,-3.834001 z m 1.19427,0 c 0,1.548426 0.17845,2.579335 0.53536,3.092734 0.36789,0.513398 0.81677,0.770095 1.34663,0.770095 0.53262,0 0.97875,-0.258073 1.3384,-0.774213 0.36515,-0.516142 0.54772,-1.54568 0.54772,-3.088616 0,-1.553915 -0.18257,-2.5862 -0.54772,-3.096851 -0.3569,-0.510651 -0.80716,-0.765977 -1.35075,-0.765977 -0.52987,0 -0.95404,0.226499 -1.27251,0.679496 -0.39809,0.573794 -0.59713,1.634906 -0.59713,3.183332 z"
       id="path7"
       sodipodi:nodetypes="sccscccsccscsscscscscscccscccsccscccscscscscs"
       style="stroke-width:0.411815" /></g><g
     id="g64"
     inkscape:label="Symbols"
     transform="matrix(1.0316977,0,0,0.95827734,-1.0358444,13.982487)"><path
       d="M 12.738858,290.53386 H 169.09887 v 44.49528 H 12.738858 Z"
       style="stroke:#000000;stroke-width:1.98572;stroke-dasharray:none"
       id="path1-09-48"
       inkscape:label="path19" /></g><g
     id="g66"
     inkscape:label="LED"
     transform="matrix(1.0316977,0,0,0.95827734,-1.0358444,13.982487)"><path
       d="M 12.768544,251.61254 H 169.36288 v 34.59872 H 12.768544 Z"
       style="stroke:#000000;stroke-width:2.04509;stroke-dasharray:none"
       id="path1-9"
       inkscape:label="path1-9" /></g><g
     id="g62"
     inkscape:label="Adventure"
     transform="matrix(1.0316977,0,0,0.95827734,-1.0358444,13.982487)"><path
       d="m 99.544426,175.68534 h 69.643284 v 71.12211 H 99.5454 Z"
       style="stroke:#000000;stroke-width:2;stroke-dasharray:none"
       id="path1-0-4-5"
       inkscape:label="path16" /></g><g
     id="g63"
     inkscape:label="Meter"
     transform="matrix(1.0316977,0,0,0.95827734,-1.0358444,13.982487)"><path
       d="M 85.353297,175.68386 H 95.55262 v 71.34726 H 85.35344 Z"
       style="stroke:#000000;stroke-width:1.99722;stroke-dasharray:none"
       id="path1-0-4-6"
       inkscape:label="path18" /><path
       style="fill:#000000;fill-opacity:1;stroke:#000000;stroke-width:2;stroke-linecap:square;stroke-dasharray:none;stroke-dashoffset:0;stroke-opacity:1"
       d="M 84.968718,210.97569 H 92.70736"
       id="path46"
       inkscape:path-effect="#path-effect46"
       inkscape:original-d="m 84.968718,210.97569 c 2.631659,0 5.185151,0 7.738642,0"
       transform="matrix(0.70503292,0,0,1,25.368289,0)" /><path
       style="fill:#000000;fill-opacity:1;stroke:#000000;stroke-width:2;stroke-linecap:square;stroke-dasharray:none;stroke-dashoffset:0;stroke-opacity:1"
       d="M 84.968718,210.97569 H 92.70736"
       id="path46-2"
       inkscape:path-effect="#path-effect46-2"
       inkscape:original-d="m 84.968718,210.97569 c 2.631659,0 5.185151,0 7.738642,0"
       transform="matrix(0.48898076,0,0,1,43.532913,-18.266033)" /><path
       style="fill:#000000;fill-opacity:1;stroke:#000000;stroke-width:0.953811;stroke-linecap:square;stroke-dasharray:none;stroke-dashoffset:0;stroke-opacity:1"
       d="M 84.968718,210.97569 H 92.70736"
       id="path46-2-0"
       inkscape:path-effect="#path-effect46-2-6"
       inkscape:original-d="m 84.968718,210.97569 c 2.631659,0 5.185151,0 7.738642,0"
       transform="matrix(1.1818612,0,0,1,-14.690612,-12.582095)" /><path
       style="fill:#000000;fill-opacity:1;stroke:#000000;stroke-width:0.953811;stroke-linecap:square;stroke-dasharray:none;stroke-dashoffset:0;stroke-opacity:1"
       d="M 84.968718,210.97569 H 92.70736"
       id="path46-2-0-5"
       inkscape:path-effect="#path-effect46-2-6-6"
       inkscape:original-d="m 84.968718,210.97569 c 2.631659,0 5.185151,0 7.738642,0"
       transform="matrix(1.1818612,0,0,1,-14.844168,11.795307)" /><path
       style="fill:#000000;fill-opacity:1;stroke:#000000;stroke-width:2;stroke-linecap:square;stroke-dasharray:none;stroke-dashoffset:0;stroke-opacity:1"
       d="M 84.968718,210.97569 H 92.70736"
       id="path46-2-8"
       inkscape:path-effect="#path-effect46-2-7"
       inkscape:original-d="m 84.968718,210.97569 c 2.631659,0 5.185151,0 7.738642,0"
       transform="matrix(0.48897988,0,0,1,43.532987,17.887277)" /></g><g
     id="g61"
     inkscape:label="Button"
     transform="matrix(1.0316977,0,0,0.95827734,-1.0358444,13.982487)"><path
       d="m 12.745912,175.68534 h 68.409966 v 71.13949 h -68.40901 z"
       style="stroke:#000000;stroke-width:2;stroke-dasharray:none"
       id="path1-0-4"
       inkscape:label="path16" /></g><g
     id="g1"
     inkscape:label="Wires"
     transform="matrix(1.0316977,0,0,0.95827734,-1.0358444,13.982487)"><path
       d="M 12.74602,61.007 H 168.52926 V 170.34072 H 12.748198 Z"
       style="stroke:#000000;stroke-width:2;stroke-dasharray:none"
       id="path1-0"
       inkscape:label="path15" /></g><g
     id="g59"
     inkscape:label="Component Selector"><path
       style="line-height:1.25;-inkscape-font-specification:'Myriad Pro';stroke-width:0.973735"
       d="m 137.54657,20.106172 c -3.37083,0 -5.44234,1.760299 -5.44234,4.085562 0,1.981166 1.58039,3.234325 3.96998,4.043854 1.72842,0.565912 2.41059,1.052198 2.41059,1.90154 0,0.889154 -0.79019,1.474973 -2.28356,1.474973 -1.38734,0 -2.75368,-0.424671 -3.60689,-0.849342 l -0.66016,2.529067 c 0.8102,0.424671 2.4326,0.849342 4.075,0.849342 3.94797,0 5.78242,-1.941353 5.78242,-4.226803 0,-1.920499 -1.17228,-3.175553 -3.71091,-4.065656 -1.87846,-0.66734 -2.66866,-1.050302 -2.66866,-1.91955 0,-0.688195 0.68317,-1.314774 2.09152,-1.314774 1.38734,0 2.4326,0.382962 2.98773,0.646486 l 0.72418,-2.466504 c -0.85321,-0.38391 -2.0255,-0.688195 -3.6689,-0.688195 z m -24.7731,0.101429 c -1.75043,0 -3.2858,0.121334 -4.33106,0.303336 v 13.426427 h 3.22079 v -5.357679 h 0.96024 c 1.34333,0.01991 1.96348,0.464484 2.36858,2.183074 0.4061,1.677829 0.76819,2.770788 0.98124,3.175553 h 3.32882 c -0.27707,-0.526099 -0.70417,-2.305357 -1.15228,-3.8628 -0.36309,-1.254106 -0.91823,-2.142313 -1.92047,-2.527171 v -0.06067 c 1.2373,-0.424671 2.53962,-1.61811 2.53962,-3.3367 0,-1.254107 -0.47011,-2.203929 -1.34433,-2.851362 -1.02425,-0.788675 -2.51762,-1.092011 -4.65115,-1.092011 z m -30.46849,0.09953 3.41484,13.631179 h 3.562876 l 1.366336,-5.843965 c 0.340084,-1.395348 0.576142,-2.689267 0.832205,-4.226803 h 0.04301 c 0.170042,1.557442 0.404099,2.831455 0.681167,4.206896 l 1.2173,5.862924 h 3.520866 l 3.71291,-13.630231 h -3.306811 l -1.174288,5.562431 c -0.299074,1.638016 -0.619153,3.235272 -0.832205,4.751954 h -0.04301 a 86.413252,81.893241 0 0 0 -0.768189,-4.569002 l -1.152283,-5.744433 h -3.45585 l -1.217299,5.561483 c -0.362089,1.698684 -0.705174,3.3367 -0.940232,4.834423 h -0.04201 a 210.25171,199.25409 0 0 0 -0.852209,-4.793662 l -1.088268,-5.602244 z m 20.07294,0 V 33.93831 h 3.2428 V 20.307133 Z m 18.75461,0 V 33.93831 h 9.15525 v -2.528119 h -5.91145 V 28.17397 h 5.2913 v -2.506316 h -5.2913 V 22.8362 h 5.61138 v -2.529067 z m -7.99597,2.205824 c 1.49337,0 2.38959,0.647434 2.38959,1.880686 0,1.193439 -0.96124,1.960311 -2.58263,1.960311 h -1.28032 v -3.739569 c 0.23506,-0.06067 0.68417,-0.101428 1.47336,-0.101428 z"
       font-size="21.333px"
       font-family="'Myriad Pro'"
       aria-label="WIRES"
       font-weight="400"
       letter-spacing="0"
       word-spacing="0"
       fill="#000000"
       id="path8" /><path
       d="M 12.008838,11.889443 H 213.45165 V 43.46047 H 12.008838 Z"
       style="display:inline;stroke:#000000;stroke-width:2.17737;stroke-dasharray:none"
       id="path1-6"
       inkscape:label="path14" /><path
       style="line-height:1.25;-inkscape-font-specification:'Myriad Pro';display:inline"
       d="m 358.88567,-4.9660945 -8.827,8.8810001 8.828,8.8029994 8.828,-8.8029994 z m -10.702,10.6000001 -8.828,8.8279994 8.828,8.828 8.828,-8.828 z m 21.328,0.025 -8.854,8.8029994 8.854,8.88 8.803,-8.88 z m -10.626,10.6779994 -8.828,8.828 8.828,8.828 8.828,-8.828 z"
       font-family="'Myriad Pro'"
       aria-label="❖"
       font-weight="400"
       font-size="53.333px"
       letter-spacing="0"
       word-spacing="0"
       fill="#000000"
       id="path12-6"
       sodipodi:nodetypes="cccccccccccccccccccc"
       inkscape:label="path12-6"
       transform="translate(-113.73437,25.119504)" /><path
       d="m 331.94031,-13.154896 h 53.19972 v 55.377158 h -53.19972 z"
       stroke="#000000"
       stroke-width="1.97729"
       id="path4-9"
       style="display:inline"
       sodipodi:nodetypes="ccccc"
       transform="translate(-113.73437,25.119504)" /><path
       style="line-height:1.25;-inkscape-font-specification:'Myriad Pro'"
       d="m 195.11804,52.162455 v 2.26 l 7.938,3.392 v 0.043 l -7.938,3.393 v 2.24 l 10.262,-4.672 v -1.963 z"
       font-size="21.333px"
       font-family="'Myriad Pro'"
       aria-label="&gt;"
       font-weight="400"
       letter-spacing="0"
       word-spacing="0"
       fill="#000000"
       id="path10-0"
       sodipodi:nodetypes="ccccccccc" /><path
       style="line-height:1.25;-inkscape-font-specification:'Myriad Pro';stroke-width:0.789446"
       d="m 115.99133,51.099379 -6.42215,6.448197 6.42215,6.447407 6.43082,-6.446618 z"
       font-size="21.333px"
       font-family="'Myriad Pro'"
       aria-label="◆"
       font-weight="400"
       letter-spacing="0"
       word-spacing="0"
       fill="#000000"
       id="path11"
       sodipodi:nodetypes="ccccc" /><path
       style="line-height:1.25;-inkscape-font-specification:'Myriad Pro'"
       d="m 28.07575,51.948689 -10.26,4.758 v 1.834 l 10.26,4.736 v -2.262 l -7.764,-3.37 v -0.042 l 7.764,-3.392 z"
       font-size="21.333px"
       font-family="'Myriad Pro'"
       aria-label="&lt;"
       font-weight="400"
       letter-spacing="0"
       word-spacing="0"
       fill="#000000"
       id="path9-3"
       sodipodi:nodetypes="ccccccccc" /><path
       d="M 46.92419,47.756585 H 179.70615 V 67.878879 H 46.92545 Z"
       stroke="#000000"
       stroke-width="1.98991"
       id="path3"
       style="display:inline"
       sodipodi:nodetypes="ccccc" /><path
       d="m 11.71414,47.755179 h 28.30705 v 20.181714 h -28.3058 z m 173.47564,0 h 28.30829 v 20.181714 h -28.30829 z"
       stroke-width="1.91149"
       stroke="#000000"
       id="path2-1"
       style="display:inline"
       sodipodi:nodetypes="cccccccccc" /></g></svg>
