<svg xmlns="http://www.w3.org/2000/svg" xml:space="preserve" fill="none" viewBox="0 0 348 348"><g stroke="#000"><path stroke-width="2.03" d="M5.94 7.07h336.99v335.11H5.94z"/><path stroke-width="2" d="M282.73 40.55c0-8.37 6.97-15.16 15.56-15.16 4.13 0 8.09 1.6 11 4.44a14.97 14.97 0 0 1 4.56 10.72c0 8.38-6.96 15.17-15.56 15.17-8.59 0-15.56-6.8-15.56-15.17z"/></g><path stroke="#000" stroke-width="1.99" d="M172.7 290.54h162.64v44.49H172.7Z" transform="matrix(.98 0 0 .96 9.14 13.94)"/><path stroke="#000" stroke-width="2.01" d="M172.71 204.22h162.52v82.27H172.7Z" transform="matrix(.98 0 0 .96 9.14 13.94)"/><path stroke="#000" stroke-linecap="round" stroke-width="2" d="M276.53 95.19h58.88v105.1h-58.88z" transform="matrix(.98 0 0 .96 9.14 13.94)"/><g stroke="#000"><path stroke-width=".56" d="M323.97 131.26c0 10.66-7.73 21.95-17.25 21.95-9.53 0-17.25-11.29-17.25-21.95 0-10.67 7.72-16.67 17.25-16.67 9.52 0 17.25 6 17.25 16.67z"/><path fill="#000" stroke-width=".94" d="M297.16 117.26c12.13-13.1 24.37 5.7 31.18 11.1-14.83 3.56-25.75-2-31.18-11.1zm0 0c-8.02 2.01-9.93 8.83-7.44 15.35 5.64-5.05 7.37-8.69 7.44-15.35zm-4.86 13.23 2.13 10.87-2 1.18-2.71-9.93"/><path fill="#000" stroke-width=".94" d="m323.62 127.36-2.25 2.48-2 10.82 2 1.18c1.16-3.23 1.81-7.23 2.47-10.58"/></g><path fill="#000" d="M296.23 172.11a.46.46 0 0 0-.16-.64l-.04-.05a1.94 1.94 0 0 1-.25-.43 7 7 0 0 1-.44-2.76c0-1.49.24-2.34.45-2.81l-.01.01.15-.28a.86.86 0 0 1 .22-.28c.16-.14.22-.42.08-.61l-.21-.32c-.17-.27-.5-.3-.73-.07l-.2.17c-.17.16-.35.43-.49.77l.02-.02a8.3 8.3 0 0 0-.6 3.44c0 1.41.18 2.55.6 3.37h-.02c.16.35.35.62.54.78l.16.15c.24.24.59.2.76-.11zm4.85-7.93a.49.49 0 0 0-.48-.48h-.37a.48.48 0 0 0-.48.48v8.04c0 .27.21.48.48.48h.37c.26 0 .48-.21.48-.48zm.86.36c0 .27.21.48.48.48h1.08v7.19c0 .26.21.48.48.48h.36c.27 0 .48-.22.48-.48v-7.19h1.1c.26 0 .48-.21.48-.48v-.38a.48.48 0 0 0-.48-.48h-3.5a.48.48 0 0 0-.48.48zm5.87-.84a.48.48 0 0 0-.48.48v8.04c0 .27.22.48.48.48h2.89c.27 0 .48-.21.48-.48v-.36a.48.48 0 0 0-.48-.48h-2.04v-2.53h1.68c.27 0 .48-.21.48-.48v-.36a.48.48 0 0 0-.48-.48h-1.68v-2.51h2.04c.27 0 .48-.21.48-.48v-.36a.48.48 0 0 0-.48-.48zm6.76 9c.2 0 .42-.17.47-.39l.44-2.96v2.87c0 .27.21.48.48.48h.38c.26 0 .48-.21.48-.48v-8.04a.48.48 0 0 0-.48-.48h-.4c-.2 0-.43.17-.47.37l-1.04 5.38-1.06-5.38a.5.5 0 0 0-.45-.37h-.4a.48.48 0 0 0-.48.48v8.04c0 .27.2.48.48.48h.37c.25 0 .48-.21.48-.48v-2.9l.46 3c.04.2.25.38.45.38zm7.4-.35v.02c.15-.15.32-.4.5-.78a8 8 0 0 0 .6-3.42c0-1.41-.19-2.55-.59-3.38a2.5 2.5 0 0 0-.5-.77l-.22-.19c-.24-.2-.58-.13-.74.15l-.18.32c-.1.16-.06.43.08.56l.08.07.08.06c.04.06.12.19.22.42v-.02c.1.2.2.55.29.98.08.44.14 1.05.14 1.8a6.9 6.9 0 0 1-.44 2.8l-.15.27c-.09.15-.17.24-.24.3a.52.52 0 0 0-.08.56l.2.32c.18.3.53.35.77.1z" aria-label="( Item )"/><path fill="#000" d="M286.4 189.76a.46.46 0 0 0-.15-.64c0-.02-.03-.03-.04-.06a1.94 1.94 0 0 1-.26-.43 7 7 0 0 1-.44-2.76c0-1.48.24-2.34.46-2.8h-.02l.15-.27a.86.86 0 0 1 .23-.28c.16-.15.21-.43.08-.62l-.22-.32c-.17-.27-.5-.3-.73-.06l-.2.17c-.16.16-.35.43-.48.76l.01-.01a8.2 8.2 0 0 0-.6 3.43c0 1.42.19 2.55.6 3.38l-.01-.01c.16.36.35.62.53.78l.16.15c.24.24.6.2.76-.1zm7.29-.26a.48.48 0 0 0-.48-.48h-2v-7.2a.48.48 0 0 0-.46-.48h-.39a.48.48 0 0 0-.48.48v8.04c0 .27.21.48.48.48h2.85c.26 0 .48-.21.48-.48zm.76-1.77c0 1.05.3 1.67.7 2.08.45.43 1 .53 1.49.53.5 0 1.05-.1 1.5-.53.4-.41.69-1.03.69-2.08v-3.78c0-1.7-.72-2.6-2.2-2.6-1.45 0-2.18.91-2.18 2.6zm1.33-3.78c0-.87.27-1.29.86-1.29.57 0 .85.4.85 1.29v3.78c0 .9-.29 1.3-.85 1.3-.58 0-.86-.42-.86-1.3zm4.06 3.78c0 1.05.3 1.67.71 2.08.44.43 1 .53 1.5.53.48 0 1.04-.1 1.48-.53.42-.41.7-1.03.7-2.08v-.2a.48.48 0 0 0-.47-.47h-.39a.48.48 0 0 0-.48.48v.19c0 .48-.07.84-.23 1.05a.87.87 0 0 1-.61.24c-.58 0-.86-.4-.86-1.3v-3.77c0-.9.3-1.29.86-1.29.55 0 .84.4.84 1.29v.18c0 .27.21.48.48.48h.39c.25 0 .47-.21.47-.48v-.18c0-1.02-.28-1.69-.71-2.09-.44-.4-.98-.52-1.47-.52-.5 0-1.04.12-1.48.52-.43.4-.73 1.07-.73 2.09zm8.93 2.24c.05.2.26.37.46.37h.4c.31 0 .53-.28.46-.58l-1.84-8.04c-.04-.2-.27-.38-.47-.38h-.3c-.2 0-.4.18-.46.38l-1.22 5.22-.64 2.83c-.07.3.15.57.47.57h.39c.2 0 .41-.17.46-.37l.47-2.08h1.36zm-1.14-5.54c.26 1.13.23 1.5.38 2.13h-.75zm2.03-2.25c0 .27.22.48.48.48h1.08v7.19c0 .27.22.48.49.48h.36c.26 0 .48-.21.48-.48v-7.19h1.1c.26 0 .47-.21.47-.48v-.37a.48.48 0 0 0-.48-.48h-3.5a.48.48 0 0 0-.48.48zm6.7-.36a.49.49 0 0 0-.49-.48h-.37a.48.48 0 0 0-.48.48v8.04c0 .27.21.48.48.48h.37c.26 0 .48-.21.48-.48zm.9 5.9c0 1.06.3 1.68.71 2.09.44.43 1 .53 1.48.53.5 0 1.06-.1 1.5-.53.41-.41.7-1.03.7-2.08v-3.78c0-1.7-.73-2.6-2.2-2.6-1.45 0-2.19.91-2.19 2.6zm1.34-3.77c0-.87.27-1.29.85-1.29s.86.4.86 1.29v3.78c0 .9-.3 1.3-.86 1.3-.57 0-.85-.42-.85-1.3zm8.03 6.4c.26 0 .48-.22.48-.49v-8.04a.48.48 0 0 0-.48-.48h-.38a.48.48 0 0 0-.48.48v4.41l-1.86-4.6c-.05-.14-.26-.29-.44-.29h-.32a.49.49 0 0 0-.48.48v8.04c0 .27.23.48.48.48h.39c.25 0 .48-.21.48-.48v-4.4l1.86 4.59c.05.15.28.3.44.3zm5.53-.35v.01c.14-.15.32-.4.49-.77a8 8 0 0 0 .6-3.42c0-1.42-.19-2.55-.59-3.38a2.5 2.5 0 0 0-.5-.78l-.22-.18c-.24-.2-.57-.14-.73.14l-.19.32c-.1.16-.05.43.08.56l.08.07.08.07c.04.05.12.18.23.41v-.01c.1.2.2.55.28.97.08.44.14 1.06.14 1.8a6.9 6.9 0 0 1-.44 2.8l-.14.28c-.1.15-.18.24-.24.3-.14.13-.18.4-.08.55l.2.32c.17.31.52.35.76.11z" aria-label="( Location )"/><path fill="#000" d="M327.86 199.9q0-1.19.84-2.03.85-.84 2.04-.84t2.03.84q.84.84.84 2.04 0 1.18-.84 2.02-.84.85-2.03.85-1.2 0-2.04-.85-.84-.84-.84-2.02z" aria-label="●"/><path stroke="#000" stroke-width="2.01" d="M172.71 117.6h98.53v82.8H172.7z" transform="matrix(.98 0 0 .96 9.14 13.94)"/><path stroke="#000" stroke-width="2.13" d="M222.44 95.25h48.73v18.31h-48.73z" transform="matrix(.98 0 0 .96 9.14 13.94)"/><path stroke="#000" stroke-width="2.03" d="M172.72 95.2h44.14v18.41h-44.14z" transform="matrix(.98 0 0 .96 9.14 13.94)"/><path fill="#000" fill-rule="evenodd" d="M188.76 107.82h2.95v12.47h-2.95z"/><path fill="#000" stroke="#000" stroke-linecap="square" stroke-linejoin="round" stroke-miterlimit="10" stroke-width=".49" d="M184 97.96h3.14v13H184z" transform="matrix(.94 0 0 .96 15.72 13.92)"/><path fill="#000" fill-rule="evenodd" d="M208.61 107.82h2.95v12.47h-2.95z"/><path fill="#000" stroke="#000" stroke-linecap="square" stroke-linejoin="round" stroke-miterlimit="10" stroke-width=".49" d="M205.1 97.96h3.15v13h-3.14z" transform="matrix(.94 0 0 .96 15.72 13.92)"/><path d="M191.2 109.54h17.41v9.41H191.2z"/><path stroke="#000" stroke-linecap="square" stroke-linejoin="round" stroke-miterlimit="10" stroke-width=".49" d="M186.6 99.75h18.51v9.82H186.6z" transform="matrix(.94 0 0 .96 15.72 13.92)"/><path d="M211.56 110.51h1.87c1.03 0 1.86 1.59 1.86 3.54 0 1.96-.83 3.55-1.86 3.55h-1.87z"/><path fill="#000" stroke="#000" stroke-linecap="square" stroke-linejoin="round" stroke-miterlimit="10" stroke-width=".49" d="M208.25 100.76h1.98v0c1.1 0 1.98 1.66 1.98 3.7s-.88 3.7-1.98 3.7h-1.98z" transform="matrix(.94 0 0 .96 15.72 13.92)"/><path fill="#000" fill-rule="evenodd" d="M188.58 117.6h-1.86c-1.03 0-1.87-1.59-1.87-3.55 0-1.95.84-3.54 1.87-3.54h1.86z"/><path fill="#000" stroke="#000" stroke-linecap="square" stroke-linejoin="round" stroke-miterlimit="10" stroke-width=".49" d="M183.8 108.16h-1.97v0c-1.1 0-1.98-1.66-1.98-3.7s.88-3.7 1.98-3.7h1.98z" transform="matrix(.94 0 0 .96 15.72 13.92)"/><path stroke="#000" stroke-width="2.04" d="M172.73 61.03h169.52v30.11H172.73Z" transform="matrix(.94 0 0 .96 15.72 13.92)"/><path fill="#000" d="M318.08 77.87h14.49v18.55h-14.5z"/><path fill="#fff" d="M322.57 87.29c0-1.07.1-1.93.32-2.58.22-.66.54-1.16.96-1.51.43-.36.97-.53 1.61-.53.48 0 .9.1 1.26.3.36.19.65.47.89.84.23.36.41.81.55 1.34.13.53.2 1.24.2 2.14 0 1.06-.11 1.91-.33 2.57a3.2 3.2 0 0 1-.96 1.5c-.42.36-.96.54-1.6.54-.86 0-1.53-.31-2.02-.94-.59-.75-.88-1.98-.88-3.67zm1.12 0c0 1.48.17 2.47.5 2.96.35.5.77.74 1.27.74s.92-.25 1.26-.74c.34-.5.52-1.48.52-2.96 0-1.5-.18-2.48-.52-2.97-.34-.5-.76-.74-1.27-.74-.5 0-.9.22-1.2.66-.37.55-.56 1.56-.56 3.05z"/><path fill="#000" d="M235.46 78.17h77.95v17.95h-77.95z"/><path stroke="#000" stroke-linejoin="round" stroke-width=".63" d="M233.66 67.02h82.89v18.73h-82.9z" transform="matrix(.94 0 0 .96 15.72 13.92)"/><path fill="#fff" d="M248.21 92.13V82.8h1.95v.75h-1.07v7.85h1.07v.74zm5.66-2.03v-7.3h2.47q.84 0 1.28.1.62.14 1.05.52.57.49.85 1.25t.28 1.74q0 .83-.19 1.47-.19.65-.49 1.07-.3.42-.65.67-.35.23-.86.36-.5.12-1.15.12zm.95-.86h1.53q.71 0 1.12-.13.4-.14.64-.38.34-.35.52-.92.2-.59.2-1.42 0-1.14-.38-1.76-.36-.62-.9-.82-.37-.15-1.22-.15h-1.5zm6.45.86v-7.3h.95v7.3h-.95zm2.3-2.35.9-.08q.06.55.29.9.23.36.72.58.5.21 1.1.21.55 0 .96-.16.42-.17.62-.45.2-.3.2-.63 0-.35-.2-.6-.19-.26-.64-.43-.29-.12-1.27-.36-1-.24-1.39-.46-.51-.27-.77-.67-.25-.41-.25-.92 0-.55.31-1.03t.9-.73q.6-.25 1.32-.25.8 0 1.4.26.61.26.94.77.33.51.35 1.15l-.9.07q-.08-.7-.5-1.04-.43-.36-1.25-.36-.86 0-1.26.33-.4.31-.4.77 0 .4.29.65.27.25 1.43.52 1.16.26 1.59.46.62.3.92.75.3.45.3 1.04 0 .58-.33 1.1-.33.51-.94.8-.61.29-1.38.29-.98 0-1.64-.3-.65-.28-1.03-.86-.37-.58-.39-1.32zm7 2.35v-7.3h2.71q.72 0 1.1.06.52.1.88.35.35.25.57.7.22.45.22 1 0 .93-.58 1.58-.58.64-2.1.64h-1.84v2.97zm.96-3.83h1.85q.92 0 1.3-.35.4-.35.4-.98 0-.46-.24-.79-.22-.32-.6-.43-.23-.06-.88-.06h-1.83zm5.69 3.83v-7.3h.95v6.44h3.53v.86zm4.82 0 2.76-7.3h1.02l2.94 7.3h-1.09l-.83-2.21h-3l-.79 2.21h-1zm2.07-3h2.43l-.74-2.02q-.35-.93-.51-1.52-.14.7-.39 1.4l-.79 2.14zm7.42 3V87l-2.76-4.2h1.15l1.42 2.2q.39.62.73 1.23.32-.57.78-1.29l1.39-2.15h1.1l-2.86 4.22v3.1zm8.81 2.03h-1.94v-.74h1.06v-7.85h-1.06v-.75h1.94v9.34z"/><path fill="#000" d="M183.65 77.87h47.25v18.55h-47.25z"/><path fill="#f9f9f9" d="M187.43 87.48q0-1.88.38-3.02.39-1.15 1.15-1.77.76-.62 1.92-.62.85 0 1.5.35.64.34 1.06.99.42.64.65 1.57.24.93.24 2.5 0 1.87-.38 3.01-.38 1.15-1.15 1.77-.76.63-1.92.63-1.53 0-2.4-1.1-1.05-1.32-1.05-4.3zm1.33 0q0 2.61.61 3.48.61.86 1.51.86t1.5-.87q.62-.87.62-3.47 0-2.61-.62-3.47-.6-.86-1.51-.86-.9 0-1.43.76-.68.96-.68 3.57zm6.9 0q0-1.88.38-3.02.39-1.15 1.15-1.77.76-.62 1.92-.62.85 0 1.5.35.64.34 1.05.99.42.64.66 1.57.24.93.24 2.5 0 1.87-.38 3.01-.39 1.15-1.15 1.77-.76.63-1.92.63-1.53 0-2.4-1.1-1.06-1.32-1.06-4.3zm1.33 0q0 2.61.6 3.48.62.86 1.52.86t1.5-.87q.61-.87.61-3.47 0-2.61-.61-3.47-.6-.86-1.52-.86-.9 0-1.43.76-.67.96-.67 3.57zm6.9 0q0-1.88.38-3.02.39-1.15 1.14-1.77.77-.62 1.93-.62.85 0 1.49.35.64.34 1.06.99.42.64.66 1.57.24.93.24 2.5 0 1.87-.38 3.01-.39 1.15-1.15 1.77-.76.63-1.92.63-1.54 0-2.41-1.1-1.05-1.32-1.05-4.3zm1.33 0q0 2.61.6 3.48.62.86 1.52.86t1.5-.87q.61-.87.61-3.47 0-2.61-.61-3.47-.6-.86-1.52-.86-.9 0-1.43.76-.67.96-.67 3.57zm6.89 0q0-1.88.38-3.02.4-1.15 1.15-1.77.77-.62 1.92-.62.86 0 1.5.35.64.34 1.06.99.42.64.66 1.57.24.93.24 2.5 0 1.87-.39 3.01-.38 1.15-1.15 1.77-.75.63-1.92.63-1.53 0-2.4-1.1-1.05-1.32-1.05-4.3zm1.34 0q0 2.61.6 3.48.62.86 1.51.86.9 0 1.5-.87.62-.87.62-3.47 0-2.61-.61-3.47-.61-.86-1.52-.86-.9 0-1.43.76-.67.96-.67 3.57zm6.89 0q0-1.88.38-3.02.39-1.15 1.15-1.77.76-.62 1.92-.62.85 0 1.5.35.64.34 1.06.99.42.64.65 1.57.24.93.24 2.5 0 1.87-.38 3.01-.38 1.15-1.15 1.77-.76.63-1.92.63-1.53 0-2.4-1.1-1.05-1.32-1.05-4.3zm1.33 0q0 2.61.61 3.48.61.86 1.51.86t1.5-.87q.62-.87.62-3.47 0-2.61-.62-3.47-.6-.86-1.51-.86-.9 0-1.43.76-.68.96-.68 3.57z" aria-label="0"/><path stroke="#000" stroke-width="1.99" d="M12.74 290.53H169.1v44.5H12.74Z" transform="matrix(1.03 0 0 .96 -1.04 13.98)"/><path stroke="#000" stroke-width="2.05" d="M12.77 251.61h156.6v34.6H12.76Z" transform="matrix(1.03 0 0 .96 -1.04 13.98)"/><g stroke="#000"><g transform="matrix(1.03 0 0 .96 -.41 11.48)"><path stroke-width="1.76" d="M109.48 188.66h42.73v17.79h-42.73z" transform="matrix(.95 0 0 1 9.87 -.04)"/><path stroke-width="2" d="M120.45 188.7v17.53m6.65-17.53v17.53m6.63-17.53v17.53m15.92-17.53v17.53"/><path stroke-width="1.01" d="M116.4 203.74h-8.73m59.3-.11h-8.73" transform="matrix(.97 0 0 1.04 1 -14.6)"/><ellipse cx="105.55" cy="197.96" fill="#000" stroke-width="1.01" rx="1.13" ry="1.33"/><ellipse cx="163.25" cy="197.96" fill="#000" stroke-width="1.01" rx="1.13" ry="1.33"/><path fill="#000" stroke-width=".15" d="M106.92 195.16c.05.2.25.36.44.36h.37c.3 0 .51-.27.45-.57l-1.76-7.79a.49.49 0 0 0-.44-.36h-.28c-.19 0-.4.17-.44.36l-1.16 5.06-.6 2.75c-.07.3.13.55.44.55h.36c.2 0 .4-.17.45-.36l.44-2.02h1.3zm-1.08-5.37c.24 1.1.22 1.45.36 2.07h-.71z" aria-label="A"/><path fill="#000" stroke-width=".15" d="M163.27 195.27c1.41 0 2.04-.83 2.04-2.5 0-.79-.2-1.45-.52-1.86 0 0 .52-.66.52-1.87 0-1.67-.63-2.5-2.04-2.5h-1.19c-.24 0-.43.21-.43.47v7.8c0 .25.2.46.43.46zm0-7.44c.6 0 .83.35.83 1.21 0 .87-.24 1.22-.83 1.22h-.42v-2.43zm0 3.71c.6 0 .83.35.83 1.23 0 .87-.24 1.22-.83 1.22h-.42v-2.45z" aria-label="B"/></g><g transform="matrix(1.03 0 0 .96 -.41 40.24)"><path stroke-width="1.76" d="M109.48 188.66h42.73v17.79h-42.73z" transform="matrix(.95 0 0 1 9.87 -.04)"/><path stroke-width="2" d="M120.77 188.67v17.54m15.64-17.54v17.54m6.75-17.19v17.53m6.81-17.88v17.54"/><path stroke-width="1.01" d="M116.4 203.74h-8.73m59.3-.11h-8.73" transform="matrix(.97 0 0 1.04 1 -14.6)"/><ellipse cx="105.55" cy="197.96" fill="#000" stroke-width="1.01" rx="1.13" ry="1.33"/><ellipse cx="163.25" cy="197.96" fill="#000" stroke-width="1.01" rx="1.13" ry="1.33"/><path fill="#000" stroke-width=".15" d="M103.56 192.77c0 1.02.26 1.62.63 2.02.4.41.9.52 1.35.52.43 0 .94-.1 1.34-.52.37-.4.62-1 .62-2.02v-.18c0-.26-.2-.47-.42-.47h-.35c-.24 0-.43.21-.43.47v.18c0 .47-.06.82-.2 1.02a.75.75 0 0 1-.56.24c-.52 0-.77-.4-.77-1.26v-3.66c0-.87.27-1.25.77-1.25s.76.38.76 1.25v.18c0 .26.2.46.43.46h.35c.23 0 .42-.2.42-.46v-.18c0-.99-.25-1.63-.64-2.02a1.8 1.8 0 0 0-1.32-.5c-.46 0-.94.11-1.33.5-.39.39-.65 1.03-.65 2.02z" aria-label="C"/><path fill="#000" stroke-width=".15" d="M163.28 195.47c1.44 0 2.12-.88 2.12-2.56v-3.6c0-1.68-.68-2.56-2.12-2.56h-1.23c-.24 0-.43.2-.43.46v7.8c0 .25.2.46.43.46zm0-7.44c.64 0 .9.41.9 1.28v3.6c0 .87-.26 1.28-.9 1.28h-.47v-6.16z" aria-label="D"/></g><path stroke-width="2" d="M99.54 175.69h69.65v71.12H99.55Z" transform="matrix(1.03 0 0 .96 -1.04 13.98)"/></g><g stroke="#000"><path stroke-width="2" d="M85.35 175.68h10.2v71.35h-10.2Z" transform="matrix(1.03 0 0 .96 -1.04 13.98)"/><path fill="#000" stroke-linecap="square" stroke-width="2" d="M84.97 210.98h7.74" transform="matrix(.73 0 0 .96 25.14 13.98)"/><path fill="#000" stroke-linecap="square" stroke-width="2" d="M84.97 210.98h7.74" transform="matrix(.5 0 0 .96 43.88 -3.52)"/><path fill="#000" stroke-linecap="square" stroke-width=".95" d="M84.97 210.98h7.74" transform="matrix(1.22 0 0 .96 -16.2 1.93)"/><path fill="#000" stroke-linecap="square" stroke-width=".95" d="M84.97 210.98h7.74" transform="matrix(1.22 0 0 .96 -16.35 25.29)"/><path fill="#000" stroke-linecap="square" stroke-width="2" d="M84.97 210.98h7.74" transform="matrix(.5 0 0 .96 43.88 31.12)"/></g><path stroke="#000" stroke-width="2" d="M12.75 175.69h68.4v71.13h-68.4zm0-114.69h155.78v109.34H12.75Z" transform="matrix(1.03 0 0 .96 -1.04 13.98)"/><path fill="#000" d="M137.55 20.1c-3.37 0-5.45 1.77-5.45 4.1 0 1.97 1.58 3.23 3.97 4.04 1.73.56 2.41 1.05 2.41 1.9 0 .89-.79 1.47-2.28 1.47a8.58 8.58 0 0 1-3.6-.85l-.67 2.53a9.8 9.8 0 0 0 4.08.85c3.95 0 5.78-1.94 5.78-4.23 0-1.92-1.17-3.17-3.7-4.06-1.89-.67-2.68-1.05-2.68-1.92 0-.69.69-1.32 2.1-1.32 1.38 0 2.43.39 2.98.65l.73-2.47a8.8 8.8 0 0 0-3.67-.68zm-24.78.1c-1.75 0-3.28.13-4.33.31v13.43h3.22v-5.36h.96c1.35.02 1.97.46 2.37 2.18.4 1.68.77 2.77.98 3.18h3.33c-.27-.53-.7-2.3-1.15-3.86-.36-1.26-.92-2.15-1.92-2.53v-.06c1.24-.43 2.54-1.62 2.54-3.34 0-1.25-.47-2.2-1.35-2.85-1.02-.79-2.51-1.1-4.65-1.1zm-30.47.1 3.42 13.64h3.56l1.37-5.85c.34-1.4.58-2.68.83-4.22h.04c.17 1.55.4 2.83.69 4.2l1.21 5.87h3.52l3.72-13.63h-3.31l-1.17 5.56c-.3 1.64-.62 3.23-.84 4.75h-.04a86.41 81.9 0 0 0-.77-4.57l-1.15-5.74h-3.46l-1.21 5.56c-.37 1.7-.7 3.34-.94 4.83h-.05a210.25 199.25 0 0 0-.85-4.79l-1.09-5.6zm20.08 0v13.64h3.24V20.3Zm18.75 0v13.64h9.16V31.4h-5.91v-3.24h5.29v-2.5h-5.3v-2.83H130V20.3zm-8 2.21c1.5 0 2.4.65 2.4 1.88 0 1.2-.97 1.96-2.59 1.96h-1.28v-3.74c.24-.06.69-.1 1.48-.1z" aria-label="WIRES"/><path stroke="#000" stroke-width="2.18" d="M12 11.89h201.45v31.57H12.01Z"/><path fill="#000" d="m245.15 20.15-8.83 8.88 8.83 8.8 8.83-8.8zm-10.7 10.6-8.83 8.83 8.83 8.83 8.83-8.83zm21.33.03-8.86 8.8 8.86 8.88 8.8-8.88zm-10.63 10.68-8.83 8.82 8.83 8.83 8.83-8.83z" aria-label="❖"/><path stroke="#000" stroke-width="1.98" d="M218.2 11.96h53.2v55.38h-53.2z"/><path fill="#000" d="M195.12 52.16v2.26l7.94 3.4v.04l-7.94 3.39v2.24l10.26-4.67v-1.96z" aria-label="&gt;"/><path fill="#000" d="m116 51.1-6.43 6.45 6.42 6.44 6.43-6.44z" aria-label="◆"/><path fill="#000" d="M28.08 51.95 17.82 56.7v1.83l10.26 4.74V61l-7.77-3.37v-.04l7.77-3.39z" aria-label="&lt;"/><path stroke="#000" stroke-width="1.99" d="M46.92 47.76h132.79v20.12H46.93Z"/><path stroke="#000" stroke-width="1.91" d="M11.71 47.76h28.31v20.18h-28.3zm173.48 0h28.3v20.18h-28.3z"/></svg>