<?xml version="1.0" encoding="UTF-8" standalone="no"?>
<svg
   width="150"
   height="200"
   viewBox="0 0 39.687 52.917"
   version="1.1"
   id="svg3"
   sodipodi:docname="Cyanix.svg"
   xml:space="preserve"
   inkscape:version="1.3.2 (091e20e, 2023-11-25, custom)"
   xmlns:inkscape="http://www.inkscape.org/namespaces/inkscape"
   xmlns:sodipodi="http://sodipodi.sourceforge.net/DTD/sodipodi-0.dtd"
   xmlns="http://www.w3.org/2000/svg"
   xmlns:svg="http://www.w3.org/2000/svg"><defs
     id="defs3" /><sodipodi:namedview
     id="namedview3"
     pagecolor="#505050"
     bordercolor="#eeeeee"
     borderopacity="1"
     inkscape:showpageshadow="0"
     inkscape:pageopacity="0"
     inkscape:pagecheckerboard="0"
     inkscape:deskcolor="#505050"
     inkscape:zoom="2.8284271"
     inkscape:cx="70.003571"
     inkscape:cy="127.80955"
     inkscape:window-width="1920"
     inkscape:window-height="1001"
     inkscape:window-x="-9"
     inkscape:window-y="-9"
     inkscape:window-maximized="1"
     inkscape:current-layer="svg3"
     showguides="false" /><g
     id="g14"><path
       style="fill:#000000;stroke-width:1.95337"
       d="M 14.309066,42.664977 C 8.3191195,41.537202 2.3082879,38.218674 0.73108422,35.1687 -0.67471305,32.450189 0.04048352,21.693722 2.8043048,18.722248 17.475381,2.948897 38.170954,16.153259 39.570396,28.082903 c 0.460609,3.926511 -0.427093,6.668018 -2.875303,8.879828 -5.432617,4.908043 -14.430688,7.20006 -22.386032,5.702244 z m 11.399592,-1.497728 c 6.833754,-1.611196 12.189178,-5.684335 12.796211,-9.732334 0.423576,-2.824593 -0.01837,-5.038249 -1.616098,-8.094469 C 33.284467,16.445836 25.902478,12.586994 17.36794,13.136157 15.056624,13.284888 12.100539,13.64086 10.97707,14.291733 4.9631176,17.77587 1.0452576,19.37763 1.0261005,30.148829 c -0.00521,2.930965 0.1881235,3.679835 1.2872713,4.986097 4.6067102,5.474765 14.7104452,8.079944 23.3952862,6.032323 z m -1.135857,-4.167634 c -2.048851,-2.048851 -0.185453,-6.569338 3.62956,-8.80508 5.277958,-3.093092 9.718828,-0.426302 7.236129,4.345369 -2.136507,4.106302 -8.576052,6.749347 -10.865689,4.459711 z M 13.580443,33.575322 c -1.628046,-0.786586 -2.340746,-3.119097 -1.374537,-4.498554 1.365639,-1.94972 5.015356,-1.062462 6.419128,1.56051 0.427359,0.798529 0.365164,1.335457 -0.266333,2.299246 -0.892244,1.361736 -2.764027,1.611972 -4.778258,0.638798 z M 23.760085,21.014521 c -0.568819,-0.18053 -1.271457,-0.771536 -1.561421,-1.313337 -0.431056,-0.80544 -0.180608,-1.368721 1.373291,-3.088707 1.045269,-1.156988 2.065858,-1.918967 2.267974,-1.693283 0.472737,0.527867 2.055371,5.292283 2.055371,6.187569 -0.512277,1.659047 -3.115214,0.359591 -4.135215,-0.09224 z"
       id="path12"
       sodipodi:nodetypes="sssssssssccssssssssssssssssssss" /><path
       style="fill:#000000;fill-opacity:1;stroke:none;stroke-width:1.59333;stroke-linecap:round;stroke-linejoin:miter;stroke-dasharray:none;stroke-opacity:1"
       d="M 5.0978235,21.234698 11.482264,17.586446 4.3728501,13.236606 Z"
       id="path13"
       sodipodi:nodetypes="cccc" /><path
       style="fill:none;fill-opacity:1;stroke:#000000;stroke-width:1.06416078;stroke-linecap:round;stroke-linejoin:round;stroke-dasharray:none;stroke-opacity:1"
       d="m 21.265644,23.448846 0.975658,-0.843365 0.843364,1.306388 2.265509,-1.5379 1.273316,1.422144"
       id="path14" /></g></svg>
