<?xml version="1.0" encoding="UTF-8" standalone="no"?>
<svg
   width="150"
   height="200"
   viewBox="0 0 39.687 52.917"
   version="1.1"
   id="svg3"
   sodipodi:docname="GhostSalt.svg"
   xml:space="preserve"
   inkscape:version="1.3.2 (091e20e, 2023-11-25, custom)"
   xmlns:inkscape="http://www.inkscape.org/namespaces/inkscape"
   xmlns:sodipodi="http://sodipodi.sourceforge.net/DTD/sodipodi-0.dtd"
   xmlns="http://www.w3.org/2000/svg"
   xmlns:svg="http://www.w3.org/2000/svg"><defs
     id="defs3" /><sodipodi:namedview
     id="namedview3"
     pagecolor="#505050"
     bordercolor="#eeeeee"
     borderopacity="1"
     inkscape:showpageshadow="0"
     inkscape:pageopacity="0"
     inkscape:pagecheckerboard="0"
     inkscape:deskcolor="#505050"
     inkscape:zoom="2.8284271"
     inkscape:cx="57.275649"
     inkscape:cy="103.06081"
     inkscape:window-width="1920"
     inkscape:window-height="1001"
     inkscape:window-x="-9"
     inkscape:window-y="-9"
     inkscape:window-maximized="1"
     inkscape:current-layer="svg3"
     showguides="false" /><g
     id="g23"><path
       id="path23"
       style="display:inline;fill:#000000;stroke-width:1.0001313;stroke-dasharray:none"
       d="M 22.224765 7.9427177 C 17.377893 7.9534126 14.590743 8.8395302 12.072866 11.169931 C 9.0400654 13.976916 7.1631132 19.252505 7.7428704 23.340324 C 8.1176928 25.983166 8.8250009 27.36876 12.69247 33.035918 C 14.479514 35.654545 14.649401 37.31699 13.28882 38.866606 C 11.032503 41.436409 5.5371811 39.248125 3.2030672 34.850289 C 1.9087701 32.411631 1.885879 34.64414 3.1772288 37.374698 C 3.8827119 38.866442 5.6168639 40.743111 7.1330846 41.655601 C 8.5177369 42.488911 10.729386 43.285048 12.681618 43.652908 C 13.764323 43.856925 15.304296 43.918183 18.156771 43.870984 C 21.640092 43.81334 22.357465 43.743752 24.023116 43.303056 C 27.452095 42.395823 30.350455 40.717785 32.375114 38.147783 C 32.760537 37.658545 33.113766 37.167046 33.451541 36.672928 A 2.9181266 2.9181266 0 0 1 32.898599 36.437282 C 32.780855 36.60129 32.664208 36.766222 32.54358 36.927178 C 31.453094 38.382222 29.922786 39.893636 28.629582 40.72697 C 26.958708 41.803673 25.216299 42.472343 22.884677 42.932017 C 20.484834 43.405143 17.600245 43.55402 14.981751 43.340263 C 9.8666938 42.922705 6.1762644 41.078228 4.1311818 37.916788 C 3.7142767 37.272305 3.3730837 36.67841 3.3730837 36.59748 C 3.3730837 36.51655 3.9758421 37.050948 4.7125453 37.785012 C 7.591022 40.653182 11.292625 41.403259 13.40716 39.546672 C 14.362884 38.707535 14.740937 37.898699 14.740937 36.692565 C 14.740937 35.329701 14.077803 33.93237 12.122476 31.176071 C 9.0559565 26.853397 8.2410687 24.831785 8.2735907 21.62569 C 8.3112237 17.915765 9.7431697 14.374894 12.203608 11.906842 C 14.686507 9.4162586 17.166532 8.5763117 22.125546 8.5473357 C 25.798928 8.5258716 26.908574 8.7490615 29.53961 10.038727 C 33.433709 11.947512 35.626174 16.160683 36.725263 21.44172 C 37.284668 24.129617 36.801433 27.580183 35.948562 30.482052 C 35.866389 30.761644 35.774868 31.038696 35.676742 31.313531 A 2.9181266 2.9181266 0 0 1 36.114961 31.607055 C 36.334478 31.042892 36.543331 30.468875 36.734048 29.872267 C 38.926754 23.012972 36.023411 12.531344 29.692057 9.4485784 C 27.140829 8.206374 25.796037 7.9348377 22.224765 7.9427177 z " /><path
       id="path21"
       style="fill:none;stroke:#000000;stroke-width:0.520772;stroke-linecap:round;stroke-linejoin:round"
       d="M 11.045372,32.897728 A 2.9181266,2.9181266 0 0 1 8.1272449,35.815855 2.9181266,2.9181266 0 0 1 5.2091184,32.897728 2.9181266,2.9181266 0 0 1 8.1272449,29.979601 2.9181266,2.9181266 0 0 1 11.045372,32.897728 Z" /><path
       id="path21-2-2"
       style="stroke-width:0.352787;stroke-linecap:round;stroke-linejoin:round"
       d="m 30.56063,20.791206 a 1.9768308,1.9768308 0 0 1 -1.976831,1.976831 1.9768308,1.9768308 0 0 1 -1.97683,-1.976831 1.9768308,1.9768308 0 0 1 1.97683,-1.97683 1.9768308,1.9768308 0 0 1 1.976831,1.97683 z" /><path
       id="circle21"
       style="stroke-width:0.352787;stroke-linecap:round;stroke-linejoin:round"
       d="m 18.38972,20.791298 a 1.9768308,1.9768308 0 0 1 -1.976831,1.976831 1.9768308,1.9768308 0 0 1 -1.97683,-1.976831 1.9768308,1.9768308 0 0 1 1.97683,-1.976831 1.9768308,1.9768308 0 0 1 1.976831,1.976831 z" /><path
       id="path22"
       style="fill:none;stroke:#000000;stroke-width:0.520772;stroke-linecap:round;stroke-linejoin:round"
       d="m 37.196352,33.874386 a 2.9181266,2.9181266 0 0 1 -2.918127,2.918126 2.9181266,2.9181266 0 0 1 -2.918127,-2.918126 2.9181266,2.9181266 0 0 1 2.918127,-2.918127 2.9181266,2.9181266 0 0 1 2.918127,2.918127 z" /></g></svg>
