<?xml version="1.0" encoding="UTF-8" standalone="no"?>
<svg
   width="150"
   height="200"
   viewBox="0 0 39.687 52.917"
   version="1.1"
   id="svg3"
   sodipodi:docname="Konoko.svg"
   xml:space="preserve"
   inkscape:version="1.3.2 (091e20e, 2023-11-25, custom)"
   xmlns:inkscape="http://www.inkscape.org/namespaces/inkscape"
   xmlns:sodipodi="http://sodipodi.sourceforge.net/DTD/sodipodi-0.dtd"
   xmlns="http://www.w3.org/2000/svg"
   xmlns:svg="http://www.w3.org/2000/svg"><defs
     id="defs3" /><sodipodi:namedview
     id="namedview3"
     pagecolor="#505050"
     bordercolor="#eeeeee"
     borderopacity="1"
     inkscape:showpageshadow="0"
     inkscape:pageopacity="0"
     inkscape:pagecheckerboard="0"
     inkscape:deskcolor="#505050"
     inkscape:zoom="2.8284271"
     inkscape:cx="54.447222"
     inkscape:cy="95.282639"
     inkscape:window-width="1920"
     inkscape:window-height="1001"
     inkscape:window-x="-9"
     inkscape:window-y="-9"
     inkscape:window-maximized="1"
     inkscape:current-layer="svg3"
     showguides="false" /><path
     style="fill:#000000;stroke-width:1.32681"
     d="M 13.322932,49.820294 C 9.9377181,49.47416 7.175015,48.557629 6.0147549,47.395801 4.1452188,45.523739 4.209326,42.251643 6.1466421,40.664158 6.6943949,40.215316 7.5239912,39.810284 7.9031459,39.806583 8.3521381,39.802205 8.1865117,39.609277 7.3296234,39.138541 5.0394374,37.880415 3.5797898,36.370224 2.4295949,34.068838 1.4072641,32.023294 1.0545507,30.651814 1.0515451,28.710472 1.0483571,26.65203 1.6602488,24.107181 2.6988885,21.859181 3.3244919,20.505144 4.3544125,19.151729 5.112682,18.687223 L 5.4479152,18.481862 5.419729,16.546813 C 5.3753133,13.497623 5.6963847,11.746827 6.685125,9.64663 7.7716174,7.3387976 9.2972351,5.406817 10.52409,4.7851223 11.419329,4.3314702 12.372561,4.13097 13.634108,4.13097 c 1.296209,0 2.014319,0.1741061 2.816291,0.6828074 l 0.546615,0.3467247 0.887192,-0.3030463 c 1.169939,-0.3996259 3.054348,-0.5001406 4.158449,-0.2218101 3.070547,0.7740465 4.593865,3.0127655 5.211025,7.6582883 0.103388,0.778174 0.285413,2.008456 0.404516,2.733962 0.176203,1.073323 0.358177,2.518396 0.397221,3.154373 0.0038,0.06309 0.523211,0.150128 1.154086,0.193424 2.722337,0.186833 5.432536,1.475999 6.728518,3.20057 1.131519,1.505719 1.682654,3.117269 1.782422,5.211892 0.152862,3.20935 -1.047652,5.988476 -3.426052,7.931119 -2.176574,1.777795 -5.055493,4.027793 -5.647518,4.413777 -0.860107,0.560766 -1.181632,0.558778 -2.120729,-0.01313 -0.826823,-0.503517 -0.842814,-0.500776 -1.756271,0.301118 -0.463919,0.407258 -1.056557,0.733467 -1.725735,0.949902 -0.509561,0.16481 -0.549165,0.298013 -0.114702,0.385801 0.580146,0.117223 1.261976,0.836751 1.742983,1.839356 1.072968,2.236482 0.869781,4.192853 -0.579822,5.582718 -0.743927,0.713271 -1.530779,1.105157 -2.633061,1.311385 -1.450806,0.27143 -6.648134,0.48227 -8.1366,0.330075 z m 5.629581,-1.805633 c 2.523266,-0.163758 2.962736,-0.270445 3.825855,-0.928779 0.964368,-0.735559 1.13154,-2.154995 0.42753,-3.630115 -0.197835,-0.414525 -0.442448,-0.822359 -0.543586,-0.906294 -0.165716,-0.137533 -0.176139,-0.100956 -0.105485,0.370182 0.07221,0.481549 0.04814,0.557328 -0.305002,0.960503 -0.672234,0.767452 -2.355245,1.397319 -4.467061,1.6718 C 14.865047,45.931444 9.1223731,44.923112 8.4635354,43.915284 8.3584923,43.754597 8.2558652,43.220338 8.2081213,42.585648 8.1548768,41.877817 8.0822474,41.524631 7.9899216,41.524631 c -0.2885976,0 -1.0946181,0.704831 -1.3427559,1.174184 -0.2007314,0.379683 -0.2591327,0.681393 -0.261183,1.349315 -0.00469,1.525769 0.701501,2.410624 2.4673554,3.091608 0.897519,0.346119 2.5638659,0.7274 3.9645059,0.907126 1.182541,0.15174 3.486741,0.139644 6.134664,-0.0322 z m -0.811992,-4.241463 c 0.944858,-0.154432 2.039809,-0.482069 2.480497,-0.742233 0.195592,-0.115471 0.18974,-0.124493 -0.06462,-0.09976 -0.191396,0.01863 -0.321425,-0.05416 -0.41188,-0.230541 l -0.13219,-0.257757 -0.130504,0.286434 c -0.145279,0.318853 -0.561625,0.390196 -0.667468,0.114365 -0.03631,-0.09462 -0.157414,-0.172057 -0.269116,-0.172057 -0.48563,0 -0.617184,-0.714722 -0.143981,-0.782234 0.183259,-0.02615 0.256912,-0.114353 0.256912,-0.307706 0,-0.403941 0.436251,-0.50586 0.695294,-0.162442 l 0.200405,0.265686 0.03965,-0.280907 c 0.02948,-0.208874 0.120528,-0.290214 0.35508,-0.317204 0.173492,-0.01997 0.315439,0.01875 0.315439,0.08603 0,0.06728 0.05161,0.122317 0.114701,0.122317 0.06309,0 0.1147,-0.10422 0.1147,-0.231593 0,-0.180434 -0.05701,-0.219119 -0.258084,-0.175122 -2.34178,0.512417 -6.025469,0.604059 -7.943284,0.197612 -0.630876,-0.133703 -1.52127,-0.370553 -1.978653,-0.526333 L 9.8818101,40.276516 v 1.240871 c 0,1.400765 0.0065,1.413092 0.8742089,1.66339 2.306732,0.665376 5.41323,0.91458 7.384515,0.592388 z m 0.0044,-4.247558 c 3.382822,-0.421247 4.790748,-0.769172 5.448087,-1.346324 l 0.401567,-0.352578 -1.579229,-0.858947 c -2.291927,-1.246583 -3.147033,-1.767648 -4.561545,-2.779603 -1.595722,-1.141597 -1.777918,-1.310509 -1.777918,-1.648291 0,-0.429709 0.417866,-0.879852 0.816764,-0.879852 0.361174,0 1.199979,0.487593 2.202469,1.280279 1.143223,0.903969 3.520348,2.274098 6.87445,3.962298 l 1.692309,0.851783 0.37237,-0.262464 c 1.483001,-1.045297 5.951843,-4.758392 6.349754,-5.275919 1.439113,-1.871719 1.985145,-4.38582 1.47848,-6.807372 -0.239133,-1.142903 -0.954248,-2.527262 -1.680834,-3.253848 -0.722469,-0.72247 -2.250058,-1.512833 -3.595646,-1.860364 -1.091778,-0.281977 -2.801538,-0.328756 -4.07201,-0.111411 -2.467286,0.422089 -6.922118,2.403945 -7.795838,3.468195 -0.162894,0.198415 -0.408755,0.216896 -3.273144,0.246026 l -3.097021,0.0315 -1.076387,0.36595 c -0.592012,0.201272 -1.3082479,0.495539 -1.5916339,0.653926 -0.626013,0.349885 -0.825078,0.358107 -1.2164627,0.05025 -0.2158474,-0.169786 -0.3022303,-0.344385 -0.3022303,-0.61088 0,-0.429249 0.2697077,-0.722357 1.003665,-1.090747 0.268122,-0.134577 0.487494,-0.285592 0.487494,-0.335593 0,-0.04999 -0.135977,-0.371554 -0.302169,-0.71457 -1.2999633,-2.682993 -1.8766354,-7.195763 -1.235661,-9.669363 0.25409,-0.980569 0.669615,-1.738248 1.348711,-2.459274 1.6907329,-1.795128 4.3803159,-2.8887111 6.2643279,-2.5470754 0.392987,0.071265 0.838566,0.1767295 0.990176,0.2343708 0.363287,0.1381222 0.34917,0.069153 -0.115116,-0.5623756 C 15.717582,6.0394368 14.551488,5.6125007 12.818926,5.8580287 11.269854,6.0775512 10.532463,6.6138238 9.3618781,8.372179 8.438599,9.759053 7.80275,11.118381 7.4557917,12.447041 7.2054904,13.405557 7.18652,13.692657 7.1905195,16.461699 c 0.00269,1.868299 0.061082,3.360039 0.1562976,3.993513 0.1497433,0.996247 0.1481113,1.015328 -0.1103306,1.290426 C 6.9119683,22.091071 6.3326579,22.11976 6.0473736,21.804528 5.9377309,21.683335 5.7848873,21.336788 5.7077511,21.034413 L 5.5675037,20.484647 5.0848912,21.123862 c -0.8040219,1.064919 -1.7345233,3.440643 -2.149244,5.487375 -0.2968946,1.465233 -0.192531,3.669398 0.2309059,4.876752 1.3517521,3.854274 3.4337718,5.834023 7.6954069,7.317401 1.02824,0.357907 2.357403,0.680065 3.321257,0.804995 0.827411,0.107246 2.750199,0.06612 3.961662,-0.08475 z M 29.722845,25.988863 c -0.861084,-0.630785 -2.238767,-1.221163 -3.214078,-1.377327 -1.011841,-0.162014 -1.256524,-0.325238 -1.256524,-0.838212 0,-0.708612 0.602029,-1.003532 1.68781,-0.826816 0.87034,0.141651 1.312336,0.294861 2.357974,0.817348 1.597312,0.798148 2.134297,1.515968 1.603412,2.143367 -0.327187,0.386666 -0.724619,0.414197 -1.178594,0.08164 z M 12.570956,22.243599 c 0.521591,-0.08862 1.531212,-0.113743 2.924963,-0.07281 l 2.128431,0.06252 0.430143,-0.29188 0.43014,-0.291881 v -2.653237 c 0,-2.889146 -0.150844,-5.718336 -0.393226,-7.375242 -0.178714,-1.221672 -0.306186,-1.386715 -1.554638,-2.012874 -0.651402,-0.326708 -0.850262,-0.371604 -1.605863,-0.362552 -1.867312,0.02237 -4.244938,1.501325 -4.9401229,3.072905 -0.874137,1.97613 -0.375916,6.663304 0.9988649,9.397145 0.299981,0.596533 0.438742,0.766702 0.588641,0.721881 0.107862,-0.03225 0.554573,-0.119545 0.992667,-0.193983 z M 22.843405,19.46987 c 0.96898,-0.359486 2.205315,-0.729223 3.125697,-0.934766 0.300539,-0.06712 0.315042,-0.101486 0.307063,-0.727811 -0.0046,-0.36155 -0.04848,-0.915449 -0.09749,-1.230888 -0.04902,-0.315437 -0.174479,-1.115501 -0.278792,-1.777918 -0.104318,-0.662419 -0.260697,-1.730716 -0.347523,-2.373994 -0.121523,-0.900389 -0.220444,-1.248753 -0.429744,-1.513489 -0.149534,-0.189139 -0.316045,-0.346746 -0.370027,-0.350236 -0.05397,-0.0035 -0.246944,-0.131554 -0.428809,-0.284583 -0.412053,-0.346719 -1.392616,-0.6394 -2.142165,-0.6394 -0.421534,0 -0.778057,0.104534 -1.374721,0.403019 -1.123627,0.562127 -1.113433,0.542939 -0.959019,1.805167 0.204772,1.673838 0.35648,4.550934 0.356923,6.768881 l 4.07e-4,2.037447 0.774254,-0.388581 C 21.4053,20.048999 22.244076,19.692217 22.843407,19.46987 Z M 20.257046,8.416616 C 21.368,7.8890243 22.373984,7.7861525 23.48401,8.086622 23.894249,8.197675 24.252083,8.266343 24.279193,8.239233 24.390605,8.1278217 23.724347,7.3284702 23.245396,6.9989453 22.59224,6.5495612 21.944946,6.3150785 21.027513,6.1955192 c -0.730186,-0.095159 -1.912925,0.011808 -2.469345,0.223389 l -0.298291,0.1134196 0.440235,0.9103504 c 0.242129,0.5006931 0.468527,1.0185378 0.503107,1.1507668 0.03458,0.13223 0.08815,0.240419 0.119054,0.240419 0.0309,0 0.451549,-0.187757 0.934771,-0.417239 z"
     id="path15" /></svg>
