<?xml version="1.0" encoding="UTF-8" standalone="no"?>
<svg
   width="150"
   height="200"
   viewBox="0 0 39.687 52.917"
   version="1.1"
   id="svg3"
   sodipodi:docname="Red Penguin.svg"
   xml:space="preserve"
   inkscape:version="1.3.2 (091e20e, 2023-11-25, custom)"
   xmlns:inkscape="http://www.inkscape.org/namespaces/inkscape"
   xmlns:sodipodi="http://sodipodi.sourceforge.net/DTD/sodipodi-0.dtd"
   xmlns="http://www.w3.org/2000/svg"
   xmlns:svg="http://www.w3.org/2000/svg"><defs
     id="defs3" /><sodipodi:namedview
     id="namedview3"
     pagecolor="#505050"
     bordercolor="#eeeeee"
     borderopacity="1"
     inkscape:showpageshadow="0"
     inkscape:pageopacity="0"
     inkscape:pagecheckerboard="0"
     inkscape:deskcolor="#505050"
     inkscape:zoom="4"
     inkscape:cx="69.25"
     inkscape:cy="114.875"
     inkscape:window-width="1920"
     inkscape:window-height="1001"
     inkscape:window-x="-9"
     inkscape:window-y="-9"
     inkscape:window-maximized="1"
     inkscape:current-layer="svg3"
     showguides="false" /><path
     style="display:inline;fill:#000000;stroke-width:1.74959"
     d="m 21.569399,42.253406 c -0.381907,-0.140424 -1.019864,-0.537542 -1.417682,-0.882485 -0.609677,-0.528638 -1.264181,-0.514 -4.166257,0.09318 -3.667385,0.767306 -6.6699048,0.581688 -8.8531466,-0.54731 -0.6908733,-0.357264 -1.7712767,-0.649572 -2.4008981,-0.649572 -1.8282732,0 -3.99330461,-2.118509 -3.99330461,-3.907492 0,-1.724259 1.72704851,-4.575235 2.90951451,-4.802951 0.3045894,-0.05866 0.7037538,-0.07175 0.6721273,0.154661 -0.1407359,0.331986 -0.2136328,0.678295 -0.1004709,1.209956 0.1908409,0.896614 0.5339463,1.462181 1.1175719,1.774529 C 6.7938754,35.475696 7.6257046,35.291789 7.353301,34.25011 7.2202612,33.741351 7.4542687,32.80182 7.8733182,32.162263 8.4431724,31.292556 8.5150738,30.774914 8.1585532,30.108749 7.8963794,29.618876 7.6686688,28.631512 7.6525308,27.914612 7.6238157,26.63924 6.7000191,26.399362 6.4769091,27.516091 6.3211201,28.295859 6.5814214,28.679918 6.1214724,28.488048 5.6615233,28.296179 5.0659798,27.633618 4.2391887,26.460466 2.9122116,24.577588 2.8973952,24.494112 3.62079,22.977137 4.0374832,22.103322 5.290939,20.835994 6.4839988,20.082237 8.7791585,18.632192 8.9339141,18.285936 7.8986105,16.91714 6.521699,15.0967 7.1866449,12.774558 9.5710125,11.076738 l 1.9407395,-1.1822656 0.828044,1.7918396 c 1.523614,3.297015 5.213219,2.851125 5.73014,0.0957 0.308158,-1.642631 1.336281,-2.1580825 1.815197,-0.910051 0.369911,0.963972 0.805322,0.874288 2.24744,-0.462917 1.580422,-1.4654508 2.214331,-1.4654508 2.214331,0 0,1.355601 1.343173,1.547482 3.240423,0.462917 0.636511,-0.363863 1.501462,-0.668951 1.922115,-0.677973 1.555495,-0.03336 2.045014,4.091843 0.779576,6.569561 -0.292186,0.572102 -0.141979,1.065842 0.528122,1.735939 1.154883,1.154885 1.267059,1.154762 3.166812,-0.0035 1.225245,-0.747006 1.506203,-1.18977 1.388752,-2.188537 -0.209992,-1.785706 0.980353,-1.8341 2.634903,-0.107126 2.035395,2.124496 1.927134,4.660754 -0.285503,6.688485 -0.906719,0.830945 -1.919005,1.600951 -2.249526,1.711125 -0.474078,0.158023 -0.441438,0.508771 0.154613,1.661413 1.293597,2.50154 0.97279,4.136225 -1.14354,6.292605 -1.235772,1.259157 -1.843399,1.779 -2.111365,1.890639 -0.148112,-0.280076 -0.164115,-0.322318 -0.318953,-0.698895 -0.285791,-0.695065 -0.764188,-0.397302 -2.079748,1.353534 l -1.465852,1.845917 1.05932,-0.150679 c 0.267966,-0.03812 1.38317,-0.543023 1.81567,-0.745327 0.01082,0.798159 -0.05366,1.527114 -0.87678,2.973591 -1.46387,2.57246 -6.479979,4.133904 -8.936549,3.23064 z m -5.038686,-2.374197 c 3.414548,-0.81721 3.54191,-0.817096 4.054451,0.0036 0.67732,1.084564 1.513356,1.068529 3.748772,-0.07189 2.109369,-1.07612 2.629272,-1.741734 1.916887,-2.454122 -0.839154,-0.839151 -0.590009,-2.110503 0.526398,-2.686146 1.72875,-0.89138 3.124693,-2.380615 3.124693,-3.33352 0,-0.908324 0.896402,-0.949799 2.830295,-0.130958 0.563689,0.238677 0.813237,-0.014 1.016226,-1.028935 0.340504,-1.702521 -0.07125,-3.296119 -1.151112,-4.455226 -1.245851,-1.337263 -1.035771,-1.98076 0.756413,-2.316977 1.944696,-0.364825 3.49194,-2.186913 3.49194,-4.112225 V 17.885807 L 35.804111,18.8615 c -1.337882,1.253269 -3.475921,2.061037 -4.551603,1.71963 -1.223467,-0.388315 -2.752213,-3.079124 -2.436109,-4.287903 0.145636,-0.55689 0.124273,-1.761513 -0.04746,-2.676938 -0.253482,-1.351179 -0.459388,-1.595501 -1.094116,-1.298259 -0.430028,0.201384 -2.073085,0.401019 -3.651237,0.443636 -2.193038,0.05922 -3.375753,0.374247 -5.017733,1.336511 -2.427248,1.422462 -4.50665,1.340859 -6.762403,-0.265377 -1.611314,-1.147357 -1.933388,-0.613769 -1.538286,2.548528 0.299579,2.397744 0.26282,2.512369 -1.055405,3.291065 -0.9523203,0.562548 -1.5841031,1.48947 -2.0869235,3.061829 -0.7428033,2.3228 -0.5666922,2.973903 0.6040605,2.233279 1.2802175,-0.809876 1.7130913,-0.429485 2.002143,1.759395 0.159703,1.209373 0.417309,2.980032 0.57246,3.934799 0.22005,1.354155 0.130711,1.735941 -0.406248,1.735941 -1.2354083,0 -1.8625223,1.197402 -1.2381352,2.364078 0.7654332,1.430227 -0.4327602,2.291203 -2.6808873,1.926381 l -1.6488954,-0.267578 0.8734752,1.478677 c 0.621939,1.052858 1.4748436,1.664101 2.961753,2.122573 2.8024567,0.864107 3.7967197,0.84623 7.9281537,-0.142558 z m 0.929276,-7.066812 c -2.216833,-0.456479 -3.833243,-1.799714 -5.005888,-4.159881 -1.848281,-3.720022 -1.173873,-6.665619 2.373887,-10.368387 2.308102,-2.408946 4.695452,-3.477365 7.77007,-3.477365 2.422577,0 3.357932,0.663473 6.256402,4.437827 2.86071,3.725186 1.347303,10.418164 -2.80084,12.386588 -2.061566,0.978275 -6.56983,1.59795 -8.593631,1.181218 z m 7.908508,-2.331112 c 1.921198,-0.962407 4.0705,-4.172507 4.0705,-6.079516 0,-0.661221 -0.214615,-1.766696 -0.476921,-2.456612 l -0.476919,-1.254395 -1.642282,1.918634 c -1.908633,2.229811 -2.627634,2.437608 -2.233909,0.645613 0.256441,-1.167152 0.112794,-1.092277 -1.727121,0.900315 -1.103751,1.195336 -3.164812,2.965997 -4.580132,3.9348 -1.415322,0.968803 -2.665199,1.963099 -2.777505,2.209545 -0.335267,0.735711 3.327859,1.544728 5.813732,1.283989 1.273024,-0.133529 3.086774,-0.629593 4.030557,-1.102373 z"
     id="path16"
     sodipodi:nodetypes="csssssscssssssscssssscsssssssssssssssscsscscsccccssssssssscssssssssssssssssscssccsssssssssscsssssss" /></svg>
