<?xml version="1.0" encoding="UTF-8" standalone="no"?>
<svg
   width="150"
   height="200"
   viewBox="0 0 39.687 52.917"
   version="1.1"
   id="svg3"
   sodipodi:docname="VFlyer.svg"
   xml:space="preserve"
   inkscape:version="1.3.2 (091e20e, 2023-11-25, custom)"
   xmlns:inkscape="http://www.inkscape.org/namespaces/inkscape"
   xmlns:sodipodi="http://sodipodi.sourceforge.net/DTD/sodipodi-0.dtd"
   xmlns="http://www.w3.org/2000/svg"
   xmlns:svg="http://www.w3.org/2000/svg"><defs
     id="defs3" /><sodipodi:namedview
     id="namedview3"
     pagecolor="#505050"
     bordercolor="#eeeeee"
     borderopacity="1"
     inkscape:showpageshadow="0"
     inkscape:pageopacity="0"
     inkscape:pagecheckerboard="0"
     inkscape:deskcolor="#505050"
     inkscape:zoom="2.8284271"
     inkscape:cx="13.788582"
     inkscape:cy="121.79914"
     inkscape:window-width="1920"
     inkscape:window-height="1001"
     inkscape:window-x="-9"
     inkscape:window-y="-9"
     inkscape:window-maximized="1"
     inkscape:current-layer="svg3"
     showguides="false" /><g
     id="g9"><path
       style="fill:#000000;stroke-width:1.90697"
       d="M 3.0492843,42.886701 C 2.4777949,42.262311 1.8369963,41.183825 1.6252874,40.49006 1.2654151,39.31077 1.2170296,39.294351 0.88187535,40.237782 0.30102312,41.872835 -0.28026957,38.372737 0.14683908,35.811956 1.5014785,27.690059 9.1991128,22.283434 18.415544,22.98047 c 3.609611,0.272994 3.698691,0.251879 3.449832,-0.817788 -0.154999,-0.666218 -0.0262,-0.552366 0.327493,0.289508 0.741317,1.764469 1.141706,1.764469 1.157046,0 0.0067,-0.763142 0.193946,-2.062513 0.416249,-2.887494 0.402065,-1.492087 0.398686,-1.494989 -0.642758,-0.552497 -0.575819,0.521111 -1.046944,0.693418 -1.046944,0.382907 0,-0.978477 3.614927,-3.069936 6.372973,-3.687161 2.085492,-0.466712 3.143678,-0.455127 4.963316,0.05435 2.863374,0.801694 3.252957,1.336627 1.287795,1.768249 -2.129991,0.467825 -2.328737,1.13081 -0.725194,2.419132 2.105443,1.691561 3.374781,2.338811 4.625313,2.358507 1.395126,0.02197 1.447842,0.714397 0.152978,2.009269 -1.428837,1.428835 -3.42808,2.346827 -6.684638,3.069378 l -2.873636,0.637589 0.981552,1.923999 c 1.348689,2.643651 1.246598,5.096286 -0.315109,7.570189 -1.051804,1.666166 -1.511524,2.000116 -2.434493,1.768464 -0.921971,-0.231399 -1.439776,0.142797 -2.72939,1.972378 -1.495567,2.121776 -2.621461,2.880209 -2.621461,1.765886 0,-0.310415 -0.512222,-0.296246 -1.387528,0.03839 -0.763141,0.291748 -3.317455,0.652865 -5.676252,0.802482 -3.554421,0.225457 -4.804064,0.0893 -7.298573,-0.795214 -3.6451299,-1.292508 -3.4353256,-1.288501 -3.044822,-0.05814 0.4250431,1.33919 -0.3328269,1.280179 -1.620003,-0.126138 z m 14.9907307,0.101752 c 1.248777,-0.277344 2.919451,-0.763616 3.712611,-1.080599 1.394549,-0.557322 1.435112,-0.673052 1.229961,-3.509226 -0.116682,-1.61309 -0.31153,-3.019212 -0.432995,-3.12471 -0.121476,-0.1055 -1.328834,-0.337027 -2.683035,-0.514507 l -2.462184,-0.322687 0.255844,2.269831 c 0.140719,1.248408 0.14838,2.269833 0.01698,2.269833 -1.42692,0 -5.801009,-1.817018 -6.714268,-2.789138 -1.6697228,-1.777328 -2.3211077,-1.566579 -3.5174919,1.138043 -1.5853913,3.584041 -1.2515992,4.80243 1.5124881,5.5208 2.8525958,0.741373 6.1520478,0.793093 9.0820048,0.14236 z M 3.1842302,41.386906 C 1.8727114,39.51445 2.1418909,34.517571 3.7049289,31.720992 c 1.7486796,-3.128728 5.0439526,-5.735436 8.4895641,-6.71563 1.550003,-0.440938 2.818189,-0.997115 2.818189,-1.235951 0,-0.579612 -0.348681,-0.547199 -3.10177,0.288353 -3.5386224,1.073956 -5.0732296,2.007555 -7.3372206,4.463695 -2.3768143,2.57854 -2.8753579,3.419721 -3.60521225,6.082992 -0.44478522,1.623045 -0.41290585,1.889968 0.19773685,1.655645 0.5638746,-0.21638 0.7280146,0.203663 0.7280146,1.863032 0,1.852608 1.0529282,4.385157 1.8231658,4.385157 0.138753,0 -0.1011731,-0.504621 -0.5331662,-1.121379 z M 5.5270321,39.380037 C 5.1940252,39.047031 4.8833975,37.627967 4.8367478,36.226564 4.7584595,33.874693 4.7362182,33.832202 4.547816,35.674576 c -0.2911403,2.84704 0.2834961,5.612117 1.0144083,4.881202 0.4239958,-0.423995 0.414969,-0.72558 -0.035192,-1.175741 z M 29.122492,38.000451 c 0.638198,-1.192484 0.689176,-3.565061 0.0766,-3.565061 -0.432896,0 -1.232435,1.886738 -1.122526,2.648918 0.03002,0.208129 -0.172485,0.378417 -0.449988,0.378417 -0.277506,0 -0.504556,0.340577 -0.504556,0.756833 0,1.085566 1.383318,0.934051 2.00047,-0.219107 z M 12.994458,36.803916 c 0,-0.08485 -0.567624,-0.923626 -1.261388,-1.863969 -0.693767,-0.940344 -1.261391,-2.333356 -1.261391,-3.095583 0,-0.762225 -0.241531,-1.535139 -0.5367367,-1.717585 -0.6006058,-0.371196 -0.1481525,2.944232 0.5998467,4.395409 0.665858,1.291828 2.459669,2.955869 2.459669,2.281728 z M 26.361027,23.852827 c 0.437129,-1.377272 3.063859,-3.147466 4.799975,-3.23478 0.792881,-0.03987 1.608612,-0.239514 1.812736,-0.443638 0.572754,-0.572755 -4.277857,-0.438854 -5.37511,0.148381 -0.960066,0.513813 -2.494831,2.972328 -2.494831,3.996435 0,0.91796 0.926997,0.574074 1.25723,-0.466392 z"
       id="path8" /><path
       style="fill:#000000;fill-opacity:1;stroke:none;stroke-width:0.423336;stroke-linecap:round;stroke-linejoin:round;stroke-dasharray:none"
       d="m 21.655275,23.093903 0.935449,0.210476 c 0,0 -1.292006,-3.146309 1.254624,-4.965331 l -0.15734,-0.324054 c 0,0 -2.712649,0.276316 -2.032733,5.078909 z"
       id="path9"
       sodipodi:nodetypes="ccccc" /></g></svg>
