<?xml version="1.0" encoding="UTF-8" standalone="no"?>
<svg
   width="150"
   height="200"
   viewBox="0 0 39.687 52.917"
   version="1.1"
   id="svg3"
   sodipodi:docname="Yabbaguy.svg"
   xml:space="preserve"
   inkscape:version="1.3.2 (091e20e, 2023-11-25, custom)"
   xmlns:inkscape="http://www.inkscape.org/namespaces/inkscape"
   xmlns:sodipodi="http://sodipodi.sourceforge.net/DTD/sodipodi-0.dtd"
   xmlns="http://www.w3.org/2000/svg"
   xmlns:svg="http://www.w3.org/2000/svg"><defs
     id="defs3" /><sodipodi:namedview
     id="namedview3"
     pagecolor="#505050"
     bordercolor="#eeeeee"
     borderopacity="1"
     inkscape:showpageshadow="0"
     inkscape:pageopacity="0"
     inkscape:pagecheckerboard="0"
     inkscape:deskcolor="#505050"
     inkscape:zoom="2.8284271"
     inkscape:cx="61.51829"
     inkscape:cy="99.878833"
     inkscape:window-width="1920"
     inkscape:window-height="1001"
     inkscape:window-x="-9"
     inkscape:window-y="-9"
     inkscape:window-maximized="1"
     inkscape:current-layer="svg3"
     showguides="false" /><g
     id="g19"><circle
       style="fill:none;fill-opacity:1;stroke:#000000;stroke-width:1.33067;stroke-linecap:round;stroke-linejoin:round;stroke-dasharray:none;stroke-opacity:1"
       id="path17"
       cx="19.885939"
       cy="26.15382"
       r="18.708019" /><path
       style="fill:#000000;fill-opacity:1;stroke:none;stroke-width:1.06416;stroke-linecap:round;stroke-linejoin:round;stroke-dasharray:none;stroke-opacity:1"
       d="m 11.87983,16.136499 h 2.806348 l 5.565923,10.243169 3.461162,-8.699677 c 0,0 3.695024,-4.115977 6.828779,0 0,2.85312 -1.870899,2.899892 -1.870899,2.899892 0,0 -1.637035,-4.490156 -3.227299,-1.917671 -1.216084,2.899893 -6.641689,15.996182 -6.641689,15.996182 0,0 -2.104761,2.946665 -5.378833,1.637038 -3.274073,-1.30963 -0.37418,-4.443385 0,-4.443385 1.169311,1.543491 2.385395,4.069203 4.022431,1.449947 1.496719,-3.601481 1.496719,-3.601481 1.496719,-3.601481 z"
       id="path18" /><path
       style="fill:#000000;fill-opacity:1;stroke:none;stroke-width:1.06416;stroke-linecap:round;stroke-linejoin:round;stroke-dasharray:none;stroke-opacity:1"
       d="m 14.569247,28.297339 v 1.98783 l 7.249731,6.314281 v -2.478939 z"
       id="path19" /></g></svg>
