<?xml version="1.0" encoding="UTF-8" standalone="no"?>
<svg
   width="150"
   height="200"
   viewBox="0 0 39.687 52.917"
   version="1.1"
   id="svg3"
   sodipodi:docname="Yoshi Dojo.svg"
   xml:space="preserve"
   inkscape:version="1.3.2 (091e20e, 2023-11-25, custom)"
   xmlns:inkscape="http://www.inkscape.org/namespaces/inkscape"
   xmlns:sodipodi="http://sodipodi.sourceforge.net/DTD/sodipodi-0.dtd"
   xmlns="http://www.w3.org/2000/svg"
   xmlns:svg="http://www.w3.org/2000/svg"><defs
     id="defs3" /><sodipodi:namedview
     id="namedview3"
     pagecolor="#505050"
     bordercolor="#eeeeee"
     borderopacity="1"
     inkscape:showpageshadow="0"
     inkscape:pageopacity="0"
     inkscape:pagecheckerboard="0"
     inkscape:deskcolor="#505050"
     inkscape:zoom="4"
     inkscape:cx="56.5"
     inkscape:cy="108.625"
     inkscape:window-width="1920"
     inkscape:window-height="1001"
     inkscape:window-x="-9"
     inkscape:window-y="-9"
     inkscape:window-maximized="1"
     inkscape:current-layer="svg3"
     showguides="false" /><g
     id="g7"><path
       style="display:inline;fill:#000000;stroke-width:1.85807"
       d="M 14.123879,45.547823 C 13.718294,45.401122 12.612157,44.920825 11.665795,44.480498 10.719435,44.040172 9.6132983,43.657356 9.2077144,43.629791 8.8021315,43.602227 8.0026962,43.54692 7.4311923,43.506887 6.8596883,43.466853 5.7867422,42.828747 5.0468677,42.088872 3.9118969,40.953901 3.7415479,40.446123 3.9569639,38.840076 4.1392006,37.481399 3.9427095,36.49441 3.2705239,35.392043 1.4840804,32.462325 2.5786058,27.702376 5.0387224,27.702376 c 0.5544529,0 0.6445704,-0.469105 0.4136978,-2.153505 -0.2440879,-1.780816 -0.1148415,-2.333836 0.7468294,-3.195505 0.5730999,-0.573099 1.3738409,-1.042001 1.7794244,-1.042001 0.4055834,0 1.8365183,-0.701662 1.8365183,-1.107246 0,0 4.0360297,-1.899345 6.1947397,-2.292531 3.773079,-0.687226 6.533152,-0.281089 6.533152,-0.281089 0.440807,1.15941 1.610202,3.154081 3.976143,3.106545 1.814559,-0.03646 3.415015,0.319906 5.30284,1.180758 7.525581,3.431668 9.043585,10.881819 3.502995,17.1922 -1.933031,2.201601 -4.407427,3.397168 -7.084031,3.422829 -1.139903,0.01097 -2.404392,0.311316 -2.809975,0.66753 -2.189485,1.92297 -8.727917,3.280404 -11.307173,2.347465 z m 8.541923,-2.363366 c 1.774722,-0.84216 2.357737,-1.716825 1.144366,-1.716825 -0.919324,0 -3.869375,-3.236547 -5.913244,-6.487516 -2.302552,-3.66243 -3.642055,-4.526088 -6.517176,-4.202023 -2.6448544,0.298115 -4.6323353,1.917942 -4.6253121,3.769703 0.013099,3.455834 3.4522651,7.948677 7.1236341,9.306161 1.97074,0.728679 6.581551,0.377401 8.787732,-0.6695 z M 7.7576393,40.889352 C 7.2094208,40.300908 6.623549,39.386767 6.4557025,38.85793 6.2126545,38.092154 6.0629169,38.034735 5.7201833,38.575883 c -0.2366884,0.373712 -0.4337307,0.845396 -0.4378709,1.048189 -0.013433,0.657545 1.9374465,2.335176 2.7155127,2.335176 0.6074467,0 0.5601035,-0.210887 -0.2401858,-1.069896 z M 6.9371898,29.763095 c 0.5484087,-0.887344 -1.4483223,-0.729723 -2.3647144,0.186671 -0.9777901,0.97779 -0.9716717,1.756191 0.031726,4.036508 l 0.804267,1.827771 0.5833166,-2.732539 C 6.3126104,31.578607 6.738042,30.085323 6.9371898,29.763095 Z M 31.057279,26.287522 c -0.789946,-0.741379 -0.823556,-0.72832 -0.478275,0.185813 0.204257,0.540777 0.507664,1.425687 0.674235,1.966466 0.278614,0.90454 0.316895,0.889668 0.478275,-0.185814 0.09991,-0.665857 -0.190294,-1.512278 -0.674235,-1.966465 z m 2.213382,-0.235117 c -0.473353,-0.436285 -0.538771,-0.360483 -0.291911,0.338234 0.174994,0.495296 0.343826,1.158978 0.375191,1.474849 0.03136,0.315872 0.162731,0.163658 0.291912,-0.338235 0.129191,-0.501901 -0.03965,-1.165584 -0.375192,-1.474848 z m -24.16127,1.060031 c 0.8145773,-0.814576 0.7746723,-4.326223 -0.049155,-4.326223 -1.5021948,0 -2.2879878,2.138686 -1.5205748,4.138531 0.3570374,0.930423 0.7768128,0.980616 1.5697349,0.187692 z"
       id="path3"
       sodipodi:nodetypes="ssssssssssscscscscssssssscssssscssssscsssssssssssscsscc" /><path
       style="display:inline;fill:none;stroke:#000000;stroke-width:0.423336;stroke-linecap:round;stroke-linejoin:round;stroke-dasharray:none"
       d="m 23.812276,17.661048 -0.198435,-2.728532 c 0,0 -7.375307,-0.859902 -14.4860294,2.877361 -0.033073,1.852096 -0.041343,2.786412 -0.041343,2.786412 0,0 6.7717204,-4.208555 14.7258074,-2.935241 z"
       id="path4"
       sodipodi:nodetypes="ccccc" /><path
       style="display:inline;fill:none;stroke:#000000;stroke-width:0.423336;stroke-linecap:round;stroke-linejoin:round;stroke-dasharray:none"
       d="m 10.798,17.016123 c 0,0 -1.3890709,-2.778143 -2.6954594,-2.960045 -1.3063884,-0.181902 -1.5355499,3.460499 -1.3701842,4.155034 0.7110721,0 0.8328467,-0.191937 0.8328467,-0.191937 0,0 -0.1947702,-2.097307 0.4005458,-2.047697 0.5953163,0.04961 1.1677331,1.78678 1.1677331,1.78678 z"
       id="path5"
       sodipodi:nodetypes="csccscc" /><path
       style="display:inline;fill:none;stroke:#000000;stroke-width:0.423336;stroke-linecap:round;stroke-linejoin:round;stroke-dasharray:none"
       d="m 9.0370998,19.645436 c 0,0 -2.4393864,-0.231512 -3.6796285,0.959121 -1.2402422,1.190632 -2.761606,2.331655 -3.7868729,1.967851 -0.082683,-1.041804 -0.066146,-1.68673 -0.066146,-1.68673 0,0 1.8355584,-0.347267 2.6954597,-1.174095 0.8599012,-0.826829 2.7119962,-1.984388 4.8617494,-1.422145 0.04961,0.942584 -0.024561,1.355998 -0.024562,1.355998 z"
       id="path6"
       sodipodi:nodetypes="csccscc" /><path
       style="display:inline;fill:none;stroke:#000000;stroke-width:0.423336;stroke-linecap:round;stroke-linejoin:round;stroke-dasharray:none"
       d="m 6.4158112,18.305975 c 0,0 -1.1079496,-0.06615 -1.471754,-0.429951 -0.5622431,0.314195 -0.5622431,0.314195 -0.5622431,0.314195 0,0 0.1984387,0.810291 0.8433647,0.711072"
       id="path7" /></g></svg>
