<?xml version="1.0" encoding="UTF-8" standalone="no"?>
<svg
   width="128"
   height="128"
   viewBox="0 0 33.86624 33.86688"
   version="1.1"
   id="svg3"
   sodipodi:docname="Dr Orchid.svg"
   inkscape:export-filename="Dr Orchid.png"
   inkscape:export-xdpi="96"
   inkscape:export-ydpi="96"
   xml:space="preserve"
   inkscape:version="1.3.2 (091e20e, 2023-11-25, custom)"
   xmlns:inkscape="http://www.inkscape.org/namespaces/inkscape"
   xmlns:sodipodi="http://sodipodi.sourceforge.net/DTD/sodipodi-0.dtd"
   xmlns="http://www.w3.org/2000/svg"
   xmlns:svg="http://www.w3.org/2000/svg"><defs
     id="defs3" /><sodipodi:namedview
     id="namedview3"
     pagecolor="#505050"
     bordercolor="#eeeeee"
     borderopacity="1"
     inkscape:showpageshadow="0"
     inkscape:pageopacity="0"
     inkscape:pagecheckerboard="0"
     inkscape:deskcolor="#505050"
     inkscape:zoom="3.935"
     inkscape:cx="65.311309"
     inkscape:cy="58.322745"
     inkscape:window-width="1920"
     inkscape:window-height="1001"
     inkscape:window-x="-9"
     inkscape:window-y="-9"
     inkscape:window-maximized="1"
     inkscape:current-layer="g5" /><g
     stroke="#000000"
     id="g5"
     transform="matrix(0.94608762,0,0,0.94608762,-1.1098741,-9.155409)"
     style="display:inline"><path
       id="path18"
       style="display:inline;fill:#000000;fill-opacity:1;stroke-width:0.30818"
       d="M 7.2150157 22.175625 L 2.4443709 22.84037 C 2.4284409 22.84037 0.39027539 37.587787 2.825083 43.597099 C 12.978748 43.545299 13.030571 43.546847 13.030571 43.546847 L 13.030571 41.678244 C 9.5338993 38.263698 6.2585926 32.884945 6.2585926 27.688031 C 6.2585926 25.627088 6.6001231 23.786006 7.2150157 22.175625 z " /><path
       id="path17"
       style="display:inline;fill:#000000;fill-opacity:1;stroke-width:0.30818"
       d="M 25.200248 41.714295 L 25.200248 43.546847 C 25.200248 43.546847 25.252071 43.545299 35.405736 43.597099 C 37.840544 37.587787 35.802378 22.84037 35.786448 22.84037 L 31.258323 22.209491 C 31.865133 23.811897 32.202729 25.641402 32.202729 27.688031 C 32.202729 32.903244 28.738368 38.301661 25.200248 41.714295 z " /><path
       d="m 32.20261,27.687895 c 0,8.533 -9.273,17.567 -12.972,17.567 -4.143,0 -12.9719983,-9.034 -12.9719983,-17.567 0,-8.533 5.8079983,-13.333 12.9719983,-13.333 7.164,0 12.972,4.8 12.972,13.333 z"
       fill="#ffffff"
       stroke-width="0.438"
       id="path20"
       style="display:inline;fill:#ffffff;fill-opacity:0" /><path
       style="display:inline;fill:#000000;fill-opacity:1;stroke-width:0.383193"
       d="M 2.1648166,25.364042 H 36.071498 c 0,0 -0.04201,-15.176471 -16.56085,-15.4953091 C 5.0076023,9.9512631 2.4749386,20.7081 2.1648166,25.364042 Z"
       id="path16"
       sodipodi:nodetypes="cccc" /></g></svg>
