<?xml version="1.0" encoding="UTF-8" standalone="no"?>
<svg
   width="150"
   height="200"
   viewBox="0 0 39.687 52.917"
   version="1.1"
   id="svg5"
   sodipodi:docname="Miss Scarlett.svg"
   inkscape:version="1.3.2 (091e20e, 2023-11-25, custom)"
   xmlns:inkscape="http://www.inkscape.org/namespaces/inkscape"
   xmlns:sodipodi="http://sodipodi.sourceforge.net/DTD/sodipodi-0.dtd"
   xmlns="http://www.w3.org/2000/svg"
   xmlns:svg="http://www.w3.org/2000/svg">
  <defs
     id="defs5" />
  <sodipodi:namedview
     id="namedview5"
     pagecolor="#505050"
     bordercolor="#eeeeee"
     borderopacity="1"
     inkscape:showpageshadow="0"
     inkscape:pageopacity="0"
     inkscape:pagecheckerboard="0"
     inkscape:deskcolor="#505050"
     inkscape:zoom="2.7824652"
     inkscape:cx="55.346604"
     inkscape:cy="86.434145"
     inkscape:window-width="1920"
     inkscape:window-height="1001"
     inkscape:window-x="-9"
     inkscape:window-y="-9"
     inkscape:window-maximized="1"
     inkscape:current-layer="g5" />
  <g
     stroke="#000"
     id="g5">
    <path
       id="path1"
       d="m 8.4304076,32.327193 c 0.020499,1.357448 -0.1114265,5.044895 -2.0195277,7.753064 -2.8439971,3.222996 -4.0181112,4.384587 -1.6061136,7.599584 l 20.1280977,-0.02997 -0.0739,-6.200177 c -1.831232,1.527421 -3.577583,2.448444 -4.756845,2.448444 -3.165625,0 -9.063466,-5.275813 -11.6717134,-11.570942 z" />
    <path
       d="m 32.805,26.6 c 0,8.533 -9.273,17.567 -12.972,17.567 -4.143,0 -12.972,-9.034 -12.972,-17.567 0,-8.533 5.808,-13.333 12.972,-13.333 7.164,0 12.972,4.8 12.972,13.333 z"
       fill="#ffffff"
       stroke-width="0.438"
       id="path6"
       style="display:inline;fill:none" />
    <path
       d="M11.15 16.631c4.814-5.887 10.173-5.36 14.363-4.82 8.258 2.851 9.901 11.844 10.032 14.978.914 15.896-3.11 20.979-3.11 20.979l-7.771.15-.001-5.793c.796-19.545-.82-17.875-13.513-25.494z"
       stroke-width=".452"
       id="path3" />
    <path
       d="M11.15 16.631c2.844 2.118 1.36 16.33-3.005 15.402-4.898-5.198-.955-12.525 3.005-15.402z"
       stroke-width=".452"
       id="path4" />
    <path
       d="M17.878 37.851h3.644l2.72 1.57c-2.953 1.61-6.275 1.511-9.223.01z"
       stroke-width=".272"
       id="path5" />
  </g>
</svg>
