<?xml version="1.0" encoding="UTF-8" standalone="no"?>
<svg
   width="128"
   height="128"
   viewBox="0 0 33.86624 33.86688"
   version="1.1"
   id="svg3"
   sodipodi:docname="Mrs White.svg"
   inkscape:export-filename="Mrs White.png"
   inkscape:export-xdpi="96"
   inkscape:export-ydpi="96"
   xml:space="preserve"
   inkscape:version="1.3.2 (091e20e, 2023-11-25, custom)"
   xmlns:inkscape="http://www.inkscape.org/namespaces/inkscape"
   xmlns:sodipodi="http://sodipodi.sourceforge.net/DTD/sodipodi-0.dtd"
   xmlns="http://www.w3.org/2000/svg"
   xmlns:svg="http://www.w3.org/2000/svg"><defs
     id="defs3" /><sodipodi:namedview
     id="namedview3"
     pagecolor="#505050"
     bordercolor="#eeeeee"
     borderopacity="1"
     inkscape:showpageshadow="0"
     inkscape:pageopacity="0"
     inkscape:pagecheckerboard="0"
     inkscape:deskcolor="#505050"
     inkscape:zoom="3.935"
     inkscape:cx="37.357052"
     inkscape:cy="56.289708"
     inkscape:window-width="1920"
     inkscape:window-height="1001"
     inkscape:window-x="-9"
     inkscape:window-y="-9"
     inkscape:window-maximized="1"
     inkscape:current-layer="svg3" /><g
     stroke="#000000"
     id="g6"
     transform="matrix(0.83350218,0,0,0.83350218,0.46905024,-3.3631603)"><path
       id="ellipse1"
       style="fill:none;stroke-width:1.00005;stroke-dasharray:none"
       d="m 14.783877,9.2483926 a 5.4330001,3.402 0 0 1 -0.419876,-1.3113928 5.4330001,3.402 0 0 1 5.433,-3.402 5.4330001,3.402 0 0 1 5.433,3.402 v 0 a 5.4330001,3.402 0 0 1 -0.46619,1.3787612" /><path
       id="path1"
       d="m 32.805,26.6 v 0 0 c 0,8.532991 -9.273004,17.567 -12.972,17.567 -4.142996,0 -12.972,-9.034009 -12.972,-17.567 0,-0.05019 2.009e-4,-0.100252 6.019e-4,-0.150184"
       style="fill:none" /><path
       stroke-width="0.464"
       d="m 6.809,26.559 h 10.572 v 0.366 H 6.809 Z"
       id="path3" /><path
       stroke-width="0.476"
       d="m 21.808,26.551 h 10.768 v 0.378 H 21.808 Z"
       id="path4" /><path
       d="m 10.785,26.93 h 6.71 c 0,0 0.594,3.481 -0.53,4.48 h -5.65 c -1.124,-0.999 -0.53,-4.48 -0.53,-4.48 z m 10.9,-0.1 h 6.709 c 0,0 0.594,3.48 -0.53,4.478 h -5.65 c -1.124,-0.999 -0.53,-4.479 -0.53,-4.479 z"
       fill="#ffffff"
       stroke-width="0.452"
       id="path5"
       style="fill:none" /><path
       stroke-width="0.264"
       d="m 17.851,28.921 h 3.418 v 0.366 h -3.418 z"
       id="path6" /><path
       d="m 11.623,18.52 c 6.035,2.647 10.155,2.553 15.308,0 l 6.056856,8.150329 C 50.457856,3.2803292 -10.856428,2.686 6.7125721,26.553 c 0,0 3.5224279,-5.822 4.9104279,-8.032 z"
       fill="#ffffff"
       stroke-width="0.452"
       id="path11"
       style="display:inline;fill:none;fill-opacity:1;stroke-width:1.00005;stroke-dasharray:none"
       sodipodi:nodetypes="cccccc" /></g></svg>
