<?xml version="1.0" encoding="UTF-8" standalone="no"?>
<svg
   width="150"
   height="200"
   viewBox="0 0 39.687 52.917"
   version="1.1"
   id="svg4"
   sodipodi:docname="Professor Plum.svg"
   inkscape:version="1.3.2 (091e20e, 2023-11-25, custom)"
   xmlns:inkscape="http://www.inkscape.org/namespaces/inkscape"
   xmlns:sodipodi="http://sodipodi.sourceforge.net/DTD/sodipodi-0.dtd"
   xmlns="http://www.w3.org/2000/svg"
   xmlns:svg="http://www.w3.org/2000/svg">
  <defs
     id="defs4" />
  <sodipodi:namedview
     id="namedview4"
     pagecolor="#505050"
     bordercolor="#eeeeee"
     borderopacity="1"
     inkscape:showpageshadow="0"
     inkscape:pageopacity="0"
     inkscape:pagecheckerboard="0"
     inkscape:deskcolor="#505050"
     inkscape:zoom="3.935"
     inkscape:cx="74.968234"
     inkscape:cy="100"
     inkscape:window-width="1920"
     inkscape:window-height="1001"
     inkscape:window-x="-9"
     inkscape:window-y="-9"
     inkscape:window-maximized="1"
     inkscape:current-layer="svg4" />
  <path
     d="M33.829 29.246c0 8.533-6.177 17.566-13.796 17.566-7.62 0-13.796-9.033-13.796-17.566s6.176-13.333 13.796-13.333c7.62 0 13.796 4.8 13.796 13.333z"
     fill="none"
     stroke="#000"
     stroke-width=".452"
     id="path1" />
  <path
     id="path2"
     style="fill:none;stroke:#000000;stroke-opacity:1"
     d="M 28.247366 29.217374 L 33.829 29.246 " />
  <path
     id="path8"
     style="fill:none;stroke:#000000;stroke-opacity:1"
     d="M 16.576626 29.157517 L 22.945819 29.190183 " />
  <path
     id="path7"
     d="M 6.142 29.104 L 11.336576 29.130642 "
     style="fill:none;stroke:#000000;stroke-opacity:1" />
  <path
     id="path5"
     style="display:inline;fill:none;stroke:#000000;stroke-width:0.452"
     d="m 16.875999,30.445999 a 2.9289999,2.9289999 0 0 1 -2.928999,2.929 2.9289999,2.9289999 0 0 1 -2.929,-2.929 2.9289999,2.9289999 0 0 1 2.929,-2.929 2.9289999,2.9289999 0 0 1 2.928999,2.929 z" />
  <path
     id="path6"
     style="display:inline;fill:none;stroke:#000000;stroke-width:0.452"
     d="m 28.518001,30.445999 a 2.9289999,2.9289999 0 0 1 -2.929,2.929 2.9289999,2.9289999 0 0 1 -2.929,-2.929 2.9289999,2.9289999 0 0 1 2.929,-2.929 2.9289999,2.9289999 0 0 1 2.929,2.929 z" />
  <path
     d="M6.45 22.821c-2.703-1.23-3.212-5.274-1.377-7.14 1.269-1.268 2.108-1.317 4.903-.286 3.422 1.263 5.47 1.652 9.206 1.75 4.042.108 6.023-.202 10.09-1.574 3.789-1.279 4.599-1.267 6.045.086 1.717 1.683 1.377 4.05-.036 5.413-.886.837-1.211 1.604-2.703 1.918-.363.077-.397.058-.397-.218 0-.166-.179-.566-.397-.89-.722-1.068-3.638-1.754-6.61-2.214-2.003-.31-8.12-.31-10.15.001-3.515.538-6.634 1.445-7.04 2.958-.08.302-.176.547-.213.545-.036-.003-.74-.16-1.32-.349zm10.979-5.297c-1.667-.27-3.508-.743-5.57-1.429l-1.881-.626.066-1.785c.038-1.037.148-2.092.262-2.519.765-2.86 2.827-4.792 6.036-5.655 1.106-.298 1.372-.32 3.819-.323 2.456-.002 2.707.019 3.804.316 1.856.504 2.94 1.096 4.097 2.238.747.738 1.101 1.204 1.44 1.896.657 1.341.818 2.059.895 3.99l.07 1.727-1.27.49c-1.503.58-3.488 1.158-5.184 1.509-1.619.334-5.034.423-6.584.171z"
     id="path4" />
</svg>
