<svg xmlns="http://www.w3.org/2000/svg" width="40.555" height="26.93" viewBox="0 0 10.73 7.125"><path d="M160.121 75.444a.673.577 0 0 0-.675.574l1.346.004a.673.577 0 0 0-.671-.578zm5.429.02a.673.577 0 0 0-.675.573l1.345.004a.673.577 0 0 0-.67-.577zm-7.82.597v5.903h10.124v-5.903z" style="display:inline;fill:#fff;fill-opacity:1;stroke:#fff;stroke-width:.60563;stroke-linejoin:round;stroke-dasharray:none;stroke-opacity:1" transform="translate(-157.427 -75.142)"/><g style="display:inline;fill:#fff;fill-opacity:1;stroke:#000;stroke-opacity:1" transform="translate(-.354 -5.38)scale(.28529)"><path d="M2.304 22.082h35.487v20.692H2.304z" style="display:inline;fill:#fff;fill-opacity:1;stroke:#000;stroke-width:.638995;stroke-linejoin:round;stroke-dasharray:none;stroke-opacity:1"/><path d="M13.036-21.945a2.359 2.024 0 0 1-2.351 2.024 2.359 2.024 0 0 1-2.367-2.01M32.064-22.012a2.359 2.024 0 0 1-2.35 2.024 2.359 2.024 0 0 1-2.367-2.01" style="fill:#fff;fill-opacity:1;stroke:#000;stroke-width:.55633;stroke-linejoin:round;stroke-dasharray:none;stroke-opacity:1" transform="scale(1 -1)"/><ellipse cx="13.179" cy="32.394" rx="5.599" ry="5.682" style="fill:#fff;fill-opacity:1;stroke:#000;stroke-width:.31856;stroke-linejoin:round;stroke-dasharray:none;stroke-opacity:1"/><ellipse cx="13.24" cy="32.183" rx=".856" ry=".868" style="fill:#fff;fill-opacity:1;stroke:#000;stroke-width:.110487;stroke-linejoin:round;stroke-dasharray:none;stroke-opacity:1"/><path d="m12.759 30.89-.828-1.266.52 1.42.335.284z" style="fill:#fff;fill-opacity:1;stroke:#000;stroke-width:.543021;stroke-linecap:square;stroke-linejoin:miter;stroke-miterlimit:8.8;stroke-dasharray:none;stroke-opacity:1"/><path d="m14.35 32.761 1.131.259-1.006-.58-.441.013z" style="display:inline;fill:#fff;fill-opacity:1;stroke:#000;stroke-width:.543021;stroke-linecap:square;stroke-linejoin:miter;stroke-miterlimit:6.9;stroke-dasharray:none;stroke-opacity:1"/><path d="m14.377 31.307-5.76 4.31" style="fill:#fff;fill-opacity:1;stroke:#000;stroke-width:.157163;stroke-linecap:butt;stroke-linejoin:bevel;stroke-miterlimit:10.5;stroke-dasharray:none;stroke-opacity:1"/><path d="m13.275 32.535.666 4.504" style="fill:#fff;fill-opacity:1;stroke:#000;stroke-width:.0994629;stroke-linecap:butt;stroke-linejoin:bevel;stroke-miterlimit:10.5;stroke-dasharray:none;stroke-opacity:1"/><path d="M23.179 26.499h9.073v5.792h-9.073z" style="fill:#fff;fill-opacity:1;stroke:#000;stroke-width:.31856;stroke-linecap:butt;stroke-linejoin:bevel;stroke-miterlimit:10.5;stroke-dasharray:none;stroke-opacity:1"/><path d="M23.179 32.262h9.073v5.792h-9.073z" style="fill:#fff;fill-opacity:1;stroke:#000;stroke-width:.31856;stroke-linecap:butt;stroke-linejoin:bevel;stroke-miterlimit:10.5;stroke-dasharray:none;stroke-opacity:1"/></g></svg>