<svg xmlns="http://www.w3.org/2000/svg" width="40.872" height="40.704" viewBox="0 0 10.814 10.77"><g style="display:inline;fill:#fff;fill-opacity:1" transform="translate(-1.208 -4.291)scale(.32425)"><path d="m18.827 14.168-3.779 5.706-3.78-2.187v5.514l.044.016c-.12.033-2.1.6-2.067 2.166.013.61.294 1.074.647 1.417h0l-.027-.008s-.991.172-1.515.964c-.37.56-.458 1.2-.292 2.198-.998.642-2.092 1.378-2.543 2.376-.452.999-.476 2.521-.238 3.02 0 0 .154.428-.618 1.046 0 0 .951.999 2.068.975 1.101-.023 2.536-.711 2.577-.731-1.451 2.795-3.264 8.417 8.144 8.86 12.212.476 14.14-11.034 13.252-11.595.616.136 1.32.226 2.145.27 3.43-.169 3.296-.589 3.296-.589s-.354.067-.253-.673-.563-1.554-.84-1.663c.37-.606.722-1.597.588-2.64-.135-1.042-1.008-2.253-2.622-2.353.135-.959.3-2.069-.672-2.774-.909-.658-2.276-.423-2.808.502.56-1.233-.149-1.929-.722-2.05-1.362-.285-2.378 1.242-2.378 1.242l-.046.018v-5.508l-3.78 2.187zm6.703 9.319c-1.483.468-4.707 1.28-8.573.969 3.835.272 7.093-.521 8.573-.97M11.373 27.61l.002.002v.006h0zm-.03.247c-.018.095-.038.194-.06.333h0c.02-.128.043-.242.06-.333m17.556 0a4.4 4.4 0 0 1-.765 1.693q.08-.11.152-.222c.295-.476.496-.987.613-1.47m-17.607 2.684a8.404 8.404 0 0 0 0 0m15.755.102a6 6 0 0 1-.287.202c-.003-.008-.027-.003-.06.012q.18-.1.347-.214m-14.41.971q.029.016.057.033-.03-.016-.057-.033m.406.2q.041.018.083.032-.041-.015-.083-.032m.384.138.15.046zm-3.276.51a8 8 0 0 0-.45 1.396 7 7 0 0 0-.143 1.07 6 6 0 0 0 .05-.548 7 7 0 0 1 .22-1.018 8 8 0 0 1 .323-.9m19.156.986c.4.186.852.335 1.368.451-.46-.041-.924-.206-1.368-.451" style="display:inline;fill:#fff;fill-opacity:1;stroke:#fff;stroke-width:1.8678;stroke-linecap:round;stroke-linejoin:round;stroke-miterlimit:8.8;stroke-dasharray:none;stroke-opacity:1"/><path d="m15.048 19.874 3.78-5.706 3.78 5.706 3.78-2.187v5.515s-7.584 2.948-15.12 0v-5.515zM11.492 30.415l-.105.014S9.176 32.9 9.604 36.087c-1.427 2.52-4.374 8.938 7.845 9.414s14.14-11.05 13.249-11.597c-1.59-.128-3.221-1.732-3.937-3.058-.014-.032-.257.122-.504.218-2.421.942-4.17-.773-5.044-1.277-.672 1.009-3.16 3.127-7.194 2.32-1.454-.291-2.181-.958-2.527-1.692" style="display:inline;fill:#fff;fill-opacity:1;stroke:#000;stroke-width:.31856;stroke-linecap:round;stroke-linejoin:round;stroke-miterlimit:8.8;stroke-dasharray:none;stroke-opacity:1"/><path d="M11.353 23.204s-2.142.565-2.108 2.179 1.95 2.219 2.118 2.219-1.378 3.698 2.656 4.505 6.522-1.312 7.194-2.32c.875.504 2.623 2.219 5.043 1.277 2.421-.941 3.144-4 2.59-5.043.453 1.53-.152 3.564-2.085 4.825 1.143 2.118 2.521 3.143 6.085 3.328 3.429-.168 3.295-.588 3.295-.588s-.353.067-.253-.673c.101-.74-.563-1.554-.84-1.664.37-.605.723-1.597.588-2.639-.134-1.042-1.008-2.252-2.622-2.353.134-.958.3-2.07-.672-2.774-.973-.704-2.472-.386-2.909.706.74-1.361-.017-2.125-.622-2.252-1.361-.286-2.377 1.241-2.377 1.241s-6.676 2.723-13.821.43z" style="display:inline;fill:#fff;fill-opacity:1;stroke:#000;stroke-width:.31856;stroke-linecap:round;stroke-linejoin:round;stroke-miterlimit:8.8;stroke-dasharray:none;stroke-opacity:1"/><path d="m9.892 26.8-.027-.008s-.992.172-1.516.964c-.37.56-.457 1.199-.29 2.197-.999.642-2.092 1.379-2.544 2.377-.452.999-.475 2.52-.238 3.02 0 0 .154.428-.618 1.046 0 0 .951.998 2.068.975 1.102-.024 2.535-.711 2.577-.731q.156-.301.3-.553c-.428-3.186 1.783-5.658 1.783-5.658l.105-.014c-.613-1.302-.022-2.813-.13-2.813-.104 0-.886-.236-1.47-.802" style="fill:#fff;fill-opacity:1;stroke:#000;stroke-width:.31856;stroke-linecap:round;stroke-linejoin:round;stroke-miterlimit:8.8;stroke-dasharray:none;stroke-opacity:1"/><ellipse cx="18.685" cy="20.92" rx=".998" ry="1.949" style="display:inline;fill:#010101;fill-opacity:1;stroke:#000;stroke-width:.31856;stroke-linecap:butt;stroke-linejoin:bevel;stroke-miterlimit:8.8;stroke-dasharray:none;stroke-opacity:1"/></g></svg>