<svg xmlns="http://www.w3.org/2000/svg" width="40.195" height="39.811" viewBox="0 0 10.635 10.533"><g style="fill:#fff;fill-opacity:1"><path d="M21.533 15.931c-6.11.18-11.122 9.459-11.122 9.459-.142.32-2.06-.286-3.719-1.38-1.89-1.23-.523 2.39-.713 3.673-.19 1.284.868 2.615 1.153 3.174.183.36.553 1.732.333 2.948-.202 1.118.074 1.549.074 1.549s.473.53.259 2.444c-.196 1.754.533 2.64 1.046 2.841 0 0 3.113.773 4.016 1.439s1.64 2.043 3.115 2.946c1.473.904 6.078-.202 7.655-.523 1.521-.309 3.09.619 4.564 1.046s2.063.681 2.686.5c.548-.16 2.014-1.932 2.686-2.543.703-.64 2.07-1.142 2.307-1.522s.309-2.14.214-3.281-1.665-4.611-2.948-5.848c-1.284-1.236-.381-7.606-1.689-10.245-1.046-2.377-2.024-5.397-8.68-6.586a6 6 0 0 0-1.237-.09" style="fill:#fff;fill-opacity:1;stroke:#fff;stroke-width:1.84076;stroke-linecap:round;stroke-linejoin:round;stroke-miterlimit:8.8;stroke-dasharray:none;stroke-opacity:1" transform="translate(-1.555 -4.938)scale(.32901)"/><path d="M10.412 25.39s5.7-10.556 12.357-9.367 7.636 4.207 8.682 6.585c1.307 2.638.404 9.01 1.688 10.246s2.852 4.707 2.947 5.848c.095 1.14.024 2.9-.214 3.28-.237.38-1.602.882-2.306 1.522-.67.61-2.138 2.384-2.686 2.543-.623.182-1.212-.07-2.686-.499-1.474-.428-3.043-1.355-4.564-1.046-1.577.32-6.181 1.427-7.655.523-1.474-.903-2.211-2.282-3.114-2.948-.904-.665-4.018-1.438-4.018-1.438-.513-.202-1.242-1.087-1.046-2.84.214-1.914-.26-2.444-.26-2.444s-.275-.433-.073-1.55c.22-1.217-.15-2.589-.333-2.948-.285-.559-1.343-1.89-1.153-3.174s-1.176-4.903.714-3.673c1.658 1.094 3.577 1.7 3.72 1.38" style="fill:#fff;fill-opacity:1;stroke:#000;stroke-width:.821272;stroke-linecap:round;stroke-linejoin:round;stroke-miterlimit:8.8;stroke-dasharray:none;stroke-opacity:1" transform="translate(-1.555 -4.938)scale(.32901)"/><path d="M7.144 25.702s2.538 2.101 3.816 1.227c1.277-.874 1.13-1.43 2.269-3.463 1.228-2.191 5.28-5.995 9.004-5.74 3.934.269 7.01 2.254 8.086 9.415.673 3.866.38 6.102 2.005 7.818 1.564 1.65 2.523 3.881 1.956 5.805-.308.671-1.787 1.21-2.325 2.252s-1.598 2.243-4.303.757c-2.724-1.497-4.842-.656-4.842-.656s-3.025 1.143-4.471.84c-1.446-.302-3.006-1.117-3.88-2.428-.874-1.312-3.351-1.49-3.351-1.49s-1.493.086-1.628-1.763c-.134-1.85.133-2.917-.318-3.72-.443-.789.046-2.205-.067-2.976-.172-1.178-2.993-4.096-1.951-5.878Z" style="fill:#fff;fill-opacity:1;stroke:#000;stroke-width:.423336;stroke-linecap:square;stroke-linejoin:miter;stroke-miterlimit:8.8;stroke-dasharray:none;stroke-opacity:1" transform="translate(-1.555 -4.938)scale(.32901)"/></g></svg>