<svg xmlns="http://www.w3.org/2000/svg" width="50.354" height="25.767" viewBox="0 0 13.323 6.818"><path d="m3.455 2.662-1.034.932H.853C.034 3.981-.986 5.486-.986 5.486L.198 5.32C-.82 6.15-.975 7.377-.975 7.377L-.1 7.19c-.31.321.023 1.644.023 1.644s3.69.041 10.062.041c.42-.73.202-1.508.202-1.508l1.14.177c-.1-.818-1.118-2.09-1.118-2.09s.63.188 1.15.298c-.11-1.04-1.183-1.239-1.603-1.615.276-.121.265-.542.265-.542H7.384l-1.598-.932ZM2.103 5.108q.063 0 .132.002c1.462.063 2.018 1.197 2.018 1.197-.446.75-2.2.485-2.59.195-.367-.274-.86-1.382.44-1.394Zm5.915 0c1.3.012.808 1.12.44 1.394-.389.29-2.143.556-2.589-.195 0 0 .555-1.134 2.018-1.197q.07-.003.131-.002z" style="display:inline;fill:#000;fill-opacity:1;stroke:#fff;stroke-width:.605635;stroke-linecap:round;stroke-linejoin:miter;stroke-miterlimit:8.8;stroke-dasharray:none;stroke-opacity:1" transform="translate(1.62 -2.36)"/><path d="M2.103 5.108c-1.3.012-.807 1.12-.44 1.394.39.29 2.144.555 2.59-.195 0 0-.555-1.134-2.018-1.197zm5.916 0q-.063 0-.132.002c-1.463.063-2.018 1.197-2.018 1.197.446.75 2.2.485 2.589.195.368-.274.86-1.382-.44-1.394" style="fill:#fff;fill-opacity:1;stroke:none;stroke-width:.139172;stroke-linecap:round;stroke-linejoin:round;stroke-dasharray:none;stroke-opacity:1" transform="translate(1.62 -2.36)"/><path d="m3.455 2.662-1.034.932H.853C.034 3.981-.986 5.486-.986 5.486L.198 5.32C-.82 6.15-.975 7.377-.975 7.377L-.1 7.19c-.31.321.023 1.644.023 1.644s3.69.041 10.062.041c.42-.73.202-1.508.202-1.508l1.14.177c-.1-.818-1.118-2.09-1.118-2.09s.63.188 1.15.298c-.11-1.04-1.183-1.239-1.603-1.615.276-.121.265-.542.265-.542H7.384l-1.598-.932ZM2.103 5.108q.063 0 .132.002c1.462.063 2.018 1.197 2.018 1.197-.446.75-2.2.485-2.59.195-.367-.274-.86-1.382.44-1.394Zm5.915 0c1.3.012.808 1.12.44 1.394-.389.29-2.143.556-2.589-.195 0 0 .555-1.134 2.018-1.197q.07-.003.131-.002z" style="display:inline;fill:#000;fill-opacity:1;stroke:#000;stroke-width:.139172;stroke-linecap:square;stroke-linejoin:miter;stroke-miterlimit:8.8;stroke-dasharray:none;stroke-opacity:1" transform="translate(1.62 -2.36)"/></svg>