<svg xmlns="http://www.w3.org/2000/svg" width="40.54" height="35.065" viewBox="0 0 10.726 9.278"><g style="display:inline"><path d="m26.38 14.827-.027.068c.02-.04.026-.068.026-.068m-.027.068c-.084.172-.536.664-3.014 1.007-7.203-.093-9.962 4.585-9.962 4.585l1.09.795-1.161-.726s-.852-.265-1.58-.397l.013-.047s-4.24-3.566-7.342-.186C1.263 23.34 5.238 29 8.933 29.608l.498-1.688c-.083 2.684.079 7.126 1.765 10.074 2.557 4.47 7.746 6.066 9.477 5.972s7.99-2.877 8.747-6.781c.582-2.998.921-7.083.938-9.625l.325 1.112c6.174-1.45 8.353-3.431 5.144-8.654-2.784-4.53-7.765-.327-7.765-.327l.134.455c-.377-.573-.589-1.071-.589-1.071s.026.04.539-.571c.512-.612-4.853-.356-3.684-.917 1.113-.535 1.824-2.5 1.891-2.692M11.38 21.33c.176.157.382.338.663.582-.213-.051-.585.168-.98.49zm17.584 1.448.31 1.065a9.3 9.3 0 0 1-1.773-.763s.658-.068 1.463-.302m-17.178 2.338q.175.234.346.45l-2.016.038.04-.132a7.5 7.5 0 0 0 1.63-.356" style="fill:#fff;fill-opacity:1;stroke:#fff;stroke-width:2.0353;stroke-linecap:round;stroke-linejoin:round;stroke-dasharray:none;stroke-opacity:1" transform="translate(-.674 -4.11)scale(.29756)"/><path d="M21.803 25.863s1.075.023 1.48-.041c-.686.827-2.53 3.001-5.11 1.827l.232.96s-2.854 1.56-6.619-3.492c-1.496.49-2.876.538-3.367-.094 1.099-.865.842-.42 1.052-.888s1.988-2.362 2.573-2.222c-1.24-1.076-1.333-1.146-1.333-1.66 0-.515 2.595.304 2.595.304" style="fill:none;fill-opacity:1;stroke:#000;stroke-width:.606958;stroke-linecap:round;stroke-linejoin:round;stroke-dasharray:none;stroke-opacity:1" transform="translate(-.674 -4.11)scale(.29756)"/><path d="M9.582 25.615s-.939 7.914 1.615 12.379c2.557 4.47 7.745 6.066 9.476 5.972 1.73-.093 7.989-2.878 8.747-6.782.88-4.539 1.212-11.588.698-11.962" style="fill:none;fill-opacity:1;stroke:#000;stroke-width:.606958;stroke-linecap:round;stroke-linejoin:round;stroke-dasharray:none;stroke-opacity:1" transform="translate(-.674 -4.11)scale(.29756)"/><path d="M13.377 20.486s2.76-4.677 9.962-4.583c3.04-.421 3.04-1.076 3.04-1.076s-.748 2.198-1.917 2.76c-1.17.56 4.195.306 3.683.917-.513.612-.538.57-.538.57s1.345 3.213 3.38 2.722c-1.31 1.076-3.485 1.286-3.485 1.286s2.128 1.24 3.484.912c-.888 1.357-3.297 5.847-8.372 3.228" style="fill:none;fill-opacity:1;stroke:#000;stroke-width:.606958;stroke-linecap:square;stroke-linejoin:round;stroke-dasharray:none;stroke-opacity:1" transform="translate(-.674 -4.11)scale(.29756)"/><path d="M11.74 20.112s-4.242-3.567-7.344-.187C1.262 23.34 5.238 29 8.933 29.607M28.063 19.691s4.98-4.202 7.764.328c3.21 5.222 1.03 7.203-5.145 8.653" style="fill:none;fill-opacity:1;stroke:#000;stroke-width:.606958;stroke-linecap:round;stroke-linejoin:round;stroke-dasharray:none;stroke-opacity:1" transform="translate(-.674 -4.11)scale(.29756)"/><path d="M10.991 22.474s-2.923-2.923-4.49-1.94c-1.567.981-.491 4.98-.491 4.98M29.794 21.609s2.081-2.877 3.437-1.8c1.357 1.075 3.555 2.385 1.497 5.472" style="fill:none;fill-opacity:1;stroke:#000;stroke-width:.606958;stroke-linecap:round;stroke-linejoin:round;stroke-dasharray:none;stroke-opacity:1" transform="translate(-.674 -4.11)scale(.29756)"/><path d="m10.285 23.019-2.103-.802.351 1.928-1.913.251 2.657 2.36M30.098 22.362l2.865-.192-1.228 1.544 1.742.49-3.069 3.173" style="fill:none;fill-opacity:1;stroke:#000;stroke-width:.606958;stroke-linecap:round;stroke-linejoin:round;stroke-dasharray:none;stroke-opacity:1" transform="translate(-.674 -4.11)scale(.29756)"/><path d="M10.259 29.577h19.127s.888 6.005-3.502 6.014c-4.582.009-4.4-4.728-4.4-4.728l-3.173.038s-.13 4.632-3.945 4.69c-5.009.076-4.107-6.014-4.107-6.014" style="fill:#000;fill-opacity:1;stroke:#000;stroke-width:.626643;stroke-linecap:round;stroke-linejoin:round;stroke-dasharray:none;stroke-opacity:1" transform="translate(-.674 -4.11)scale(.29756)"/></g></svg>