<svg xmlns="http://www.w3.org/2000/svg" width="40.571" height="46.885" viewBox="0 0 10.734 12.405"><path d="M5.497.033c-.304-.022-.674.12-1.612.5C2.98.9 2.363 1.13 1.426 2.02.58 2.822.487 3.315.293 3.88c-.318.929-.26 1.182.142 1.714.336.447.343.493.242 1.725-.188 2.308-.151 3.367.132 3.8l.254.387.003-.006c.048.009.702-.972.789-1.163.088-.194.252-.352.389-.352.79 0 4.502-2.294 6.468-3.997.38-.33.876-.74 1.1-.911.223-.17.405-.428.405-.572 0-.485-.507-1.245-1.556-2.327C7.453.93 6.588.416 5.8.106a1 1 0 0 0-.302-.073Z" style="fill:#fff;fill-opacity:1;stroke:#fff;stroke-width:.605635;stroke-linecap:round;stroke-linejoin:miter;stroke-dasharray:none;stroke-opacity:1" transform="translate(.214 .273)"/><path d="M.81 11.118C.525 10.686.49 9.626.676 7.319c.1-1.232.094-1.278-.242-1.725-.402-.532-.46-.785-.142-1.714.194-.565.287-1.058 1.133-1.86C2.363 1.13 2.98.9 3.886.533 5.134.027 5.376-.058 5.797.107c.79.309 1.655.823 2.863 2.07C9.71 3.26 10.217 4.02 10.217 4.506c0 .144-.182.401-.406.572-.223.17-.718.58-1.1.91-1.965 1.704-5.677 3.998-6.467 3.998-.137 0-.3.158-.39.352-.087.193-.757 1.198-.79 1.164-.081-.08 1.625-3.092 1.939-3.442.493-.55.473-.606-.224-.606h-.657l-.163.833c-.09.458-.207.938-.244 1.085-.055.22-.07.365-.214.88-.096.342-.182.655-.26.84l-.177.415Zm4.806-3.255c1.232-.746 3.546-2.558 3.546-2.558l-.354-.425c-.382-.46-1.335-1.159-1.58-1.159-.306 0-.724.412-1.231 1.543-.507 1.13-.672 1.307-1.301 1.662-.752.424-1.654 1.373-2.18 2.293-.16.279-.221.5-.14.5s.526-.325 3.24-1.856m-1.12-1.576c.755-.37 1.056-.595 1.16-.867.14-.366.14-.366-.452-.366-.759 0-1.401.27-1.69.71-.225.344-.313 1.022-.132 1.022.052 0 .553-.225 1.114-.5m3.056-4.569C6.727.977 5.754.408 5.593.573c-.131.134.88.929 1.445 1.359s.794.454.955.45c.243-.004.17-.115-.441-.664" style="display:inline;fill:#000;stroke-width:.503711" transform="translate(.214 .273)"/></svg>