<svg xmlns="http://www.w3.org/2000/svg" width="35.871" height="45.215" viewBox="0 0 9.491 11.963"><path d="M13.041 12.11a.2.2 0 0 0-.055.006c-.304.07-.223.527-.223.527l.019.04q-.359.073-.736.183c-3.94 1.16-4.009 5.024-3.818 6.801l-.12.109c-.84.754-.053.94.175.976-5.956 6.765 2.036 18.407 2.036 18.407s6.288 7.98 13.328 7.474c4.935-.354 7.577-1.655 8.733-5.305.019-.019.038-.033.057-.052l-.024-.052c.441-1.445.656-3.251.693-5.505q-.254-.29-.515-.573l-7.189-7.713-3.359-8.746-.08-.018-.003-.016s-1.478-.941-3.656-1.394l.335-.118c1.773-.069.757-.41-.011-.688-.072-2.172-1.714-3.888-4.356-3.919a7 7 0 0 0-.8.04l.016.04-.011-.019s-.165-.483-.436-.485m2.69 4.123.018.031.128-.004a11.2 11.2 0 0 0-2.173.31 11.426 11.426 0 0 0 .423-.096q.15-.03.304-.057l-.005-.01zm.554.016q-.127 0-.253.003.127-.004.253-.003m-7.392 2.83" style="display:inline;fill:#fefefe;fill-opacity:1;stroke:#fff;stroke-width:1.84219;stroke-linecap:round;stroke-linejoin:round;stroke-dasharray:none;stroke-opacity:1" transform="translate(-1.696 -3.678)scale(.32876)"/><path d="M21.96 18.653s-7.428-4.766-13.58 1.981c-6.15 6.747 1.938 18.525 1.938 18.525s6.289 7.98 13.329 7.474c6.912-.496 9.327-2.844 9.459-10.914-3.969-4.597-9.624-7.938-11.146-17.066" style="display:inline;fill:none;fill-opacity:1;stroke:#000;stroke-width:.606958;stroke-linecap:round;stroke-linejoin:round;stroke-dasharray:none;stroke-opacity:1" transform="translate(-1.696 -3.678)scale(.32876)"/><path d="M11.07 13.343s2.275.687 1.784 1.669-4.414 1.701-4.414 1.701M15.622 12.78s-.737 1.544.666 1.813 1.848.07 1.848.07" style="display:inline;fill:none;stroke:#000;stroke-width:.264585;stroke-linecap:round;stroke-linejoin:round;stroke-dasharray:none" transform="translate(-1.696 -3.678)scale(.32876)"/><path d="M15.75 16.265c.875-.05 1.822-.004 2.842.175q.017.008.036.013c-.072-2.171-1.715-3.888-4.357-3.92a7 7 0 0 0-.8.041c.014.031.022.055.022.055zM12.784 12.683a9 9 0 0 0-.739.182c-3.94 1.16-4.008 5.024-3.817 6.802.805-.733 2.876-2.665 6.202-3.25Z" style="display:inline;fill:none;fill-opacity:1;stroke:#000;stroke-width:.264585;stroke-linecap:round;stroke-linejoin:round;stroke-dasharray:none;stroke-opacity:1" transform="translate(-1.696 -3.678)scale(.32876)"/><path d="m15.75 16.265-1.31.176-1.66-3.766s-.082-.456.222-.526.491.48.491.48z" style="display:inline;fill:none;stroke:#000;stroke-width:.264585;stroke-linecap:round;stroke-linejoin:round;stroke-dasharray:none" transform="translate(-1.701 -3.69)scale(.32876)"/><path d="M8.342 20.76s-1.206-.113-.234-.985c.977-.877 4.497-4.387 10.484-3.334.771.28 1.847.63.046.701" style="display:inline;fill:none;fill-opacity:1;stroke:#000;stroke-width:.264585;stroke-linecap:round;stroke-linejoin:round;stroke-dasharray:none;stroke-opacity:1" transform="translate(-1.696 -3.678)scale(.32876)"/><path d="M22.043 18.686s-7.193-1.871-8.783 4.466c-1.59 6.338 5.73 14.85 5.73 14.85s7.693 9.028 13.446 3.275" style="fill:none;stroke:#000;stroke-width:.264585;stroke-linecap:round;stroke-linejoin:round;stroke-dasharray:none" transform="translate(-1.696 -3.678)scale(.32876)"/><path d="M22.374 20.191s-6.93-2.596-7.988 3.423 4.672 12.625 4.672 12.625 12.295 13.503 14.015-.388" style="fill:none;stroke:#000;stroke-width:.264585;stroke-linecap:round;stroke-linejoin:round;stroke-dasharray:none" transform="translate(-1.696 -3.678)scale(.32876)"/><path d="M15.443 24.436c-.224-.134-.351-.483-.277-.734.328-1.115 1.722-1.65 2.806-2.07 1.027-.397 2.405-1 3.286-.339.415.312.449 1.04.28 1.532-.181.53-.82.765-1.253 1.121-.124.102-.381.308-.183.53.48.486 1.037-.926 1.62-.785.669.162 1.294.962 1.242 1.647-.027.348-.922.283-.749.73.21.462.638-.2.855-.016.257.22.27.693.14 1.006-.237.573-1.22.915-1.04 1.392.331.39.886-.704 1.38-.609.481.093 1.026.562 1.029 1.053.004.978-1.82 1.206-1.298 1.792.423.42 1.323-1.123 2.093-1.02.497.066.996.509 1.133.992.139.49-.769 1.085-.451 1.462.334.335.947-1.081 2.408.218 1.46 1.3.397 1.849.909 2.274.347.288.523-.283.795-.234.296.052.587.27.725.538.405.782.393 1.827.058 2.642-.626 1.525-1.914 3.272-3.554 3.438-1.09.11-2.58-.687-2.772-1.766-.217-1.22 1.96-2.06 1.28-2.648-.786-.679-1.427 2.825-2.636 2.087-.749-.457.511-1.2.117-1.52-.314-.255-.982.468-1.438.292-.448-.172-.889-.68-.854-1.157.098-1.336 2.49-1.828 1.878-2.543-.62-.616-1.417 1.55-2.72 1.479-.57-.031-1.29-.626-1.228-1.193.1-.92 1.821-.647 1.577-1.283-.378-.577-1.169.536-1.927.488-.545-.035-1.272-.495-1.263-1.04.013-.899 2.325-.74 2.008-1.356-.274-.413-1.427.462-2.02.14-.617-.338-1.143-1.157-1.017-1.848.1-.556 1.46-.547 1.286-1.105-.201-.394-.651.097-1.064-.041-.847-.285-1.428-1.543-1.187-2.403.26-.928 2.108-.645 1.89-1.388-.218-.744-1.326.566-1.864.245" style="fill:#000;fill-opacity:1;stroke:#000;stroke-width:.264585;stroke-linecap:round;stroke-linejoin:round;stroke-dasharray:none" transform="translate(-1.696 -3.678)scale(.32876)"/></svg>